<svg xmlns="http://www.w3.org/2000/svg" width="548" height="252" fill="none"><g clip-path="url(#a)"><path fill="#FFF5E1" d="M206 0H29a29 29 0 1 0 0 58h177a29 29 0 0 0 0-58Z"/><path fill="#DF3812" fill-rule="evenodd" d="M189 46h24v4h-24v-4Z" clip-rule="evenodd"/><path stroke="#DF3812" stroke-width="2" d="M189 46v66"/><path stroke="#4D4D4D" stroke-width="2" d="M46 46v135"/><path stroke="#67B279" stroke-width="2" d="M17.2 46v206"/><path fill="#67B279" fill-rule="evenodd" d="M17 46h24v4H17v-4Z" clip-rule="evenodd"/><path fill="#4D4D4D" fill-rule="evenodd" d="M45 46h140v4H45v-4Z" clip-rule="evenodd"/><path fill="#67B279" d="M25.2 35V12.6H27v22.6h-1.8Zm6.2 0V12.6h1.9v22.6h-1.9Z"/><path fill="#4D4D4D" d="m59.7 26 2.2.3c-.4 1.2-1 2.2-2 3-.9.6-2 1-3.5 1-1.8 0-3.3-.6-4.3-1.7a6.6 6.6 0 0 1-1.6-4.7c0-2.1.5-3.7 1.6-4.9 1-1.1 2.5-1.7 4.2-1.7 1.7 0 3 .5 4 1.7 1.1 1.1 1.7 2.7 1.7 4.8v.5h-9.3c0 1.4.4 2.4 1.1 3.2.7.7 1.6 1 2.6 1 .8 0 1.5-.2 2-.6.5-.4 1-1 1.3-2Zm-7-3.4h7c0-1-.3-1.9-.8-2.4a3.2 3.2 0 0 0-2.6-1.2c-1 0-1.8.3-2.4 1-.7.6-1 1.5-1.1 2.6ZM63.2 30l4.6-6.5-4.2-6H66l2 3 .8 1.4 1-1.4 2-3h2.6l-4.3 6 4.6 6.5h-2.6l-2.6-3.9-.6-1-3.3 4.9H63Zm21.6-1.5c-.8.6-1.6 1.1-2.3 1.4-.7.2-1.5.4-2.3.4-1.4 0-2.4-.4-3.2-1a3.3 3.3 0 0 1-1-2.6 3.4 3.4 0 0 1 1.4-2.9l1.5-.7 2-.3c1.6-.2 2.9-.4 3.7-.7v-.5c0-1-.2-1.5-.6-1.9-.5-.4-1.3-.7-2.4-.7-1 0-1.7.2-2.2.5-.5.4-.8 1-1 1.9l-2.1-.3a5 5 0 0 1 1-2.1c.3-.6 1-1 1.8-1.3.8-.3 1.7-.4 2.8-.4 1 0 2 .1 2.6.3.7.3 1.1.6 1.5 1 .3.4.5.8.6 1.4l.1 2v2.8l.1 3.7.6 1.5H85c-.2-.4-.4-1-.4-1.5Zm-.2-4.7c-.8.3-2 .5-3.5.8a8 8 0 0 0-1.8.4 1.8 1.8 0 0 0-1.1 1.7c0 .5.2 1 .6 1.4.4.3 1 .5 1.9.5.8 0 1.5-.1 2.2-.5.6-.4 1-.8 1.3-1.5.3-.4.4-1.1.4-2v-.8Zm5.4 6.2V17.6h1.9v1.7a4.4 4.4 0 0 1 3.8-2c.9 0 1.6.2 2.2.5.6.4 1 1 1.3 1.7 1-1.5 2.2-2.2 3.8-2.2 1.3 0 2.2.3 2.9 1 .6.7 1 1.7 1 3.2V30h-2.1v-7.8l-.2-1.9-.8-.9a3 3 0 0 0-3.4.5c-.6.7-.9 1.6-.9 2.9V30h-2.1v-8c0-1-.2-1.7-.5-2.2-.4-.5-1-.7-1.7-.7a3 3 0 0 0-1.7.5c-.5.3-.8.7-1 1.3-.3.6-.4 1.5-.4 2.6V30H90Zm20 4.8V17.6h2v1.6c.4-.7.9-1.1 1.4-1.4.6-.4 1.3-.5 2.1-.5 1 0 2 .2 2.8.8a5 5 0 0 1 1.9 2.3c.4 1 .6 2.1.6 3.3 0 1.3-.2 2.4-.7 3.4a5.2 5.2 0 0 1-4.7 3.2 4 4 0 0 1-2-.5c-.5-.3-1-.6-1.3-1v6h-2.1Zm1.9-11c0 1.6.3 2.8 1 3.6a3 3 0 0 0 2.3 1.1 3 3 0 0 0 2.4-1.1c.7-.8 1-2 1-3.7 0-1.6-.3-2.8-1-3.6a3 3 0 0 0-2.3-1.2c-.9 0-1.7.4-2.4 1.3-.7.8-1 2-1 3.6Zm11.4 6.2V12.8h2.1V30h-2Zm14-4 2 .3c-.2 1.2-.9 2.2-1.8 3-1 .6-2.1 1-3.6 1-1.8 0-3.2-.6-4.3-1.7a6.6 6.6 0 0 1-1.6-4.7c0-2.1.5-3.7 1.6-4.9 1-1.1 2.5-1.7 4.2-1.7 1.7 0 3 .5 4 1.7 1.1 1.1 1.7 2.7 1.7 4.8v.5H130c0 1.4.4 2.4 1.1 3.2.7.7 1.6 1 2.6 1 .8 0 1.5-.2 2-.6.6-.4 1-1 1.3-2Zm-7-3.4h7c-.2-1-.4-1.9-.9-2.4a3.2 3.2 0 0 0-2.6-1.2c-1 0-1.8.3-2.4 1-.7.6-1 1.5-1.1 2.6Zm12.4 7.4v-2.4h2.4V30h-2.4Zm5.3-6.2c0-2.3.6-4 1.9-5.1 1-1 2.3-1.4 3.9-1.4 1.7 0 3 .5 4.2 1.7 1 1 1.6 2.6 1.6 4.6 0 1.6-.2 2.9-.7 3.8a5 5 0 0 1-2.1 2.1 6 6 0 0 1-3 .8c-1.8 0-3.2-.6-4.2-1.7-1.1-1.1-1.7-2.7-1.7-4.8Zm2.1 0c0 1.6.4 2.8 1 3.6.8.8 1.6 1.1 2.7 1.1 1 0 1.9-.4 2.6-1.1.7-.8 1-2 1-3.7 0-1.5-.3-2.7-1-3.5a3.3 3.3 0 0 0-2.6-1.2c-1 0-2 .4-2.6 1.2-.7.8-1 2-1 3.6Zm12 6.2V17.6h1.9v1.8c.5-.8.9-1.4 1.3-1.7.4-.3.9-.4 1.4-.4.7 0 1.4.2 2.1.7l-.7 2a3 3 0 0 0-1.5-.5 2 2 0 0 0-1.3.4c-.3.2-.6.6-.8 1.1-.2.8-.3 1.6-.3 2.5V30H162Zm7.6 1 2 .3c.1.7.4 1.1.8 1.4.5.4 1.2.6 2.1.6 1 0 1.7-.2 2.3-.6.5-.4.9-1 1-1.6.2-.5.2-1.4.2-2.7-1 1-2 1.6-3.4 1.6-1.8 0-3-.6-4-1.9a8.2 8.2 0 0 1-.8-7.7c.5-1 1-1.8 1.9-2.3a5 5 0 0 1 2.9-.8c1.4 0 2.6.6 3.6 1.8v-1.5h2v10.7c0 2-.3 3.3-.7 4.1-.3.8-1 1.5-1.8 2-.9.4-2 .7-3.2.7a6 6 0 0 1-3.6-1c-.9-.7-1.3-1.7-1.3-3Zm1.7-7.4c0 1.6.4 2.8 1 3.5a3 3 0 0 0 2.5 1.2c1 0 1.7-.4 2.4-1.2.7-.7 1-1.9 1-3.5 0-1.5-.4-2.6-1-3.4a3.1 3.1 0 0 0-4.9 0c-.6.7-1 1.9-1 3.4Z"/><path fill="#DF3812" d="M194.5 22h-2.2l4.2-9.5h1.7l4.1 9.4h-2l-3-7-2.8 7Z"/><path fill="#4D4D4D" d="m205 82.3 1.4-.1c.1.6.3 1 .5 1.4.3.4.7.7 1.2.9.5.2 1 .3 1.7.3.6 0 1.1 0 1.6-.2l1-.7c.2-.3.3-.7.3-1 0-.4-.1-.7-.3-1l-1-.6-2.1-.6c-1-.2-1.8-.5-2.2-.7-.6-.3-1-.6-1.2-1-.3-.5-.4-1-.4-1.5 0-.6.1-1.1.4-1.6a3 3 0 0 1 1.5-1.2c.6-.2 1.3-.3 2-.3 1 0 1.7 0 2.3.4.7.2 1.2.6 1.5 1.2.4.5.6 1.1.6 1.8h-1.5c0-.6-.3-1.2-.8-1.6-.4-.3-1-.5-2-.5-.9 0-1.5.2-2 .5-.4.3-.6.7-.6 1.2 0 .4.2.8.5 1 .3.3 1 .6 2.2.8l2.6.8c.6.3 1.1.7 1.5 1.1.3.5.4 1 .4 1.7 0 .6-.1 1.2-.5 1.7-.3.5-.8 1-1.5 1.3-.6.2-1.4.4-2.2.4-1 0-2-.2-2.6-.5a3.7 3.7 0 0 1-2.3-3.4Zm16.7 1 1.5.2c-.3.9-.7 1.5-1.3 2-.6.5-1.4.7-2.4.7-1.2 0-2.2-.4-2.9-1.1-.7-.8-1-1.8-1-3.2 0-1.4.3-2.5 1-3.2.8-.8 1.7-1.2 2.8-1.2 1.1 0 2 .4 2.8 1.1.7.8 1 1.9 1 3.2v.4H217c0 1 .3 1.6.8 2.1.4.5 1 .7 1.7.7.5 0 1-.1 1.3-.4.4-.2.7-.7 1-1.3Zm-4.6-2.2h4.6c0-.7-.2-1.3-.5-1.6-.5-.6-1-.8-1.8-.8-.6 0-1.1.2-1.6.6-.4.5-.7 1-.7 1.8Zm7.8 8V77.8h1.3v1l1-.9c.4-.2.9-.3 1.4-.3.7 0 1.4.2 1.9.6.5.3 1 .8 1.2 1.5.3.7.4 1.4.4 2.2 0 .8-.1 1.6-.4 2.3a3.4 3.4 0 0 1-3.2 2c-.4 0-.9 0-1.2-.2l-1-.8v4H225Zm1.3-7.2c0 1 .2 1.9.7 2.4.4.5 1 .7 1.5.7a2 2 0 0 0 1.6-.8c.5-.5.7-1.3.7-2.4 0-1-.2-1.9-.7-2.4a2 2 0 0 0-1.5-.8c-.6 0-1.1.3-1.6.9-.5.5-.7 1.3-.7 2.4Zm13 3c-.5.5-1 .8-1.5 1-.4.2-1 .3-1.5.3-1 0-1.6-.2-2.1-.7-.5-.4-.7-1-.7-1.7a2.3 2.3 0 0 1 1-2l1-.4 1.2-.2c1.2-.1 2-.3 2.5-.5v-.3c0-.6 0-1-.4-1.2-.3-.4-.8-.5-1.6-.5-.6 0-1.1.1-1.4.3-.3.3-.6.7-.7 1.3l-1.4-.2c.1-.6.3-1 .6-1.5.3-.3.7-.6 1.3-.8.5-.2 1.1-.3 1.8-.3a5 5 0 0 1 1.8.3c.4.1.7.3 1 .6.2.2.3.6.4 1v3.2l.1 2.4.4 1h-1.5a3 3 0 0 1-.2-1Zm0-3-2.4.5-1.2.2a1.2 1.2 0 0 0-.7 1.2c0 .3.1.7.4 1 .3.2.7.3 1.2.3.6 0 1-.1 1.5-.4.4-.2.7-.5 1-1l.1-1.3v-.6Zm3.5 4.1v-8.3h1.3V79c.3-.6.6-1 .9-1.2l.9-.3c.5 0 1 .2 1.4.5l-.4 1.3a2 2 0 0 0-1-.3c-.4 0-.7 0-1 .3-.2.1-.3.4-.4.7-.2.5-.3 1-.3 1.7V86h-1.4Zm10.8-1-1.5 1-1.6.2c-.9 0-1.6-.2-2-.7-.6-.4-.8-1-.8-1.7a2.3 2.3 0 0 1 1-2l1-.4 1.3-.2c1.1-.1 2-.3 2.5-.5v-.3c0-.6-.2-1-.4-1.2-.4-.4-1-.5-1.6-.5-.7 0-1.2.1-1.5.3-.3.3-.5.7-.7 1.3l-1.4-.2.7-1.5c.2-.3.7-.6 1.2-.8.5-.2 1.2-.3 1.9-.3a5 5 0 0 1 1.7.3c.5.1.8.3 1 .6.2.2.3.6.4 1v3.2l.2 2.4c0 .4.2.7.3 1h-1.4a3 3 0 0 1-.3-1Zm-.1-3.2-2.3.6-1.3.2a1.2 1.2 0 0 0-.7 1.2c0 .3.1.7.4 1 .3.2.7.3 1.3.3.5 0 1-.1 1.4-.4.4-.2.7-.5 1-1l.2-1.3v-.6Zm6.7 3 .2 1.2-1.1.1c-.5 0-1 0-1.2-.2-.3-.2-.5-.4-.6-.7a5 5 0 0 1-.2-1.6v-4.8h-1v-1.1h1v-2l1.4-.9v2.9h1.4v1.1h-1.4v4.8l.1.8.2.3.5.1h.7Zm.8-3c0-1.5.4-2.6 1.3-3.4.7-.6 1.6-.9 2.6-.9 1.1 0 2 .4 2.8 1.1.7.8 1 1.8 1 3.1 0 1.1 0 2-.4 2.6-.3.6-.8 1-1.4 1.4a4 4 0 0 1-2 .5c-1.2 0-2.1-.4-2.8-1.1-.7-.8-1-1.8-1-3.2Zm1.5 0c0 1.1.2 2 .7 2.4.4.6 1 .8 1.7.8s1.3-.2 1.7-.8c.5-.5.7-1.3.7-2.4 0-1-.2-1.8-.7-2.3-.4-.6-1-.8-1.7-.8s-1.3.2-1.8.8c-.4.5-.6 1.3-.6 2.4Zm8 4.2v-8.3h1.2V79c.3-.6.6-1 .9-1.2l.9-.3c.5 0 1 .2 1.4.5l-.5 1.3a2 2 0 0 0-1-.3c-.3 0-.6 0-.8.3-.3.1-.4.4-.5.7-.2.5-.3 1-.3 1.7V86h-1.4Zm15.1-3 1.4.1c-.1 1-.5 1.7-1.1 2.3-.7.5-1.4.8-2.3.8-1.2 0-2-.4-2.8-1.1-.7-.8-1-1.8-1-3.2 0-1 .1-1.7.4-2.4a3 3 0 0 1 1.4-1.5 4 4 0 0 1 2-.5c.9 0 1.6.2 2.2.7.6.5 1 1.1 1 2l-1.3.2c-.1-.6-.3-1-.7-1.3-.3-.3-.7-.4-1.2-.4-.7 0-1.3.2-1.7.7-.4.5-.7 1.3-.7 2.4 0 1.2.2 2 .7 2.5.4.5 1 .7 1.6.7.6 0 1-.1 1.4-.5.4-.3.6-.8.7-1.5Zm2.6 3V74.5h1.4v4.2c.7-.8 1.5-1.2 2.5-1.2.6 0 1.2.1 1.6.4.5.2.8.6 1 1 .2.4.3 1 .3 1.8V86h-1.4v-5.3c0-.7-.2-1.2-.5-1.5-.3-.3-.7-.5-1.3-.5-.4 0-.8.1-1.2.4-.3.2-.6.5-.7.8a4 4 0 0 0-.3 1.6V86h-1.4Zm14.3-1-1.5 1-1.5.2c-1 0-1.6-.2-2.1-.7-.5-.4-.8-1-.8-1.7a2.3 2.3 0 0 1 1-2l1-.4 1.3-.2c1.2-.1 2-.3 2.5-.5v-.3c0-.6-.1-1-.4-1.2-.3-.4-.9-.5-1.6-.5-.6 0-1.1.1-1.4.3-.3.3-.6.7-.7 1.3l-1.4-.2c.1-.6.3-1 .6-1.5.3-.3.7-.6 1.3-.8.5-.2 1.1-.3 1.8-.3a5 5 0 0 1 1.8.3c.4.1.7.3 1 .6l.4 1v3.2l.1 2.4c0 .4.2.7.4 1h-1.5a3 3 0 0 1-.3-1Zm0-3.2-2.4.6-1.2.2a1.2 1.2 0 0 0-.8 1.2c0 .3.2.7.5 1 .3.2.7.3 1.2.3.6 0 1-.1 1.5-.4.4-.2.7-.5.9-1l.2-1.3v-.6Zm3.5 4.2v-8.3h1.3V79c.3-.6.6-1 .9-1.2.2-.2.6-.3.9-.3.5 0 1 .2 1.4.5l-.5 1.3a2 2 0 0 0-1-.3c-.3 0-.6 0-.8.3-.3.1-.4.4-.5.7-.2.5-.3 1-.3 1.7V86H306Zm10.8-1-1.5 1-1.6.2c-.9 0-1.6-.2-2-.7-.6-.4-.8-1-.8-1.7a2.3 2.3 0 0 1 1-2l1-.4 1.3-.2 2.5-.5v-.3c0-.6-.2-1-.4-1.2-.4-.4-1-.5-1.6-.5-.7 0-1.2.1-1.5.3-.3.3-.5.7-.7 1.3L311 80l.6-1.5c.3-.3.7-.6 1.3-.8.5-.2 1.2-.3 1.9-.3a5 5 0 0 1 1.7.3c.4.1.8.3 1 .6.2.2.3.6.4 1v3.2l.2 2.4c0 .4.1.7.3 1H317a3 3 0 0 1-.3-1Zm-.1-3.2-2.3.6-1.3.2a1.2 1.2 0 0 0-.7 1.2c0 .3.1.7.4 1 .3.2.7.3 1.3.3.5 0 1-.1 1.4-.4.4-.2.7-.5 1-1l.2-1.3v-.6Zm9 1.2 1.4.1c-.2 1-.6 1.7-1.2 2.3-.6.5-1.4.8-2.3.8-1.1 0-2-.4-2.7-1.1-.7-.8-1-1.8-1-3.2 0-1 0-1.7.4-2.4a3 3 0 0 1 1.3-1.5 4 4 0 0 1 2-.5c1 0 1.7.2 2.2.7.6.5 1 1.1 1.1 2l-1.3.2c-.2-.6-.4-1-.7-1.3-.4-.3-.8-.4-1.2-.4-.7 0-1.3.2-1.8.7-.4.5-.6 1.3-.6 2.4 0 1.2.2 2 .6 2.5.5.5 1 .7 1.7.7.5 0 1-.1 1.4-.5.3-.3.6-.8.7-1.5Zm5.6 1.7.2 1.3-1 .1c-.5 0-1 0-1.2-.2-.3-.2-.5-.4-.6-.7a5 5 0 0 1-.2-1.6v-4.8h-1v-1.1h1v-2l1.4-.9v2.9h1.4v1.1h-1.4v5.6l.3.3.5.1h.6Zm7.1-1.4 1.5.2c-.3.9-.7 1.5-1.3 2-.6.5-1.4.7-2.4.7-1.2 0-2.2-.4-2.9-1.1-.7-.8-1-1.8-1-3.2 0-1.4.3-2.5 1-3.2.7-.8 1.7-1.2 2.8-1.2 1.1 0 2 .4 2.7 1.1.7.8 1.1 1.9 1.1 3.2v.4h-6.2c0 1 .3 1.6.8 2.1.4.5 1 .7 1.7.7.5 0 1-.1 1.3-.4.4-.2.7-.7.9-1.3Zm-4.6-2.2h4.6c0-.7-.2-1.3-.5-1.6-.5-.6-1-.8-1.8-.8-.6 0-1.1.2-1.6.6-.4.5-.7 1-.7 1.8Zm7.8 4.9v-8.3h1.3V79c.3-.6.6-1 .9-1.2.2-.2.5-.3.9-.3s1 .2 1.4.5l-.5 1.3a2 2 0 0 0-1-.3c-.3 0-.6 0-.8.3-.3.1-.4.4-.5.7-.2.5-.3 1-.3 1.7V86h-1.4ZM65.6 168l-4.4-11.5h1.6l3 8.4.6 1.8.6-1.8 3.1-8.4h1.5L67.2 168h-1.6Zm12-2.7 1.5.2c-.3.9-.7 1.5-1.3 2-.6.5-1.4.7-2.4.7-1.2 0-2.2-.4-2.9-1.1-.7-.8-1-1.8-1-3.2 0-1.4.3-2.5 1-3.2.8-.8 1.7-1.2 2.8-1.2 1.2 0 2 .4 2.8 1.1.7.8 1 1.9 1 3.2v.4H73c0 1 .3 1.6.8 2.1s1 .7 1.7.7c.5 0 1-.1 1.3-.4.4-.2.7-.7 1-1.3Zm-4.6-2.2h4.6c0-.7-.2-1.3-.5-1.6-.4-.6-1-.8-1.7-.8s-1.2.2-1.7.6c-.4.5-.7 1-.7 1.8Zm7.8 4.9v-8.3h1.3v1.3c.3-.6.6-1 .9-1.2l.9-.3c.5 0 1 .2 1.4.5l-.5 1.3a2 2 0 0 0-1-.3c-.3 0-.6 0-.8.3-.3.1-.4.4-.5.7-.2.5-.3 1-.3 1.7v4.3h-1.4Zm6.7 0h-1.3v-11.5h1.4v4.1c.6-.7 1.3-1 2.2-1 .6 0 1 0 1.5.2.4.2.8.5 1.1.9l.7 1.3c.2.6.3 1.1.3 1.7 0 1.4-.4 2.5-1.1 3.3-.7.8-1.5 1.2-2.5 1.2s-1.8-.4-2.3-1.2v1Zm0-4.2c0 1 0 1.7.4 2.1.4.8 1 1.1 1.8 1.1a2 2 0 0 0 1.5-.8c.5-.5.7-1.3.7-2.4 0-1-.2-1.8-.6-2.4a2 2 0 0 0-3.2 0c-.4.6-.6 1.4-.6 2.4Zm13 3.2-1.5 1-1.6.2c-.9 0-1.6-.2-2-.7-.6-.4-.8-1-.8-1.7a2.3 2.3 0 0 1 1-2l1-.4 1.3-.2c1.1-.1 2-.3 2.5-.5v-.3c0-.6-.2-1-.4-1.2-.4-.4-1-.5-1.6-.5-.7 0-1.2.1-1.5.3-.3.3-.5.7-.7 1.3l-1.4-.2.7-1.5c.2-.3.7-.6 1.2-.8.5-.2 1.2-.3 1.9-.3a5 5 0 0 1 1.7.3c.5.1.8.3 1 .6.2.2.3.6.4 1v3.2l.2 2.4c0 .4.2.7.3 1h-1.4a3 3 0 0 1-.3-1Zm-.1-3.2-2.3.6-1.3.2a1.2 1.2 0 0 0-.7 1.2c0 .3.1.7.4 1 .3.2.7.3 1.3.3.5 0 1-.1 1.4-.4.4-.2.7-.5 1-1l.2-1.3v-.6Zm6.7 3 .2 1.2-1.1.1c-.5 0-1 0-1.2-.2-.3-.2-.5-.4-.6-.7a5 5 0 0 1-.2-1.6v-4.8h-1v-1.1h1v-2l1.4-.9v2.9h1.5v1.1h-1.5v4.8l.1.8.3.3.4.1h.7Zm1.3-8.6v-1.7h1.4v1.7h-1.4Zm0 9.8v-8.3h1.4v8.3h-1.4Zm3.6 0v-8.3h1.3v1.2a3 3 0 0 1 2.5-1.4c.6 0 1 .1 1.5.4.4.3.7.6.8 1a3 3 0 0 1 2.6-1.4c.8 0 1.4.2 1.9.7.4.5.6 1.2.6 2.1v5.7h-1.4v-5.2l-.1-1.2c0-.3-.3-.5-.5-.6-.2-.2-.5-.3-.8-.3a2 2 0 0 0-1.5.6c-.4.4-.6 1-.6 1.9v4.8H117v-5.4c0-.6 0-1-.3-1.4-.2-.3-.6-.5-1.1-.5a2 2 0 0 0-1.1.3c-.4.3-.6.6-.8 1l-.2 1.7v4.3H112Zm20.8-1.3.3 1.3-1.1.1c-.5 0-1 0-1.2-.2-.3-.2-.5-.4-.6-.7a5 5 0 0 1-.2-1.6v-4.8h-1v-1.1h1v-2l1.4-.9v2.9h1.4v1.1h-1.4v4.8l.1.8.2.3.5.1h.7Zm7.1-1.4 1.5.2c-.3.9-.7 1.5-1.3 2-.6.5-1.4.7-2.4.7-1.2 0-2.2-.4-2.9-1.1-.7-.8-1-1.8-1-3.2 0-1.4.3-2.5 1-3.2.8-.8 1.7-1.2 2.8-1.2 1.1 0 2 .4 2.8 1.1.7.8 1 1.9 1 3.2v.4h-6.2c0 1 .3 1.6.8 2.1s1 .7 1.7.7c.5 0 1-.1 1.3-.4.4-.2.7-.7 1-1.3Zm-4.6-2.2h4.6c0-.7-.2-1.3-.5-1.6-.5-.6-1-.8-1.7-.8s-1.2.2-1.7.6c-.4.5-.7 1-.7 1.8Zm6.9 4.9 3-4.3-2.8-4h1.8l1.3 2 .5.9.7-1 1.4-1.9h1.6l-2.8 4 3 4.3h-1.7l-1.7-2.6-.4-.7-2.2 3.3h-1.7Zm12-1.3.2 1.3-1 .1c-.6 0-1 0-1.2-.2-.3-.2-.5-.4-.6-.7a5 5 0 0 1-.2-1.6v-4.8h-1v-1.1h1v-2l1.4-.9v2.9h1.4v1.1h-1.4v5.6l.3.3.5.1h.6Zm1.8 1.3v-1.6h1.6v1.6H156Zm11.3 0v-10.1h-3.8v-1.4h9.1v1.4h-3.8V168h-1.5Zm6.7 0v-11.5h1.4v4.2c.6-.8 1.5-1.2 2.5-1.2.6 0 1.1.1 1.6.4.4.2.8.6 1 1l.2 1.8v5.3h-1.4v-5.3c0-.7-.1-1.2-.4-1.5-.3-.3-.8-.5-1.3-.5-.4 0-.8.1-1.2.4-.4.2-.6.5-.8.8a4 4 0 0 0-.2 1.6v4.5H174Zm8.9-9.8v-1.7h1.4v1.7h-1.4Zm0 9.8v-8.3h1.4v8.3h-1.4Zm3-2.5 1.4-.2c0 .6.3 1 .6 1.3.4.3.9.4 1.5.4.7 0 1.2-.1 1.5-.4.3-.2.4-.5.4-.9 0-.3-.1-.6-.4-.7-.2-.2-.7-.3-1.4-.5l-2.2-.7c-.4-.2-.7-.4-.9-.8-.2-.3-.3-.7-.3-1 0-.5.1-.8.3-1.1.1-.3.4-.6.7-.8.2-.2.5-.3.9-.4l1.2-.2c.6 0 1.2.1 1.7.3.5.2.8.4 1 .8.3.3.5.7.6 1.2l-1.4.2c0-.4-.3-.7-.6-1a2 2 0 0 0-1.2-.3c-.7 0-1.1 0-1.4.3-.3.2-.4.5-.4.7 0 .2 0 .4.2.5 0 .2.2.3.5.4l1.2.4 2.1.6c.4.2.7.4 1 .8.2.3.3.7.3 1.2 0 .4-.2.9-.4 1.3-.3.4-.7.7-1.2 1-.5.2-1.1.3-1.8.3a4 4 0 0 1-2.4-.7c-.6-.4-1-1.1-1.1-2Zm16 1.2.3 1.3-1 .1c-.6 0-1 0-1.3-.2-.3-.2-.5-.4-.6-.7a5 5 0 0 1-.1-1.6v-4.8h-1v-1.1h1v-2l1.4-.9v2.9h1.4v1.1h-1.4v5.6l.3.3.5.1h.6Zm7.1-1.4 1.5.2c-.2.9-.7 1.5-1.3 2-.6.5-1.4.7-2.4.7-1.2 0-2.1-.4-2.8-1.1-.8-.8-1.1-1.8-1.1-3.2 0-1.4.3-2.5 1-3.2.8-.8 1.7-1.2 2.9-1.2 1 0 2 .4 2.7 1.1.7.8 1 1.9 1 3.2v.4h-6.2c0 1 .4 1.6.8 2.1.5.5 1 .7 1.8.7.5 0 1-.1 1.3-.4.3-.2.6-.7.8-1.3Zm-4.6-2.2h4.7c-.1-.7-.3-1.3-.6-1.6-.4-.6-1-.8-1.7-.8s-1.2.2-1.7.6c-.4.5-.6 1-.7 1.8Zm7 4.9 3-4.3-2.8-4h1.7l1.3 2 .6.9.6-1 1.4-1.9h1.7l-2.9 4 3 4.3h-1.6l-1.7-2.6-.5-.7-2.2 3.3h-1.7Zm12-1.3.1 1.3-1 .1c-.5 0-1 0-1.2-.2-.3-.2-.5-.4-.6-.7a5 5 0 0 1-.2-1.6v-4.8h-1v-1.1h1v-2l1.4-.9v2.9h1.4v1.1H222v5.6l.3.3.5.1h.6Zm5.8 1.3v-8.3h1.2v1.2a3 3 0 0 1 2.5-1.4c.7 0 1.2.1 1.6.4l.8 1a3 3 0 0 1 2.5-1.4c.9 0 1.5.2 2 .7.4.5.6 1.2.6 2.1v5.7H239v-5.2l-.1-1.2c-.1-.3-.3-.5-.5-.6-.3-.2-.5-.3-.9-.3a2 2 0 0 0-1.4.6c-.4.4-.6 1-.6 1.9v4.8h-1.4v-5.4c0-.6-.1-1-.3-1.4-.3-.3-.6-.5-1.2-.5a2 2 0 0 0-1 .3c-.4.3-.6.6-.8 1l-.2 1.7v4.3h-1.4Zm18.7 0v-1.2a3 3 0 0 1-2.6 1.4c-.5 0-1-.1-1.4-.3l-1-.7c-.1-.3-.3-.6-.3-1l-.1-1.4v-5.1h1.4v6.1c.1.4.3.7.6.9.3.2.7.3 1 .3.5 0 .9-.1 1.3-.3l.8-1 .2-1.6v-4.4h1.4v8.3h-1.3Zm3-2.5 1.3-.2c.1.6.3 1 .7 1.3.3.3.8.4 1.5.4.6 0 1.1-.1 1.4-.4.3-.2.5-.5.5-.9 0-.3-.2-.6-.4-.7a6 6 0 0 0-1.5-.5l-2.1-.7c-.4-.2-.7-.4-1-.8l-.2-1c0-.5 0-.8.2-1.1l.7-.8c.2-.2.5-.3 1-.4l1.1-.2c.7 0 1.3.1 1.7.3.5.2.9.4 1.1.8.3.3.4.7.5 1.2l-1.4.2c0-.4-.2-.7-.5-1a2 2 0 0 0-1.3-.3c-.6 0-1 0-1.3.3-.3.2-.5.5-.5.7 0 .2 0 .4.2.5l.5.4 1.3.4 2 .6c.5.2.8.4 1 .8.2.3.3.7.3 1.2 0 .4-.1.9-.4 1.3-.3.4-.6.7-1.2 1-.5.2-1 .3-1.7.3a4 4 0 0 1-2.5-.7c-.5-.4-.9-1.1-1-2Zm11.6 1.2.2 1.3-1 .1c-.6 0-1 0-1.3-.2-.3-.2-.5-.4-.6-.7a5 5 0 0 1-.1-1.6v-4.8h-1v-1.1h1v-2l1.4-.9v2.9h1.4v1.1H261v5.6l.3.3.5.1h.6Zm7.1 1.3h-1.3v-11.5h1.4v4.1c.6-.7 1.4-1 2.3-1 .5 0 1 0 1.4.2.5.2.9.5 1.2.9.3.4.5.8.6 1.3.2.6.3 1.1.3 1.7 0 1.4-.4 2.5-1 3.3-.8.8-1.6 1.2-2.6 1.2s-1.7-.4-2.3-1.2v1Zm0-4.2c0 1 .1 1.7.4 2.1.4.8 1 1.1 1.8 1.1a2 2 0 0 0 1.6-.8c.4-.5.7-1.3.7-2.4 0-1-.3-1.8-.7-2.4a2 2 0 0 0-1.5-.7 2 2 0 0 0-1.6.8c-.5.5-.7 1.3-.7 2.3Zm13.3 1.5 1.5.2c-.3.9-.7 1.5-1.3 2-.6.5-1.4.7-2.4.7-1.2 0-2.2-.4-2.9-1.1-.7-.8-1-1.8-1-3.2 0-1.4.3-2.5 1-3.2.7-.8 1.7-1.2 2.8-1.2 1.1 0 2 .4 2.7 1.1.7.8 1.1 1.9 1.1 3.2v.4h-6.2c0 1 .3 1.6.8 2.1.4.5 1 .7 1.7.7.5 0 1-.1 1.3-.4.4-.2.7-.7.9-1.3Zm-4.6-2.2h4.6c0-.7-.2-1.3-.5-1.6-.5-.6-1-.8-1.8-.8-.6 0-1.2.2-1.6.6-.4.5-.7 1-.7 1.8Zm12.3 8v-11.4h1.3v1c.3-.3.6-.7 1-.9.4-.2.8-.3 1.4-.3.7 0 1.3.2 1.8.6.6.3 1 .8 1.3 1.5.2.7.4 1.4.4 2.2 0 .8-.2 1.6-.5 2.3a3.4 3.4 0 0 1-3.1 2c-.5 0-1 0-1.3-.2l-1-.8v4h-1.3Zm1.3-7.2c0 1 .2 1.9.6 2.4.4.5 1 .7 1.6.7a2 2 0 0 0 1.6-.8c.4-.5.6-1.3.6-2.4 0-1-.2-1.9-.6-2.4a2 2 0 0 0-1.6-.8c-.6 0-1.1.3-1.6.9-.4.5-.6 1.3-.6 2.4Zm7.6 4.1v-8.3h1.2v1.3c.4-.6.7-1 1-1.2.2-.2.5-.3.8-.3.5 0 1 .2 1.5.5l-.5 1.3a2 2 0 0 0-1-.3c-.3 0-.6 0-.9.3-.2.1-.4.4-.5.7l-.2 1.7v4.3h-1.4Zm11-2.7 1.4.2c-.2.9-.6 1.5-1.2 2s-1.4.7-2.4.7c-1.2 0-2.2-.4-2.9-1.1-.7-.8-1-1.8-1-3.2 0-1.4.3-2.5 1-3.2.7-.8 1.7-1.2 2.8-1.2 1.1 0 2 .4 2.7 1.1.7.8 1 1.9 1 3.2v.4h-6.1c0 1 .3 1.6.8 2.1.4.5 1 .7 1.7.7.5 0 1-.1 1.3-.4.4-.2.7-.7.9-1.3Zm-4.6-2.2h4.6c0-.7-.2-1.3-.5-1.6-.5-.6-1-.8-1.8-.8-.6 0-1.2.2-1.6.6-.4.5-.7 1-.7 1.8Zm7.3 2.4 1.3-.2c.1.6.3 1 .7 1.3.4.3.9.4 1.5.4s1.1-.1 1.4-.4c.3-.2.5-.5.5-.9 0-.3-.1-.6-.4-.7-.2-.2-.7-.3-1.5-.5l-2.1-.7c-.4-.2-.7-.4-1-.8l-.2-1c0-.5 0-.8.2-1.1l.7-.8 1-.4 1.1-.2c.7 0 1.3.1 1.8.3.4.2.8.4 1 .8.3.3.4.7.5 1.2l-1.3.2c-.1-.4-.3-.7-.6-1a2 2 0 0 0-1.3-.3c-.6 0-1 0-1.3.3-.3.2-.5.5-.5.7l.2.5c.1.2.3.3.6.4l1.2.4 2 .6c.5.2.8.4 1 .8.2.3.3.7.3 1.2 0 .4 0 .9-.4 1.3-.2.4-.6.7-1.1 1-.6.2-1.1.3-1.8.3a4 4 0 0 1-2.5-.7c-.5-.4-.9-1.1-1-2Zm14.2-.2 1.5.2c-.3.9-.7 1.5-1.3 2-.6.5-1.4.7-2.4.7-1.2 0-2.2-.4-2.9-1.1-.7-.8-1-1.8-1-3.2 0-1.4.3-2.5 1-3.2.7-.8 1.7-1.2 2.8-1.2 1.1 0 2 .4 2.7 1.1.7.8 1.1 1.9 1.1 3.2v.4h-6.2c0 1 .3 1.6.8 2.1.4.5 1 .7 1.7.7.5 0 1-.1 1.3-.4.4-.2.7-.7.9-1.3Zm-4.6-2.2h4.6c0-.7-.2-1.3-.5-1.6-.5-.6-1-.8-1.8-.8-.6 0-1.2.2-1.6.6-.4.5-.7 1-.7 1.8Zm7.8 4.9v-8.3h1.3v1.2a3 3 0 0 1 2.6-1.4c.5 0 1 .1 1.4.3l1 .7.4 1v6.5H336v-5l-.2-1.3c-.1-.3-.3-.5-.6-.7-.3-.2-.6-.3-1-.3-.6 0-1 .2-1.5.6-.5.4-.7 1.1-.7 2.2v4.5h-1.4Zm12-1.3.2 1.3-1 .1c-.6 0-1 0-1.2-.2-.3-.2-.5-.4-.6-.7a5 5 0 0 1-.2-1.6v-4.8h-1v-1.1h1v-2l1.4-.9v2.9h1.4v1.1h-1.4v5.6l.3.3.5.1h.6Zm5.8-8.5v-1.7h1.5v1.7h-1.5Zm0 9.8v-8.3h1.5v8.3h-1.5Zm3.6 0v-8.3h1.3v1.2a3 3 0 0 1 2.6-1.4c.5 0 1 .1 1.4.3l1 .7.4 1v6.5h-1.4v-5l-.1-1.3c-.1-.3-.3-.5-.6-.7-.3-.2-.6-.3-1-.3-.6 0-1.1.2-1.5.6-.5.4-.7 1.1-.7 2.2v4.5H352Zm16.4-1.3.2 1.3-1 .1c-.5 0-1 0-1.2-.2-.3-.2-.5-.4-.6-.7a5 5 0 0 1-.2-1.6v-4.8h-1v-1.1h1v-2l1.4-.9v2.9h1.4v1.1H367v5.6l.3.3.5.1h.6Zm1.4 1.3v-11.5h1.4v4.2c.7-.8 1.5-1.2 2.5-1.2.6 0 1.2.1 1.6.4.5.2.8.6 1 1 .2.4.3 1 .3 1.8v5.3h-1.4v-5.3c0-.7-.2-1.2-.5-1.5-.3-.3-.7-.5-1.3-.5-.4 0-.8.1-1.2.4-.3.2-.6.5-.7.8a4 4 0 0 0-.3 1.6v4.5h-1.4Zm14.6-2.7 1.5.2c-.3.9-.7 1.5-1.3 2-.6.5-1.4.7-2.4.7-1.2 0-2.2-.4-2.9-1.1-.7-.8-1-1.8-1-3.2 0-1.4.3-2.5 1-3.2.7-.8 1.7-1.2 2.8-1.2 1.1 0 2 .4 2.7 1.1.7.8 1.1 1.9 1.1 3.2v.4h-6.2c0 1 .3 1.6.8 2.1.4.5 1 .7 1.7.7.5 0 1-.1 1.3-.4.4-.2.7-.7.9-1.3Zm-4.6-2.2h4.6c0-.7-.2-1.3-.5-1.6-.5-.6-1-.8-1.8-.8-.6 0-1.2.2-1.6.6-.4.5-.7 1-.7 1.8Zm17.7 3.9-1.5 1-1.6.2c-.9 0-1.6-.2-2-.7-.6-.4-.8-1-.8-1.7a2.3 2.3 0 0 1 1-2l1-.4 1.3-.2c1.1-.1 2-.3 2.5-.5v-.3c0-.6-.2-1-.4-1.2-.4-.4-1-.5-1.6-.5-.7 0-1.2.1-1.5.3-.3.3-.5.7-.7 1.3l-1.4-.2.7-1.5c.2-.3.7-.6 1.2-.8.5-.2 1.2-.3 1.9-.3a5 5 0 0 1 1.7.3c.5.1.8.3 1 .6.2.2.3.6.4 1l.1 1.2v4.4l.4 1h-1.4a3 3 0 0 1-.3-1Zm-.1-3.2-2.3.6-1.3.2a1.2 1.2 0 0 0-.7 1.2c0 .3.1.7.4 1 .3.2.7.3 1.3.3.5 0 1-.1 1.4-.4.4-.2.7-.5 1-1l.2-1.3v-.6Zm9 4.2v-1c-.6.8-1.3 1.2-2.4 1.2a3.6 3.6 0 0 1-3.1-2c-.3-.7-.4-1.5-.4-2.3 0-.9.1-1.6.4-2.3a3.3 3.3 0 0 1 4.4-1.8c.4.2.7.5 1 .9v-4.2h1.4V168h-1.3Zm-4.5-4.1c0 1 .2 1.8.7 2.3.4.6 1 .8 1.6.8a2 2 0 0 0 1.5-.7c.5-.5.7-1.3.7-2.3 0-1.2-.2-2-.7-2.5a2 2 0 0 0-3.2 0c-.4.5-.6 1.3-.6 2.4Zm13.4 4.1v-1c-.6.8-1.3 1.2-2.3 1.2a3.6 3.6 0 0 1-3.1-2c-.4-.7-.5-1.5-.5-2.3 0-.9.1-1.6.4-2.3a3.3 3.3 0 0 1 4.4-1.8c.4.2.7.5 1 .9v-4.2h1.4V168h-1.3Zm-4.5-4.1c0 1 .3 1.8.7 2.3.4.6 1 .8 1.6.8a2 2 0 0 0 1.5-.7c.5-.5.7-1.3.7-2.3 0-1.2-.2-2-.7-2.5a2 2 0 0 0-3.1 0c-.5.5-.7 1.3-.7 2.4Zm8 4.1v-8.3h1.2v1.3c.4-.6.7-1 1-1.2.2-.2.5-.3.8-.3.5 0 1 .2 1.5.5l-.5 1.3a2 2 0 0 0-1-.3c-.3 0-.6 0-.9.3-.2.1-.4.4-.5.7l-.2 1.7v4.3h-1.4Zm11-2.7 1.5.2c-.3.9-.7 1.5-1.3 2-.6.5-1.4.7-2.4.7-1.2 0-2.2-.4-2.9-1.1-.7-.8-1-1.8-1-3.2 0-1.4.3-2.5 1-3.2.8-.8 1.7-1.2 2.8-1.2 1.1 0 2 .4 2.7 1.1.8.8 1.1 1.9 1.1 3.2v.4h-6.2c0 1 .3 1.6.8 2.1.4.5 1 .7 1.7.7.5 0 1-.1 1.3-.4.4-.2.7-.7.9-1.3Zm-4.6-2.2h4.6c0-.7-.2-1.3-.5-1.6-.5-.6-1-.8-1.8-.8-.6 0-1.1.2-1.6.6-.4.5-.7 1-.7 1.8Zm7.3 2.4 1.4-.2c0 .6.3 1 .6 1.3.4.3.9.4 1.5.4.7 0 1.1-.1 1.4-.4.4-.2.5-.5.5-.9 0-.3-.1-.6-.4-.7a6 6 0 0 0-1.4-.5l-2.2-.7c-.4-.2-.7-.4-.9-.8-.2-.3-.3-.7-.3-1 0-.5 0-.8.3-1.1l.6-.8 1-.4 1.2-.2c.6 0 1.2.1 1.7.3.5.2.8.4 1 .8.3.3.5.7.5 1.2l-1.3.2c0-.4-.3-.7-.6-1a2 2 0 0 0-1.2-.3c-.7 0-1.1 0-1.4.3-.3.2-.4.5-.4.7l.1.5c.1.2.3.3.6.4l1.2.4 2 .6c.5.2.8.4 1 .8.2.3.4.7.4 1.2 0 .4-.2.9-.5 1.3-.2.4-.6.7-1.1 1-.6.2-1.1.3-1.8.3a4 4 0 0 1-2.5-.7c-.5-.4-.9-1.1-1-2Zm8 0 1.4-.2c0 .6.3 1 .6 1.3.4.3.9.4 1.5.4.7 0 1.1-.1 1.4-.4.4-.2.5-.5.5-.9 0-.3-.1-.6-.4-.7a6 6 0 0 0-1.4-.5l-2.2-.7c-.4-.2-.7-.4-.9-.8-.2-.3-.3-.7-.3-1 0-.5 0-.8.3-1.1l.6-.8 1-.4 1.2-.2c.6 0 1.2.1 1.7.3.5.2.8.4 1 .8.3.3.5.7.5 1.2l-1.3.2c0-.4-.3-.7-.6-1a2 2 0 0 0-1.2-.3c-.7 0-1.1 0-1.4.3-.3.2-.4.5-.4.7l.1.5c.1.2.3.3.6.4l1.2.4 2 .6c.5.2.8.4 1 .8.2.3.4.7.4 1.2 0 .4-.2.9-.5 1.3-.2.4-.6.7-1.1 1-.6.2-1.1.3-1.8.3a4 4 0 0 1-2.5-.7c-.5-.4-.9-1.1-1-2Zm16 1.2.3 1.3-1.1.1c-.5 0-1 0-1.2-.2-.3-.2-.5-.4-.6-.7a5 5 0 0 1-.2-1.6v-4.8h-1v-1.1h1v-2l1.4-.9v2.9h1.5v1.1H455v4.8l.1.8.3.3.4.1h.7Zm1-2.8c0-1.6.3-2.7 1.2-3.5.7-.6 1.6-.9 2.6-.9 1.1 0 2 .4 2.8 1.1.7.8 1 1.8 1 3.1 0 1.1 0 2-.4 2.6-.3.6-.8 1-1.4 1.4a4 4 0 0 1-2 .5c-1.2 0-2.1-.4-2.8-1.1-.7-.8-1-1.8-1-3.2Zm1.4 0c0 1 .2 1.8.7 2.3.4.6 1 .8 1.7.8s1.3-.2 1.7-.8c.5-.5.7-1.3.7-2.4 0-1-.2-1.8-.7-2.3-.4-.6-1-.8-1.7-.8s-1.3.2-1.7.8c-.5.5-.7 1.3-.7 2.4Zm13.7 4.1h-1.3v-11.5h1.4v4.1c.6-.7 1.3-1 2.3-1 .5 0 1 0 1.4.2.5.2.8.5 1.1.9.3.4.6.8.7 1.3.2.6.3 1.1.3 1.7 0 1.4-.4 2.5-1 3.3-.8.8-1.6 1.2-2.6 1.2s-1.8-.4-2.3-1.2v1Zm0-4.2c0 1 .1 1.7.4 2.1.4.8 1 1.1 1.8 1.1a2 2 0 0 0 1.6-.8c.4-.5.6-1.3.6-2.4 0-1-.2-1.8-.6-2.4a2 2 0 0 0-1.6-.7 2 2 0 0 0-1.6.8c-.4.5-.6 1.3-.6 2.3Zm13.3 1.5 1.4.2c-.2.9-.6 1.5-1.2 2-.7.5-1.5.7-2.4.7-1.2 0-2.2-.4-2.9-1.1-.7-.8-1-1.8-1-3.2 0-1.4.3-2.5 1-3.2.7-.8 1.7-1.2 2.8-1.2 1.1 0 2 .4 2.7 1.1.7.8 1 1.9 1 3.2v.4h-6.1c0 1 .3 1.6.8 2.1.4.5 1 .7 1.7.7.5 0 1-.1 1.3-.4.4-.2.7-.7.9-1.3Zm-4.6-2.2h4.6c0-.7-.2-1.3-.5-1.6-.5-.6-1-.8-1.8-.8-.6 0-1.2.2-1.6.6-.4.5-.7 1-.7 1.8Zm13.6 4.9h-1.3v-11.5h1.4v4.1c.6-.7 1.3-1 2.2-1 .5 0 1 0 1.5.2.4.2.8.5 1.1.9l.7 1.3c.2.6.2 1.1.2 1.7 0 1.4-.3 2.5-1 3.3-.7.8-1.6 1.2-2.5 1.2-1 0-1.8-.4-2.3-1.2v1Zm0-4.2c0 1 0 1.7.3 2.1.5.8 1 1.1 1.8 1.1a2 2 0 0 0 1.6-.8c.5-.5.7-1.3.7-2.4 0-1-.2-1.8-.6-2.4a2 2 0 0 0-1.6-.7 2 2 0 0 0-1.6.8c-.4.5-.7 1.3-.7 2.3Zm7.5 4.2v-11.5h1.4V168h-1.4Zm3.1-4.1c0-1.6.4-2.7 1.3-3.5.7-.6 1.6-.9 2.6-.9 1.1 0 2 .4 2.8 1.1.7.8 1 1.8 1 3.1 0 1.1 0 2-.4 2.6-.3.6-.8 1-1.4 1.4a4 4 0 0 1-2 .5c-1.2 0-2.1-.4-2.8-1.1-.7-.8-1-1.8-1-3.2Zm1.5 0c0 1 .2 1.8.6 2.3.5.6 1 .8 1.8.8.7 0 1.3-.2 1.7-.8.5-.5.7-1.3.7-2.4 0-1-.2-1.8-.7-2.3-.4-.6-1-.8-1.7-.8s-1.3.2-1.8.8c-.4.5-.6 1.3-.6 2.4Zm13.4 1 1.3.2c-.1 1-.5 1.7-1.1 2.3-.7.5-1.4.8-2.3.8-1.2 0-2-.4-2.8-1.1-.6-.8-1-1.8-1-3.2 0-1 .2-1.7.5-2.4a3 3 0 0 1 1.3-1.5 4 4 0 0 1 2-.5c.9 0 1.6.2 2.2.7.6.5 1 1.1 1.1 2l-1.4.2c-.1-.6-.3-1-.7-1.3-.3-.3-.7-.4-1.2-.4-.7 0-1.2.2-1.7.7-.4.5-.6 1.3-.6 2.4 0 1.2.2 2 .6 2.5.4.5 1 .7 1.7.7.5 0 1-.1 1.3-.5.4-.3.7-.8.8-1.5Zm2.5 3.1v-11.5h1.5v6.6l3.3-3.4h1.8l-3.2 3 3.5 5.3h-1.7l-2.8-4.2-1 1v3.2H523Zm13.7-2.7 1.5.2c-.3.9-.7 1.5-1.3 2-.6.5-1.4.7-2.4.7-1.2 0-2.2-.4-2.9-1.1-.7-.8-1-1.8-1-3.2 0-1.4.3-2.5 1-3.2.8-.8 1.7-1.2 2.8-1.2 1.2 0 2 .4 2.8 1.1.7.8 1 1.9 1 3.2v.4H532c0 1 .3 1.6.8 2.1s1 .7 1.7.7c.5 0 1-.1 1.3-.4.4-.2.7-.7 1-1.3Zm-4.6-2.2h4.6c0-.7-.2-1.3-.5-1.6-.4-.6-1-.8-1.7-.8s-1.2.2-1.7.6c-.4.5-.7 1-.7 1.8Zm13.2 4.9v-1c-.5.8-1.3 1.2-2.3 1.2-.7 0-1.3-.2-1.8-.6-.6-.3-1-.8-1.3-1.5-.3-.6-.5-1.4-.5-2.2 0-.9.2-1.6.4-2.3a3.3 3.3 0 0 1 3.1-2 2.7 2.7 0 0 1 2.3 1v-4h1.4V168h-1.3Zm-4.4-4.1c0 1 .2 1.8.7 2.3.4.6 1 .8 1.5.8a2 2 0 0 0 1.6-.7c.4-.5.6-1.3.6-2.3 0-1.2-.2-2-.6-2.5a2 2 0 0 0-3.2 0c-.4.5-.6 1.3-.6 2.4ZM35.6 222v-11.5h2.3l2.7 8.2.5 1.7.6-1.9 2.8-8h2V222h-1.4v-9.6l-3.4 9.6h-1.3l-3.4-9.8v9.8h-1.4Zm18.6-1-1.5 1-1.6.2c-.9 0-1.6-.2-2-.7-.5-.4-.8-1-.8-1.7a2.3 2.3 0 0 1 1-2l1-.4 1.3-.2c1.1-.1 2-.3 2.5-.5v-.3c0-.6-.1-1-.4-1.2-.4-.4-.9-.5-1.6-.5-.7 0-1.2.1-1.5.3-.3.3-.5.7-.7 1.3l-1.4-.2.7-1.5c.3-.3.7-.6 1.2-.8.5-.2 1.2-.3 1.9-.3a5 5 0 0 1 1.7.3c.5.1.8.3 1 .6.2.2.3.6.4 1l.1 1.2v4.4l.4 1h-1.4a3 3 0 0 1-.3-1Zm-.1-3.2-2.3.6-1.2.2a1.2 1.2 0 0 0-.8 1.2c0 .3.1.7.4 1 .3.2.7.3 1.3.3.5 0 1-.1 1.4-.4.4-.2.8-.5 1-1l.2-1.3v-.6Zm6.7 3 .2 1.2-1.1.1c-.5 0-1 0-1.2-.2-.3-.2-.5-.4-.6-.7a5 5 0 0 1-.2-1.6v-4.8h-1v-1.1h1v-2l1.4-.9v2.9h1.5v1.1h-1.5v4.8l.1.8.3.3.4.1h.7Zm6.8-1.8 1.3.1c-.1 1-.5 1.7-1.1 2.3-.6.5-1.4.8-2.3.8-1.1 0-2-.4-2.8-1.1-.6-.8-1-1.8-1-3.2 0-1 .2-1.7.5-2.4a3 3 0 0 1 1.3-1.5 4 4 0 0 1 2-.5c.9 0 1.6.2 2.2.7.6.5 1 1.1 1.1 2l-1.4.2c0-.6-.3-1-.7-1.3-.3-.3-.7-.4-1.2-.4-.7 0-1.2.2-1.7.7-.4.5-.6 1.3-.6 2.4 0 1.2.2 2 .6 2.5.4.5 1 .7 1.7.7.5 0 1-.1 1.4-.5.3-.3.6-.8.7-1.5Zm2.5 3v-11.5h1.4v4.2c.7-.8 1.5-1.2 2.5-1.2.6 0 1.2.1 1.6.4.5.2.8.6 1 1 .2.4.3 1 .3 1.8v5.3h-1.4v-5.3c0-.7-.2-1.2-.5-1.5-.3-.3-.7-.5-1.3-.5-.4 0-.8.1-1.1.4-.4.2-.7.5-.8.8a4 4 0 0 0-.3 1.6v4.5h-1.4Zm9-9.8v-1.7h1.4v1.7H79Zm0 9.8v-8.3h1.4v8.3H79Zm3.5 0v-8.3H84v1.2a3 3 0 0 1 2.6-1.4c.5 0 1 .1 1.4.3l1 .7.4 1v6.5H88v-5l-.1-1.3c-.1-.3-.3-.5-.6-.7-.3-.2-.6-.3-1-.3-.6 0-1.1.2-1.5.6-.5.4-.7 1.1-.7 2.2v4.5h-1.4Zm8.7.7 1.3.2c0 .4.2.7.5 1 .4.2.8.3 1.4.3.7 0 1.2-.1 1.5-.4.4-.2.6-.6.8-1v-1.9c-.6.7-1.3 1.1-2.2 1.1-1.2 0-2-.4-2.7-1.2-.6-.9-1-1.8-1-3 0-.8.2-1.5.5-2.2.3-.7.7-1.2 1.3-1.5.5-.4 1.1-.6 1.9-.6 1 0 1.8.4 2.4 1.2v-1h1.3v7.2c0 1.3-.1 2.2-.4 2.7-.3.6-.7 1-1.3 1.3-.5.3-1.2.5-2 .5a4 4 0 0 1-2.5-.7c-.6-.4-.9-1.1-.8-2Zm1.1-5c0 1 .2 1.9.7 2.4.4.5 1 .7 1.6.7a2 2 0 0 0 1.6-.7c.5-.5.7-1.3.7-2.3 0-1-.2-1.8-.7-2.3a2 2 0 0 0-3.2 0c-.5.5-.7 1.2-.7 2.2Zm15.5 3 .3 1.3-1.1.1c-.5 0-1 0-1.2-.2-.3-.2-.5-.4-.6-.7a5 5 0 0 1-.2-1.6v-4.8h-1v-1.1h1v-2l1.4-.9v2.9h1.4v1.1h-1.4v4.8l.1.8.2.3.5.1h.6Zm1.4 1.3v-11.5h1.4v4.2c.7-.8 1.5-1.2 2.5-1.2.6 0 1.2.1 1.6.4.5.2.8.6 1 1 .2.4.3 1 .3 1.8v5.3h-1.4v-5.3c0-.7-.2-1.2-.5-1.5-.3-.3-.7-.5-1.3-.5-.4 0-.8.1-1.1.4-.4.2-.7.5-.8.8a4 4 0 0 0-.3 1.6v4.5h-1.4Zm14.6-2.7 1.5.2c-.3.9-.7 1.5-1.3 2-.6.5-1.4.7-2.4.7-1.2 0-2.2-.4-2.9-1.1-.7-.8-1-1.8-1-3.2 0-1.4.3-2.5 1-3.2.8-.8 1.7-1.2 2.8-1.2 1.2 0 2 .4 2.8 1.1.7.8 1 1.9 1 3.2v.4h-6.2c0 1 .3 1.6.8 2.1s1 .7 1.7.7c.5 0 1-.1 1.3-.4.4-.2.7-.7 1-1.3Zm-4.6-2.2h4.6c0-.7-.2-1.3-.5-1.6-.4-.6-1-.8-1.7-.8s-1.2.2-1.7.6c-.4.5-.7 1-.7 1.8Zm13.6 4.9h-1.3v-11.5h1.4v4.1c.6-.7 1.3-1 2.3-1 .5 0 1 0 1.4.2.5.2.8.5 1.1.9.3.4.6.8.7 1.3.2.6.3 1.1.3 1.7 0 1.4-.4 2.5-1 3.3-.8.8-1.6 1.2-2.6 1.2s-1.8-.4-2.3-1.2v1Zm0-4.2c0 1 .1 1.7.4 2.1.4.8 1 1.1 1.8 1.1a2 2 0 0 0 1.6-.8c.4-.5.6-1.3.6-2.4 0-1-.2-1.8-.6-2.4a2 2 0 0 0-1.6-.7 2 2 0 0 0-1.6.8c-.4.5-.6 1.3-.6 2.3Zm13.3 1.5 1.4.2c-.2.9-.6 1.5-1.2 2-.7.5-1.5.7-2.4.7-1.2 0-2.2-.4-3-1.1-.6-.8-1-1.8-1-3.2 0-1.4.4-2.5 1.1-3.2.7-.8 1.7-1.2 2.8-1.2 1.1 0 2 .4 2.7 1.1.7.8 1 1.9 1 3.2v.4h-6.1c0 1 .3 1.6.8 2.1.4.5 1 .7 1.7.7.5 0 1-.1 1.3-.4.4-.2.7-.7.9-1.3Zm-4.6-2.2h4.6c0-.7-.2-1.3-.5-1.6-.5-.6-1-.8-1.8-.8-.6 0-1.2.2-1.6.6-.4.5-.7 1-.7 1.8Zm7.6 5.6 1.3.2c0 .4.2.7.5 1 .3.2.8.3 1.4.3.7 0 1.2-.1 1.5-.4.4-.2.6-.6.8-1v-1.9c-.6.7-1.3 1.1-2.2 1.1-1.2 0-2-.4-2.7-1.2-.6-.9-1-1.8-1-3 0-.8.2-1.5.5-2.2.3-.7.7-1.2 1.2-1.5.6-.4 1.2-.6 2-.6 1 0 1.7.4 2.4 1.2v-1h1.3v7.2c0 1.3-.2 2.2-.4 2.7-.3.6-.7 1-1.3 1.3-.5.3-1.2.5-2 .5a4 4 0 0 1-2.5-.7c-.6-.4-.9-1.1-.8-2Zm1.1-5c0 1 .2 1.9.7 2.4.4.5 1 .7 1.6.7a2 2 0 0 0 1.6-.7c.5-.5.7-1.3.7-2.3 0-1-.3-1.8-.7-2.3a2 2 0 0 0-3.2 0c-.5.5-.7 1.2-.7 2.2Zm8-5.5v-1.7h1.4v1.7h-1.4Zm0 9.8v-8.3h1.4v8.3h-1.4Zm3.6 0v-8.3h1.2v1.2a3 3 0 0 1 2.7-1.4c.5 0 1 .1 1.4.3.4.2.7.4.9.7.2.3.4.6.4 1l.1 1.4v5.1h-1.4v-5c0-.6 0-1-.2-1.3 0-.3-.3-.5-.5-.7-.3-.2-.6-.3-1-.3-.6 0-1.1.2-1.6.6-.4.4-.6 1.1-.6 2.2v4.5h-1.4Zm8.9 0v-8.3h1.2v1.2a3 3 0 0 1 2.7-1.4c.5 0 1 .1 1.4.3l1 .7c.1.3.3.6.3 1l.1 1.4v5.1h-1.4v-5l-.1-1.3-.6-.7c-.3-.2-.6-.3-1-.3-.6 0-1.1.2-1.6.6-.4.4-.6 1.1-.6 2.2v4.5h-1.4Zm8.9-9.8v-1.7h1.4v1.7h-1.4Zm0 9.8v-8.3h1.4v8.3h-1.4Zm3.6 0v-8.3h1.2v1.2a3 3 0 0 1 2.7-1.4c.5 0 1 .1 1.3.3.5.2.8.4 1 .7l.4 1v6.5h-1.3v-5c0-.6 0-1-.2-1.3 0-.3-.3-.5-.6-.7-.2-.2-.6-.3-1-.3-.5 0-1 .2-1.5.6-.4.4-.6 1.1-.6 2.2v4.5h-1.4Zm8.6.7 1.4.2c0 .4.2.7.4 1 .4.2.9.3 1.5.3s1.1-.1 1.5-.4c.3-.2.6-.6.7-1l.1-1.9c-.6.7-1.4 1.1-2.3 1.1-1.1 0-2-.4-2.6-1.2-.7-.9-1-1.8-1-3 0-.8.2-1.5.4-2.2.3-.7.7-1.2 1.3-1.5.5-.4 1.2-.6 2-.6.9 0 1.7.4 2.3 1.2v-1h1.3v7.2c0 1.3-.1 2.2-.4 2.7-.2.6-.6 1-1.2 1.3-.6.3-1.3.5-2.1.5a4 4 0 0 1-2.4-.7c-.6-.4-1-1.1-.9-2Zm1.2-5c0 1 .2 1.9.6 2.4.4.5 1 .7 1.6.7a2 2 0 0 0 1.7-.7c.4-.5.6-1.3.6-2.3 0-1-.2-1.8-.7-2.3a2 2 0 0 0-3.2 0c-.4.5-.6 1.2-.6 2.2Zm11.9.2c0-1.6.4-2.7 1.3-3.5.7-.6 1.6-.9 2.6-.9 1.1 0 2 .4 2.8 1.1.7.8 1 1.8 1 3.1 0 1.1 0 2-.4 2.6-.3.6-.8 1-1.4 1.4a4 4 0 0 1-2 .5c-1.2 0-2.1-.4-2.8-1.1-.7-.8-1.1-1.8-1.1-3.2Zm1.4 0c0 1 .3 1.8.7 2.3.5.6 1 .8 1.8.8.7 0 1.3-.2 1.7-.8.5-.5.7-1.3.7-2.4 0-1-.2-1.8-.7-2.3-.4-.6-1-.8-1.7-.8s-1.3.2-1.8.8c-.4.5-.7 1.3-.7 2.4Zm8.4 4.1v-7.2h-1.3v-1.1h1.3v-.9l.1-1.2c.1-.4.4-.7.7-1l1.5-.2h1.3l-.2 1.3h-.9c-.4 0-.7 0-.9.2-.2.2-.2.5-.2 1v.8h1.6v1.1h-1.6v7.2h-1.4Zm14-1-1.6 1-1.5.2c-1 0-1.6-.2-2.1-.7-.5-.4-.7-1-.7-1.7a2.3 2.3 0 0 1 1-2l1-.4 1.2-.2c1.2-.1 2-.3 2.5-.5v-.3c0-.6-.1-1-.4-1.2-.3-.4-.9-.5-1.6-.5-.6 0-1.1.1-1.4.3-.3.3-.6.7-.7 1.3l-1.4-.2c.1-.6.3-1 .6-1.5.3-.3.7-.6 1.3-.8.5-.2 1.1-.3 1.8-.3a5 5 0 0 1 1.8.3c.4.1.7.3 1 .6l.4 1v3.2l.1 2.4.4 1H229a3 3 0 0 1-.3-1Zm-.2-3.2-2.3.6-1.2.2a1.2 1.2 0 0 0-.3 2.1c.3.3.7.4 1.2.4.6 0 1-.1 1.5-.4.4-.2.7-.5.9-1 .2-.3.2-.7.2-1.3v-.6Zm3.6 4.2v-8.3h1.3v1.2a3 3 0 0 1 2.6-1.4c.5 0 1 .1 1.4.3.4.2.8.4 1 .7l.4 1v6.5h-1.3v-5c0-.6 0-1-.2-1.3-.1-.3-.3-.5-.6-.7-.3-.2-.6-.3-1-.3-.6 0-1 .2-1.5.6-.4.4-.7 1.1-.7 2.2v4.5h-1.4Zm18.8-1-1.5 1-1.5.2c-1 0-1.7-.2-2.1-.7-.5-.4-.8-1-.8-1.7a2.3 2.3 0 0 1 1-2l1-.4 1.3-.2c1.1-.1 2-.3 2.5-.5v-.3c0-.6-.1-1-.4-1.2-.4-.4-.9-.5-1.6-.5-.7 0-1.2.1-1.5.3-.3.3-.5.7-.7 1.3l-1.3-.2c0-.6.3-1 .6-1.5.3-.3.7-.6 1.2-.8.6-.2 1.2-.3 1.9-.3a5 5 0 0 1 1.7.3c.5.1.8.3 1 .6.2.2.4.6.4 1l.1 1.2v2l.1 2.4c0 .4.2.7.4 1h-1.5a3 3 0 0 1-.3-1Zm-.1-3.2-2.3.6-1.2.2a1.2 1.2 0 0 0-.8 1.2c0 .3.2.7.4 1 .3.2.7.3 1.3.3.5 0 1-.1 1.4-.4.5-.2.8-.5 1-1l.2-1.3v-.6Zm9 4.2v-1c-.5.8-1.3 1.2-2.3 1.2a3.6 3.6 0 0 1-3.1-2c-.4-.7-.5-1.5-.5-2.3 0-.9.1-1.6.4-2.3a3.3 3.3 0 0 1 4.4-1.8c.4.2.7.5 1 .9v-4.2h1.4V222h-1.3Zm-4.5-4.1c0 1 .3 1.8.7 2.3.5.6 1 .8 1.6.8a2 2 0 0 0 1.6-.7c.4-.5.6-1.3.6-2.3 0-1.2-.2-2-.6-2.5a2 2 0 0 0-3.2 0c-.5.5-.7 1.3-.7 2.4Zm13.4 4.1v-1c-.5.8-1.3 1.2-2.3 1.2a3.6 3.6 0 0 1-3.1-2 5.9 5.9 0 0 1 0-4.5 3.3 3.3 0 0 1 4.3-1.9c.4.2.8.5 1 .9v-4.2h1.4V222h-1.3Zm-4.5-4.1c0 1 .3 1.8.7 2.3.5.6 1 .8 1.6.8a2 2 0 0 0 1.6-.7c.4-.5.6-1.3.6-2.3 0-1.2-.2-2-.6-2.5a2 2 0 0 0-3.2 0c-.4.5-.7 1.3-.7 2.4Zm8 4.1v-8.3h1.3v1.3c.3-.6.6-1 .9-1.2.2-.2.5-.3.9-.3s1 .2 1.4.5l-.5 1.3a2 2 0 0 0-1-.3c-.3 0-.6 0-.8.3-.3.1-.5.4-.6.7l-.2 1.7v4.3h-1.4Zm11-2.7 1.5.2c-.3.9-.7 1.5-1.3 2-.6.5-1.4.7-2.4.7-1.2 0-2.2-.4-2.9-1.1-.7-.8-1-1.8-1-3.2 0-1.4.3-2.5 1-3.2.8-.8 1.7-1.2 2.8-1.2 1.2 0 2 .4 2.8 1.1.7.8 1 1.9 1 3.2v.4h-6.2c0 1 .3 1.6.8 2.1s1 .7 1.7.7c.5 0 1-.1 1.4-.4.3-.2.6-.7.8-1.3Zm-4.6-2.2h4.6c0-.7-.2-1.3-.5-1.6-.4-.6-1-.8-1.7-.8s-1.2.2-1.7.6c-.4.5-.6 1-.7 1.8Zm7.3 2.4 1.4-.2c0 .6.3 1 .6 1.3.4.3.9.4 1.5.4.7 0 1.1-.1 1.5-.4.3-.2.4-.5.4-.9 0-.3-.1-.6-.4-.7-.2-.2-.7-.3-1.4-.5l-2.2-.7c-.4-.2-.7-.4-.9-.8-.2-.3-.3-.7-.3-1 0-.5.1-.8.3-1.1.1-.3.4-.6.7-.8.2-.2.5-.3.9-.4l1.2-.2c.6 0 1.2.1 1.7.3.5.2.8.4 1 .8.3.3.5.7.6 1.2l-1.4.2c0-.4-.3-.7-.6-1a2 2 0 0 0-1.2-.3c-.7 0-1.1 0-1.4.3-.3.2-.4.5-.4.7 0 .2 0 .4.2.5 0 .2.2.3.5.4l1.2.4 2.1.6c.4.2.7.4 1 .8.2.3.3.7.3 1.2 0 .4-.2.9-.4 1.3-.3.4-.7.7-1.2 1-.5.2-1.1.3-1.8.3a4 4 0 0 1-2.4-.7c-.6-.4-1-1.1-1.1-2Zm8 0 1.4-.2c0 .6.3 1 .6 1.3.4.3.9.4 1.5.4.7 0 1.1-.1 1.5-.4.3-.2.4-.5.4-.9 0-.3-.1-.6-.4-.7-.2-.2-.7-.3-1.4-.5l-2.2-.7c-.4-.2-.7-.4-.9-.8-.2-.3-.3-.7-.3-1 0-.5.1-.8.3-1.1.1-.3.4-.6.7-.8.2-.2.5-.3.9-.4l1.2-.2c.6 0 1.2.1 1.7.3.5.2.8.4 1 .8.3.3.5.7.6 1.2l-1.4.2c0-.4-.3-.7-.6-1a2 2 0 0 0-1.2-.3c-.7 0-1.1 0-1.4.3-.3.2-.4.5-.4.7 0 .2 0 .4.2.5 0 .2.2.3.5.4l1.2.4 2.1.6c.4.2.7.4 1 .8.2.3.3.7.3 1.2 0 .4-.2.9-.4 1.3-.3.4-.7.7-1.2 1-.5.2-1.1.3-1.8.3a4 4 0 0 1-2.4-.7c-.6-.4-1-1.1-1.1-2Zm15.7 5.9a14 14 0 0 1-2-3.5 10.7 10.7 0 0 1-.2-7.6 15 15 0 0 1 2.2-4h1l-1.3 2.4a12.6 12.6 0 0 0-1 5.2c0 2.5.7 5 2.3 7.5h-1Zm3-3.4v-7.2h-1.3v-1.1h1.3v-.9l.1-1.2c.1-.4.4-.7.7-1l1.5-.2h1.3l-.2 1.3h-.9c-.4 0-.7 0-.9.2l-.2 1v.8h1.6v1.1H314v7.2h-1.4Zm3.6-4.1c0-1.6.4-2.7 1.2-3.5.8-.6 1.6-.9 2.6-.9 1.2 0 2.1.4 2.8 1.1.8.8 1.1 1.8 1.1 3.1 0 1.1-.1 2-.5 2.6-.3.6-.7 1-1.4 1.4a4 4 0 0 1-2 .5c-1.1 0-2-.4-2.8-1.1-.7-.8-1-1.8-1-3.2Zm1.4 0c0 1 .2 1.8.7 2.3.5.6 1 .8 1.8.8.6 0 1.2-.2 1.7-.8.5-.5.7-1.3.7-2.4 0-1-.2-1.8-.7-2.3-.5-.6-1-.8-1.8-.8-.7 0-1.2.2-1.7.8-.5.5-.7 1.3-.7 2.4Zm8 4.1v-8.3h1.2v1.3c.4-.6.7-1 1-1.2.2-.2.5-.3.8-.3.5 0 1 .2 1.5.5l-.5 1.3a2 2 0 0 0-1-.3c-.3 0-.6 0-.9.3-.2.1-.4.4-.5.7l-.2 1.7v4.3h-1.4Zm9.8-9.8v-1.7h1.4v1.7h-1.4Zm0 9.8v-8.3h1.4v8.3h-1.4Zm3.5 0v-8.3h1.3v1.2a3 3 0 0 1 2.6-1.4c.5 0 1 .1 1.4.3.4.2.8.4 1 .7l.4 1v6.5h-1.3v-5c0-.6 0-1-.2-1.3-.1-.3-.3-.5-.6-.7-.3-.2-.6-.3-1-.3-.6 0-1 .2-1.5.6-.4.4-.7 1.1-.7 2.2v4.5H339Zm8.4-2.5 1.4-.2c0 .6.3 1 .6 1.3.4.3.9.4 1.5.4.7 0 1.1-.1 1.5-.4.3-.2.4-.5.4-.9 0-.3-.1-.6-.4-.7-.2-.2-.7-.3-1.4-.5l-2.2-.7c-.4-.2-.7-.4-.9-.8-.2-.3-.3-.7-.3-1 0-.5 0-.8.3-1.1.1-.3.4-.6.7-.8l.8-.4 1.3-.2c.6 0 1.2.1 1.7.3.5.2.8.4 1 .8.3.3.5.7.6 1.2l-1.4.2c0-.4-.3-.7-.6-1a2 2 0 0 0-1.2-.3c-.7 0-1.1 0-1.4.3-.3.2-.4.5-.4.7l.1.5.6.4 1.2.4 2.1.6c.4.2.7.4 1 .8.2.3.3.7.3 1.2 0 .4-.2.9-.4 1.3-.3.4-.7.7-1.2 1-.5.2-1.1.3-1.8.3a4 4 0 0 1-2.4-.7c-.6-.4-1-1.1-1.1-2Zm11.6 1.2.2 1.3-1 .1c-.6 0-1 0-1.2-.2-.3-.2-.5-.4-.6-.7a5 5 0 0 1-.2-1.6v-4.8h-1v-1.1h1v-2l1.4-.9v2.9h1.4v1.1h-1.4v5.6l.3.3.5.1h.6Zm6.8.3-1.5 1-1.5.2c-1 0-1.7-.2-2.2-.7-.4-.4-.7-1-.7-1.7a2.3 2.3 0 0 1 1-2l1-.4 1.3-.2c1.1-.1 2-.3 2.5-.5v-.3c0-.6-.1-1-.4-1.2-.4-.4-.9-.5-1.6-.5-.7 0-1.2.1-1.5.3-.3.3-.5.7-.7 1.3l-1.3-.2c0-.6.3-1 .6-1.5.3-.3.7-.6 1.2-.8.6-.2 1.2-.3 1.9-.3a5 5 0 0 1 1.7.3c.5.1.8.3 1 .6.2.2.4.6.4 1l.1 1.2v2l.1 2.4c0 .4.2.7.4 1H366a3 3 0 0 1-.3-1Zm-.1-3.2-2.3.6-1.2.2a1.2 1.2 0 0 0-.8 1.2c0 .3.2.7.4 1 .3.2.7.3 1.3.3.5 0 1-.1 1.4-.4.5-.2.8-.5 1-1l.2-1.3v-.6Zm3.6 4.2v-8.3h1.3v1.2a3 3 0 0 1 2.6-1.4c.5 0 1 .1 1.4.3l1 .7.4 1v6.5h-1.4v-5l-.1-1.3c-.1-.3-.3-.5-.6-.7-.3-.2-.6-.3-1-.3-.6 0-1.1.2-1.5.6-.5.4-.7 1.1-.7 2.2v4.5h-1.4Zm14.3-3 1.4.1c-.1 1-.5 1.7-1.2 2.3-.6.5-1.3.8-2.3.8-1 0-2-.4-2.7-1.1-.7-.8-1-1.8-1-3.2 0-1 .1-1.7.4-2.4a3 3 0 0 1 1.4-1.5 4 4 0 0 1 2-.5c.9 0 1.6.2 2.2.7.5.5 1 1.1 1 2l-1.3.2c-.1-.6-.4-1-.7-1.3-.3-.3-.7-.4-1.2-.4-.7 0-1.3.2-1.7.7-.5.5-.7 1.3-.7 2.4 0 1.2.2 2 .7 2.5.4.5 1 .7 1.6.7.6 0 1-.1 1.4-.5.4-.3.6-.8.7-1.5Zm8.3.3 1.4.2c-.2.9-.6 1.5-1.2 2-.7.5-1.4.7-2.4.7-1.2 0-2.2-.4-2.9-1.1-.7-.8-1-1.8-1-3.2 0-1.4.3-2.5 1-3.2.7-.8 1.7-1.2 2.8-1.2 1.1 0 2 .4 2.7 1.1.7.8 1 1.9 1 3.2v.4h-6.1c0 1 .3 1.6.8 2.1.4.5 1 .7 1.7.7.5 0 1-.1 1.3-.4.4-.2.7-.7.9-1.3Zm-4.6-2.2h4.6c0-.7-.2-1.3-.5-1.6-.5-.6-1-.8-1.8-.8-.6 0-1.2.2-1.6.6-.4.5-.7 1-.7 1.8Zm8.2 4.9v-1.6h1.6v1.6c0 .6-.1 1-.3 1.4a2 2 0 0 1-1 .9l-.4-.6.6-.6c.2-.3.3-.6.3-1.1h-.8Zm10.8-11.5v4.3a3.2 3.2 0 0 1 3.9-1l1 .7c.1.3.3.6.3 1l.2 1.6v4.9h-2.2v-4.4c0-.9 0-1.4-.2-1.6a1 1 0 0 0-.4-.6l-.8-.2c-.4 0-.7 0-1 .3-.3.1-.5.4-.6.8l-.2 1.5v4.2h-2.2v-11.5h2.2Zm11.4 3.2v1.8h-1.5v4.5l.2.3h.4l.9-.1.2 1.7c-.5.2-1.1.3-1.8.3-.4 0-.7 0-1-.2-.3-.1-.6-.3-.7-.5-.2-.2-.3-.5-.3-.9l-.1-1.5v-3.6h-1v-1.8h1v-1.6l2.2-1.3v2.9h1.5Zm5.3 0v1.8h-1.5v4.5l.3.3h.3l1-.1.1 1.7c-.5.2-1 .3-1.7.3-.4 0-.8 0-1.1-.2-.3-.1-.6-.3-.7-.5-.1-.2-.3-.5-.3-.9v-5.1h-1v-1.8h1v-1.6l2.1-1.3v2.9h1.5Zm1.5 0h2v1.2a3 3 0 0 1 2.6-1.4c1 0 1.8.4 2.5 1.1.6.8 1 1.9 1 3.2 0 1.4-.4 2.5-1 3.2a3.2 3.2 0 0 1-3.7 1l-1.2-1v4.2h-2.2v-11.5Zm2.2 4c0 1 .1 1.6.5 2 .4.5.8.7 1.4.7.5 0 .9-.2 1.2-.6.4-.4.5-1 .5-2 0-.8-.1-1.5-.5-2-.3-.3-.8-.6-1.3-.6s-1 .3-1.3.7c-.4.4-.5 1-.5 1.8Zm8-1.8v-2.2h2.2v2.2h-2.1Zm0 6.1v-2.2h2.2v2.2h-2.1Zm3.8.2 2.8-11.8h1.7l-2.9 11.8h-1.6Zm4.4 0 2.9-11.8h1.6l-2.8 11.8h-1.7Zm9.5-4.3c0-1.6.4-2.7 1.3-3.5.7-.6 1.6-.9 2.6-.9 1.1 0 2 .4 2.8 1.1.7.8 1 1.8 1 3.1 0 1.1 0 2-.4 2.6-.3.6-.8 1-1.4 1.4a4 4 0 0 1-2 .5c-1.2 0-2.1-.4-2.8-1.1-.7-.8-1.1-1.8-1.1-3.2Zm1.4 0c0 1 .3 1.8.7 2.3.5.6 1 .8 1.8.8.7 0 1.3-.2 1.7-.8.5-.5.7-1.3.7-2.4 0-1-.2-1.8-.7-2.3-.4-.6-1-.8-1.7-.8s-1.3.2-1.8.8c-.4.5-.7 1.3-.7 2.4Zm8 4.1v-8.3h1.3v1.3c.3-.6.6-1 .9-1.2.2-.2.5-.3.9-.3.5 0 1 .2 1.4.5l-.5 1.3a2 2 0 0 0-1-.3c-.3 0-.6 0-.8.3-.3.1-.4.4-.5.7-.2.5-.3 1-.3 1.7v4.3h-1.4Zm12-11.5v4.3a3.2 3.2 0 0 1 4-1l1 .7c.1.3.3.6.3 1l.2 1.6v4.9H477v-4.4c0-.9 0-1.4-.2-1.6a1 1 0 0 0-.4-.6l-.8-.2c-.4 0-.7 0-1 .3-.3.1-.5.4-.6.8l-.2 1.5v4.2h-2.2v-11.5h2.2Zm11.5 3.2v1.8h-1.5v4.5l.2.3h.4l.9-.1.2 1.7c-.5.2-1.1.3-1.8.3-.4 0-.7 0-1-.2-.4-.1-.6-.3-.7-.5-.2-.2-.3-.5-.3-.9l-.1-1.5v-3.6h-1v-1.8h1v-1.6l2.2-1.3v2.9h1.5Zm5.3 0v1.8h-1.5v4.5l.3.3h.3l1-.1.1 1.7c-.5.2-1 .3-1.7.3-.4 0-.8 0-1.1-.2-.3-.1-.6-.3-.7-.5-.2-.2-.3-.5-.3-.9v-5.1h-1v-1.8h1v-1.6l2.1-1.3v2.9h1.5Zm1.5 0h2v1.2a3 3 0 0 1 2.6-1.4c1 0 1.8.4 2.5 1.1.6.8 1 1.9 1 3.2 0 1.4-.4 2.5-1 3.2a3.2 3.2 0 0 1-3.8 1l-1.1-1v4.2H492v-11.5Zm2.2 4c0 1 .1 1.6.5 2 .4.5.8.7 1.4.7.5 0 .9-.2 1.2-.6.4-.4.5-1 .5-2 0-.8-.1-1.5-.5-2-.3-.3-.8-.6-1.3-.6s-1 .3-1.3.7c-.4.4-.5 1-.5 1.8Zm6.8 2 2.3-.4c0 .4.2.7.5 1 .3.2.7.3 1.2.3.6 0 1-.1 1.3-.3l.3-.6c0-.2 0-.3-.2-.4l-.7-.3c-1.8-.4-2.9-.7-3.4-1-.6-.5-1-1.1-1-2 0-.7.3-1.3 1-1.8.5-.4 1.4-.7 2.5-.7 1.2 0 2 .2 2.6.6.5.3 1 .9 1.1 1.6l-2 .4c-.1-.3-.3-.6-.6-.7-.2-.2-.6-.3-1-.3-.6 0-1 0-1.3.2l-.2.5c0 .1 0 .3.2.4l2 .6c1.2.3 2 .6 2.5 1s.7 1 .7 1.6c0 .8-.3 1.4-1 2-.6.5-1.5.8-2.8.8-1.1 0-2-.2-2.7-.7-.6-.5-1-1-1.3-1.9Zm10.2-3.8v-2.2h2.1v2.2h-2.1Zm0 6.1v-2.2h2.1v2.2h-2.1Zm3.7.2 2.8-11.8h1.7l-2.9 11.8H515Zm4.4 0 2.9-11.8h1.6l-2.8 11.8h-1.7Zm6.5 3.2h-1a14 14 0 0 0 2.3-7.5 12.8 12.8 0 0 0-1-5.2l-1.3-2.3h1a15 15 0 0 1 2.2 3.9 10.6 10.6 0 0 1-.2 7.6c-.6 1.3-1.2 2.5-2 3.5Z"/></g><defs><clipPath id="a"><path fill="#fff" d="M0 0h548v252H0z"/></clipPath></defs></svg>