<svg xmlns="http://www.w3.org/2000/svg" width="545" height="184" fill="none"><g clip-path="url(#a)"><path fill="#FFF5E1" d="M260 0H29a29 29 0 1 0 0 58h231a29 29 0 0 0 0-58Z"/><path stroke="#4D4D4D" stroke-width="2" d="M42 46v66"/><path stroke="#67B279" stroke-width="2" d="M17.2 46v138"/><path fill="#67B279" fill-rule="evenodd" d="M17 46h20v4H17v-4Z" clip-rule="evenodd"/><path fill="#4D4D4D" fill-rule="evenodd" d="M41 46h220v4H41v-4Z" clip-rule="evenodd"/><path fill="#67B279" d="M25.2 35V12.6H27v22.6h-1.8Z"/><path fill="#4D4D4D" d="M44.5 30V12.8h2V19c1-1.2 2.3-1.7 3.8-1.7 1 0 1.7.2 2.4.5.7.4 1.2.9 1.5 1.5.3.7.4 1.6.4 2.8V30h-2v-7.9c0-1-.3-1.8-.8-2.3-.4-.5-1-.7-2-.7-.5 0-1.1.2-1.7.5-.5.3-1 .7-1.2 1.3a6 6 0 0 0-.3 2.3V30h-2.1Zm18-1.9.3 1.9-1.6.2c-.8 0-1.4-.2-1.8-.4a2 2 0 0 1-1-1l-.2-2.4v-7.2h-1.5v-1.6h1.5v-3.1l2.1-1.3v4.4h2.1v1.6h-2v8.4l.4.4.7.2h1Zm6.6 0 .3 1.9-1.6.2c-.7 0-1.3-.2-1.7-.4a2 2 0 0 1-1-1l-.2-2.4v-7.2h-1.5v-1.6h1.5v-3.1l2.1-1.3v4.4h2.1v1.6h-2v8.4c0 .2.2.3.4.4l.7.2h1Zm2.1 6.7V17.6h2v1.6c.4-.7.9-1.1 1.5-1.4.5-.4 1.2-.5 2-.5 1 0 2 .2 2.8.8a5 5 0 0 1 1.9 2.3c.4 1 .6 2.1.6 3.3 0 1.3-.2 2.4-.7 3.4a5.2 5.2 0 0 1-4.7 3.2 4 4 0 0 1-2-.5c-.5-.3-1-.6-1.3-1v6h-2.1Zm2-11c0 1.6.2 2.8.9 3.6a3 3 0 0 0 2.3 1.1 3 3 0 0 0 2.4-1.1c.7-.8 1-2 1-3.7 0-1.6-.3-2.8-1-3.6a3 3 0 0 0-2.3-1.2c-.9 0-1.7.4-2.4 1.3-.6.8-1 2-1 3.6Zm12-3.8v-2.4h2.3V20h-2.4Zm0 10v-2.4h2.3V30h-2.4Zm4.5.3 5-17.8h1.6l-5 17.8h-1.6Zm6.6 0 5-17.8h1.7l-5 17.8h-1.7Zm16.8-4.3 2.2.3c-.3 1.2-1 2.2-2 3-.8.6-2 1-3.5 1-1.8 0-3.2-.6-4.3-1.7a6.6 6.6 0 0 1-1.6-4.7c0-2.1.5-3.7 1.6-4.9 1-1.1 2.5-1.7 4.2-1.7 1.7 0 3 .5 4 1.7 1.1 1.1 1.7 2.7 1.7 4.8v.5H106c0 1.4.4 2.4 1.1 3.2.7.7 1.6 1 2.6 1 .8 0 1.5-.2 2-.6.6-.4 1-1 1.3-2Zm-7-3.4h7c0-1-.3-1.9-.8-2.4a3.2 3.2 0 0 0-2.6-1.2c-1 0-1.8.3-2.4 1-.7.6-1 1.5-1.1 2.6Zm10.5 7.4 4.5-6.5-4.2-6h2.6l2 3 .8 1.4 1-1.4 2-3h2.6l-4.3 6 4.6 6.5h-2.6l-2.5-3.9-.7-1L119 30h-2.5Zm21.5-1.5c-.8.6-1.6 1.1-2.3 1.4-.7.2-1.5.4-2.3.4-1.4 0-2.4-.4-3.2-1a3.3 3.3 0 0 1-1-2.6 3.4 3.4 0 0 1 1.4-2.9l1.6-.7 1.8-.3c1.7-.2 3-.4 3.8-.7v-.5c0-1-.2-1.5-.6-1.9-.5-.4-1.3-.7-2.4-.7-1 0-1.7.2-2.2.5-.5.4-.8 1-1 1.9l-2-.3a5 5 0 0 1 .8-2.1c.5-.6 1-1 1.9-1.3.8-.3 1.8-.4 2.8-.4 1 0 2 .1 2.6.3.7.3 1.2.6 1.5 1 .3.4.5.8.6 1.4l.1 2v2.8c0 2 0 3.2.2 3.7 0 .5.2 1 .5 1.5h-2.2c-.2-.4-.4-1-.4-1.5Zm-.2-4.7c-.8.3-2 .5-3.4.8a8 8 0 0 0-1.9.4 1.8 1.8 0 0 0-1.1 1.7c0 .5.2 1 .6 1.4.5.3 1 .5 1.9.5.8 0 1.5-.1 2.2-.5.6-.4 1-.8 1.4-1.5a5 5 0 0 0 .3-2v-.8Zm5.4 6.2V17.6h2v1.7a4.4 4.4 0 0 1 3.7-2c.9 0 1.7.2 2.2.5.6.4 1 1 1.3 1.7 1-1.5 2.3-2.2 3.8-2.2 1.3 0 2.2.3 2.9 1 .6.7 1 1.7 1 3.2V30H158v-7.8c0-.9 0-1.5-.2-1.9l-.8-.9c-.3-.2-.7-.3-1.2-.3a3 3 0 0 0-2.2.9c-.6.6-.9 1.5-.9 2.8V30h-2v-8c0-1-.3-1.7-.6-2.2-.3-.5-1-.7-1.7-.7-.6 0-1.1.2-1.6.5s-1 .7-1.1 1.3c-.3.6-.4 1.5-.4 2.6V30h-2Zm20 4.8V17.6h2v1.6c.4-.7.9-1.1 1.5-1.4.5-.4 1.2-.5 2-.5 1.1 0 2 .2 2.9.8a5 5 0 0 1 1.8 2.3c.4 1 .6 2.1.6 3.3 0 1.3-.2 2.4-.7 3.4a5.2 5.2 0 0 1-4.7 3.2 4 4 0 0 1-2-.5c-.5-.3-1-.6-1.3-1v6h-2Zm2-11c0 1.6.2 2.8.9 3.6a3 3 0 0 0 2.3 1.1 3 3 0 0 0 2.5-1.1c.6-.8 1-2 1-3.7 0-1.6-.4-2.8-1-3.6a3 3 0 0 0-2.4-1.2c-.9 0-1.7.4-2.3 1.3-.7.8-1 2-1 3.6Zm11.3 6.2V12.8h2.1V30h-2Zm14-4 2.1.3c-.3 1.2-1 2.2-1.9 3-1 .6-2.1 1-3.6 1-1.8 0-3.2-.6-4.3-1.7a6.6 6.6 0 0 1-1.6-4.7c0-2.1.5-3.7 1.6-4.9 1.1-1.1 2.5-1.7 4.2-1.7 1.7 0 3 .5 4.1 1.7 1 1.1 1.6 2.7 1.6 4.8v.5h-9.3c0 1.4.5 2.4 1.2 3.2.6.7 1.5 1 2.6 1 .7 0 1.4-.2 2-.6.5-.4 1-1 1.2-2Zm-7-3.4h7c-.1-1-.4-1.9-.8-2.4A3.2 3.2 0 0 0 187 19c-1 0-1.7.3-2.4 1-.7.6-1 1.5-1 2.6ZM196 30v-2.4h2.4V30H196Zm5.3-6.2c0-2.3.6-4 1.9-5.1 1-1 2.4-1.4 3.9-1.4 1.7 0 3.1.5 4.2 1.7 1 1 1.6 2.6 1.6 4.6 0 1.6-.2 2.9-.7 3.8a5 5 0 0 1-2.1 2.1 6 6 0 0 1-3 .8c-1.7 0-3.1-.6-4.2-1.7s-1.6-2.7-1.6-4.8Zm2.1 0c0 1.6.4 2.8 1 3.6.8.8 1.6 1.1 2.7 1.1 1 0 2-.4 2.6-1.1.7-.8 1-2 1-3.7 0-1.5-.3-2.7-1-3.5a3.3 3.3 0 0 0-2.6-1.2c-1 0-2 .4-2.6 1.2-.7.8-1 2-1 3.6Zm12 6.2V17.6h1.9v1.8l1.3-1.7c.4-.3.9-.4 1.4-.4.7 0 1.4.2 2.2.7l-.8 2a3 3 0 0 0-1.5-.5 2 2 0 0 0-1.3.4c-.3.2-.6.6-.8 1.1-.2.8-.3 1.6-.3 2.5V30h-2.1Zm7.6 1 2 .3c.2.7.4 1.1.8 1.4.5.4 1.2.6 2.1.6 1 0 1.8-.2 2.3-.6.5-.4.9-1 1-1.6.2-.5.2-1.4.2-2.7-.9 1-2 1.6-3.4 1.6-1.7 0-3-.6-4-1.9a8.2 8.2 0 0 1-.8-7.7c.5-1 1-1.8 1.9-2.3a5 5 0 0 1 2.9-.8c1.5 0 2.7.6 3.6 1.8v-1.5h2v10.7c0 2-.2 3.3-.6 4.1-.4.8-1 1.5-2 2-.8.4-1.8.7-3 .7a6 6 0 0 1-3.7-1c-.9-.7-1.3-1.7-1.3-3Zm1.8-7.4c0 1.6.3 2.8 1 3.5a3 3 0 0 0 2.4 1.2c1 0 1.8-.4 2.4-1.2.7-.7 1-1.9 1-3.5 0-1.5-.3-2.6-1-3.4a3.1 3.1 0 0 0-4.9 0c-.6.7-1 1.9-1 3.4Zm10.4 6.7 5-17.8h1.6l-5 17.8h-1.6ZM34.4 153l4.4-11.5h1.6l4.7 11.5h-1.7l-1.4-3.5h-4.8L36 153h-1.6Zm3.3-4.7h3.9l-1.2-3.2c-.4-1-.7-1.7-.8-2.3l-.7 2.1-1.2 3.4Zm12 7.9v-11.5H51v1c.3-.3.6-.7 1-.9.4-.2.8-.3 1.4-.3a3.4 3.4 0 0 1 3.1 2c.3.8.4 1.5.4 2.3 0 .8-.2 1.6-.5 2.3a3.4 3.4 0 0 1-3.1 2c-.5 0-1 0-1.3-.2-.4-.2-.7-.5-.9-.8v4h-1.4Zm1.3-7.3c0 1 .2 1.9.6 2.4.4.5 1 .7 1.6.7a2 2 0 0 0 1.6-.8c.4-.5.7-1.3.7-2.4 0-1-.3-1.9-.7-2.4a2 2 0 0 0-1.6-.8c-.6 0-1 .3-1.6.9-.4.5-.6 1.3-.6 2.4Zm7 0c0-1.6.5-2.7 1.4-3.5.7-.6 1.5-.9 2.6-.9s2 .4 2.8 1.1c.7.8 1 1.8 1 3.1 0 1.1-.1 2-.4 2.6-.4.6-.8 1-1.4 1.4a4 4 0 0 1-2 .5c-1.2 0-2.1-.4-2.9-1.1-.7-.8-1-1.8-1-3.2Zm1.5 0c0 1 .2 1.8.7 2.3.5.6 1 .8 1.8.8.7 0 1.2-.2 1.7-.8.5-.5.7-1.3.7-2.4 0-1-.2-1.8-.7-2.3-.5-.6-1-.8-1.7-.8s-1.3.2-1.8.8c-.5.5-.7 1.3-.7 2.4Zm8-5.7v-1.7H69v1.7h-1.4Zm0 9.8v-8.3H69v8.3h-1.4Zm3.6 0v-8.3h1.2v1.2a3 3 0 0 1 2.7-1.4c.5 0 1 .1 1.3.3.5.2.8.4 1 .7l.4 1 .1 1.4v5.1h-1.4v-5c0-.6 0-1-.2-1.3 0-.3-.3-.5-.5-.7-.3-.2-.7-.3-1-.3-.6 0-1.1.2-1.6.6-.4.4-.6 1.1-.6 2.2v4.5H71Zm12-1.3.1 1.3-1 .1c-.5 0-1 0-1.2-.2-.3-.2-.5-.4-.6-.7a5 5 0 0 1-.2-1.6v-4.8h-1v-1.1h1v-2l1.4-.9v2.9H83v1.1h-1.4v4.8l.1.8.2.3.5.1h.6Zm7-1.4 1.5.2c-.3.9-.7 1.5-1.3 2-.6.5-1.4.7-2.4.7-1.2 0-2.2-.4-2.9-1.1-.7-.8-1-1.8-1-3.2 0-1.4.3-2.5 1-3.2.8-.8 1.7-1.2 2.8-1.2 1.1 0 2 .4 2.7 1.1.8.8 1.1 1.9 1.1 3.2v.4h-6.2c0 1 .3 1.6.8 2.1.4.5 1 .7 1.7.7.5 0 1-.1 1.3-.4.4-.2.7-.7.9-1.3Zm-4.6-2.2H90c0-.7-.2-1.3-.5-1.6-.5-.6-1-.8-1.8-.8-.6 0-1.1.2-1.6.6-.4.5-.7 1-.7 1.8Zm7.8 4.9v-8.3h1.3v1.3c.3-.6.6-1 .9-1.2.2-.2.5-.3.9-.3.5 0 1 .2 1.4.5l-.5 1.3a2 2 0 0 0-1-.3c-.3 0-.6 0-.8.3-.3.1-.4.4-.5.7-.2.5-.3 1-.3 1.7v4.3h-1.4Zm12.9-1.3.2 1.3-1 .1c-.6 0-1 0-1.3-.2l-.6-.7a5 5 0 0 1-.1-1.6v-4.8h-1v-1.1h1v-2l1.4-.9v2.9h1.4v1.1h-1.4v5.6l.3.3.5.1h.6Zm.8-2.8c0-1.6.5-2.7 1.3-3.5.7-.6 1.6-.9 2.6-.9 1.2 0 2.1.4 2.8 1.1.8.8 1.1 1.8 1.1 3.1 0 1.1-.1 2-.5 2.6-.3.6-.8 1-1.4 1.4a4 4 0 0 1-2 .5c-1.1 0-2-.4-2.8-1.1-.7-.8-1-1.8-1-3.2Zm1.5 0c0 1 .2 1.8.7 2.3.4.6 1 .8 1.7.8s1.3-.2 1.8-.8c.4-.5.7-1.3.7-2.4 0-1-.3-1.8-.7-2.3-.5-.6-1-.8-1.8-.8-.7 0-1.3.2-1.7.8-.5.5-.7 1.3-.7 2.4Zm15.5 2.8.2 1.3-1 .1c-.6 0-1 0-1.3-.2l-.5-.7a5 5 0 0 1-.2-1.6v-4.8h-1v-1.1h1v-2l1.4-.9v2.9h1.4v1.1h-1.4v5.6l.3.3.5.1h.6Zm1.4 1.3v-11.5h1.4v4.2c.6-.8 1.5-1.2 2.5-1.2.6 0 1.1.1 1.6.4.4.2.7.6 1 1l.2 1.8v5.3h-1.4v-5.3c0-.7-.1-1.2-.4-1.5-.3-.3-.8-.5-1.3-.5-.4 0-.8.1-1.2.4-.4.2-.6.5-.8.8a4 4 0 0 0-.2 1.6v4.5h-1.4Zm14.6-2.7 1.4.2c-.2.9-.6 1.5-1.3 2-.6.5-1.4.7-2.3.7-1.2 0-2.2-.4-3-1.1-.6-.8-1-1.8-1-3.2 0-1.4.4-2.5 1-3.2.8-.8 1.7-1.2 2.9-1.2 1.1 0 2 .4 2.7 1.1.7.8 1 1.9 1 3.2v.4h-6.1c0 1 .3 1.6.7 2.1.5.5 1 .7 1.8.7.5 0 1-.1 1.3-.4.4-.2.6-.7.9-1.3Zm-4.7-2.2h4.7c0-.7-.3-1.3-.6-1.6-.4-.6-1-.8-1.7-.8-.6 0-1.2.2-1.6.6-.5.5-.7 1-.8 1.8Zm18 2.2 1.5.2c-.3.9-.7 1.5-1.3 2-.6.5-1.4.7-2.4.7-1.2 0-2.2-.4-2.9-1.1-.7-.8-1-1.8-1-3.2 0-1.4.3-2.5 1-3.2.8-.8 1.7-1.2 2.8-1.2 1.2 0 2 .4 2.8 1.1.7.8 1 1.9 1 3.2v.4h-6.2c0 1 .3 1.6.8 2.1s1 .7 1.7.7c.6 0 1-.1 1.4-.4.3-.2.6-.7.8-1.3Zm-4.6-2.2h4.6c0-.7-.2-1.3-.5-1.6-.4-.6-1-.8-1.7-.8s-1.2.2-1.7.6c-.4.5-.6 1-.7 1.8Zm7 4.9 3-4.3-2.9-4h1.8l1.3 2 .5.9.7-1 1.4-1.9h1.7l-3 4 3.2 4.3h-1.8l-1.7-2.6-.4-.7-2.2 3.3h-1.7Zm14.3-1-1.5 1-1.6.2c-.9 0-1.6-.2-2-.7-.6-.4-.8-1-.8-1.7a2.3 2.3 0 0 1 1-2l1-.4 1.2-.2c1.2-.1 2-.3 2.5-.5v-.3c0-.6 0-1-.3-1.2-.4-.4-1-.5-1.6-.5-.7 0-1.2.1-1.5.3-.3.3-.6.7-.7 1.3l-1.4-.2c.1-.6.3-1 .6-1.5.3-.3.7-.6 1.3-.8.5-.2 1.1-.3 1.9-.3a5 5 0 0 1 1.7.3c.4.1.8.3 1 .6.2.2.3.6.4 1v3.2l.2 2.4c0 .4.1.7.3 1h-1.5a3 3 0 0 1-.2-1Zm-.2-3.2-2.3.6-1.2.2a1.2 1.2 0 0 0-.7 1.2c0 .3.1.7.4 1 .3.2.7.3 1.2.3.6 0 1-.1 1.5-.4.4-.2.7-.5 1-1l.1-1.3v-.6Zm9 1.2 1.5.1c-.2 1-.6 1.7-1.2 2.3-.6.5-1.4.8-2.3.8-1.1 0-2-.4-2.7-1.1-.7-.8-1-1.8-1-3.2 0-1 0-1.7.4-2.4a3 3 0 0 1 1.3-1.5 4 4 0 0 1 2-.5 3.1 3.1 0 0 1 3.3 2.6l-1.3.3c-.2-.6-.4-1-.7-1.3-.4-.3-.8-.4-1.2-.4-.7 0-1.3.2-1.8.7-.4.5-.6 1.3-.6 2.4 0 1.2.2 2 .6 2.5.4.5 1 .7 1.7.7.5 0 1-.1 1.4-.5.3-.3.6-.8.7-1.5Zm5.7 1.7.2 1.3-1 .1c-.5 0-1 0-1.2-.2-.3-.2-.5-.4-.6-.7a5 5 0 0 1-.2-1.6v-4.8h-1v-1.1h1v-2l1.4-.9v2.9h1.4v1.1h-1.4v5.6l.3.3.5.1h.6Zm7.2 1.3h-1.3v-11.5h1.4v4.1c.6-.7 1.3-1 2.2-1 .5 0 1 0 1.5.2.4.2.8.5 1.1.9l.7 1.3c.2.6.2 1.1.2 1.7 0 1.4-.3 2.5-1 3.3-.7.8-1.6 1.2-2.5 1.2-1 0-1.8-.4-2.3-1.2v1Zm0-4.2c0 1 0 1.7.3 2.1.5.8 1 1.1 1.8 1.1a2 2 0 0 0 1.6-.8c.5-.5.7-1.3.7-2.4 0-1-.2-1.8-.6-2.4a2 2 0 0 0-1.6-.7 2 2 0 0 0-1.6.8c-.4.5-.7 1.3-.7 2.3Zm13.2 1.5 1.5.2c-.2.9-.7 1.5-1.3 2-.6.5-1.4.7-2.3.7-1.3 0-2.2-.4-3-1.1-.6-.8-1-1.8-1-3.2 0-1.4.4-2.5 1-3.2.8-.8 1.7-1.2 2.9-1.2 1 0 2 .4 2.7 1.1.7.8 1 1.9 1 3.2v.4h-6.1c0 1 .3 1.6.7 2.1.5.5 1 .7 1.8.7.5 0 1-.1 1.3-.4.3-.2.6-.7.8-1.3Zm-4.6-2.2h4.7c-.1-.7-.3-1.3-.6-1.6-.4-.6-1-.8-1.7-.8s-1.2.2-1.6.6c-.5.5-.7 1-.8 1.8Zm7.6 5.6 1.4.2c0 .4.2.7.5 1 .3.2.8.3 1.4.3.6 0 1.1-.1 1.5-.4.4-.2.6-.6.7-1l.1-1.9c-.6.7-1.4 1.1-2.3 1.1-1.1 0-2-.4-2.6-1.2-.7-.9-1-1.8-1-3 0-.8.2-1.5.5-2.2.3-.7.7-1.2 1.2-1.5.6-.4 1.2-.6 2-.6 1 0 1.7.4 2.3 1.2v-1h1.3v7.2c0 1.3 0 2.2-.4 2.7-.2.6-.6 1-1.2 1.3-.6.3-1.3.5-2.1.5a4 4 0 0 1-2.4-.7c-.6-.4-1-1.1-.9-2Zm1.2-5c0 1 .2 1.9.6 2.4.5.5 1 .7 1.7.7a2 2 0 0 0 1.6-.7c.4-.5.6-1.3.6-2.3 0-1-.2-1.8-.6-2.3a2 2 0 0 0-3.3 0c-.4.5-.6 1.2-.6 2.2Zm8-5.5v-1.7h1.4v1.7H217Zm0 9.8v-8.3h1.4v8.3H217Zm3.5 0v-8.3h1.3v1.2a3 3 0 0 1 2.6-1.4c.5 0 1 .1 1.4.3.4.2.8.4 1 .7l.4 1v6.5H226v-5c0-.6 0-1-.2-1.3 0-.3-.3-.5-.6-.7-.2-.2-.6-.3-1-.3-.5 0-1 .2-1.5.6-.4.4-.7 1.1-.7 2.2v4.5h-1.4Zm9 0v-8.3h1.2v1.2a3 3 0 0 1 2.7-1.4c.5 0 1 .1 1.3.3.5.2.8.4 1 .7l.4 1v6.5H235v-5c0-.6 0-1-.2-1.3 0-.3-.3-.5-.6-.7-.2-.2-.6-.3-1-.3-.5 0-1 .2-1.5.6-.4.4-.6 1.1-.6 2.2v4.5h-1.5Zm8.9-9.8v-1.7h1.4v1.7h-1.4Zm0 9.8v-8.3h1.4v8.3h-1.4Zm3.5 0v-8.3h1.3v1.2a3 3 0 0 1 2.6-1.4c.5 0 1 .1 1.4.3l1 .7.4 1v6.5h-1.3v-5l-.2-1.3c-.1-.3-.3-.5-.6-.7-.3-.2-.6-.3-1-.3-.6 0-1 .2-1.5.6-.5.4-.7 1.1-.7 2.2v4.5H242Zm8.7.7 1.3.2c0 .4.2.7.5 1 .4.2.8.3 1.4.3.7 0 1.2-.1 1.5-.4.4-.2.6-.6.8-1v-1.9c-.5.7-1.3 1.1-2.2 1.1-1.2 0-2-.4-2.7-1.2-.6-.9-1-1.8-1-3 0-.8.2-1.5.5-2.2.3-.7.7-1.2 1.3-1.5.5-.4 1.1-.6 1.9-.6 1 0 1.8.4 2.4 1.2v-1h1.3v7.2c0 1.3-.1 2.2-.4 2.7-.3.6-.7 1-1.3 1.3-.5.3-1.2.5-2 .5a4 4 0 0 1-2.5-.7c-.6-.4-.9-1.1-.8-2Zm1.1-5c0 1 .2 1.9.7 2.4.4.5 1 .7 1.6.7a2 2 0 0 0 1.6-.7c.5-.5.7-1.3.7-2.3 0-1-.2-1.8-.7-2.3a2 2 0 0 0-3.2 0c-.5.5-.7 1.2-.7 2.2Zm12 .2c0-1.6.4-2.7 1.2-3.5.8-.6 1.6-.9 2.6-.9 1.2 0 2.1.4 2.8 1.1.8.8 1.1 1.8 1.1 3.1 0 1.1-.1 2-.5 2.6-.3.6-.7 1-1.4 1.4a4 4 0 0 1-2 .5c-1.1 0-2-.4-2.8-1.1-.7-.8-1-1.8-1-3.2Zm1.4 0c0 1 .2 1.8.7 2.3.5.6 1 .8 1.8.8.6 0 1.2-.2 1.7-.8.5-.5.7-1.3.7-2.4 0-1-.2-1.8-.7-2.3-.5-.6-1-.8-1.8-.8-.7 0-1.2.2-1.7.8-.5.5-.7 1.3-.7 2.4Zm8 4.1v-8.3h1.2v1.3c.4-.6.7-1 1-1.2.2-.2.5-.3.8-.3.5 0 1 .2 1.5.5l-.5 1.3a2 2 0 0 0-1-.3c-.3 0-.6 0-.9.3-.2.1-.4.4-.5.7l-.2 1.7v4.3h-1.4Zm12.8-1.3.2 1.3-1 .1c-.5 0-1 0-1.2-.2-.3-.2-.5-.4-.6-.7a5 5 0 0 1-.2-1.6v-4.8h-1v-1.1h1v-2l1.4-.9v2.9h1.4v1.1h-1.4v4.8l.1.8.2.3.5.1h.6Zm1.4 1.3v-11.5h1.4v4.2c.7-.8 1.5-1.2 2.5-1.2.6 0 1.2.1 1.6.4.5.2.8.6 1 1 .2.4.3 1 .3 1.8v5.3h-1.4v-5.3c0-.7-.2-1.2-.5-1.5-.3-.3-.7-.5-1.3-.5-.4 0-.8.1-1.2.4-.3.2-.6.5-.7.8a4 4 0 0 0-.3 1.6v4.5h-1.4Zm14.6-2.7 1.5.2c-.3.9-.7 1.5-1.3 2-.6.5-1.4.7-2.4.7-1.2 0-2.2-.4-2.9-1.1-.7-.8-1-1.8-1-3.2 0-1.4.3-2.5 1-3.2.8-.8 1.7-1.2 2.8-1.2 1.1 0 2 .4 2.8 1.1.7.8 1 1.9 1 3.2v.4h-6.2c0 1 .3 1.6.8 2.1s1 .7 1.7.7c.5 0 1-.1 1.3-.4.4-.2.7-.7 1-1.3Zm-4.6-2.2h4.6c0-.7-.2-1.3-.5-1.6-.5-.6-1-.8-1.7-.8s-1.2.2-1.7.6c-.4.5-.7 1-.7 1.8Zm18 2.2 1.4.2c-.2.9-.6 1.5-1.3 2-.6.5-1.4.7-2.3.7-1.2 0-2.2-.4-3-1.1-.6-.8-1-1.8-1-3.2 0-1.4.4-2.5 1.1-3.2.7-.8 1.6-1.2 2.8-1.2 1.1 0 2 .4 2.7 1.1.7.8 1 1.9 1 3.2v.4h-6.1c0 1 .3 1.6.7 2.1.5.5 1 .7 1.8.7.5 0 1-.1 1.3-.4.4-.2.7-.7.9-1.3Zm-4.6-2.2h4.6c0-.7-.3-1.3-.5-1.6-.5-.6-1-.8-1.8-.8-.6 0-1.2.2-1.6.6-.5.5-.7 1-.7 1.8Zm7.8 4.9v-8.3h1.3v1.2a3 3 0 0 1 2.6-1.4c.5 0 1 .1 1.4.3l1 .7.4 1v6.5H324v-5l-.1-1.3c-.1-.3-.3-.5-.6-.7-.3-.2-.6-.3-1-.3-.6 0-1.1.2-1.6.6-.4.4-.6 1.1-.6 2.2v4.5h-1.4Zm14.3 0v-1c-.5.8-1.3 1.2-2.3 1.2a3.6 3.6 0 0 1-3.1-2c-.4-.7-.5-1.5-.5-2.3 0-.9.1-1.6.4-2.3a3.3 3.3 0 0 1 3.1-2c.5 0 1 0 1.3.2.4.2.7.5 1 .9v-4.2h1.4V153h-1.3Zm-4.5-4.1c0 1 .3 1.8.7 2.3.5.6 1 .8 1.6.8a2 2 0 0 0 1.6-.7c.4-.5.6-1.3.6-2.3 0-1.2-.2-2-.6-2.5a2 2 0 0 0-3.2 0c-.5.5-.7 1.3-.7 2.4Zm12 0c0-1.6.4-2.7 1.2-3.5.7-.6 1.6-.9 2.6-.9 1.2 0 2.1.4 2.8 1.1.7.8 1.1 1.8 1.1 3.1 0 1.1-.2 2-.5 2.6-.3.6-.8 1-1.4 1.4a4 4 0 0 1-2 .5c-1.1 0-2-.4-2.8-1.1-.7-.8-1-1.8-1-3.2Zm1.4 0c0 1 .2 1.8.7 2.3.4.6 1 .8 1.7.8s1.3-.2 1.8-.8c.4-.5.7-1.3.7-2.4 0-1-.3-1.8-.7-2.3-.5-.6-1-.8-1.8-.8-.7 0-1.3.2-1.7.8-.5.5-.7 1.3-.7 2.4Zm8.3 4.1v-7.2h-1.2v-1.1h1.2v-.9c0-.5 0-1 .2-1.2 0-.4.3-.7.7-1l1.4-.2h1.3l-.2 1.3h-.8c-.5 0-.8 0-1 .2l-.2 1v.8h1.6v1.1h-1.6v7.2h-1.4Zm14-1-1.5 1-1.6.2c-.9 0-1.6-.2-2-.7-.6-.4-.8-1-.8-1.7a2.3 2.3 0 0 1 1-2l1-.4 1.3-.2c1.1-.1 2-.3 2.5-.5v-.3c0-.6-.2-1-.4-1.2-.4-.4-1-.5-1.6-.5-.7 0-1.2.1-1.5.3-.3.3-.5.7-.7 1.3l-1.4-.2.7-1.5c.2-.3.7-.6 1.2-.8.5-.2 1.2-.3 1.9-.3a5 5 0 0 1 1.7.3c.5.1.8.3 1 .6.2.2.3.6.4 1v3.2l.2 2.4c0 .4.2.7.3 1h-1.4a3 3 0 0 1-.3-1Zm-.1-3.2-2.3.6-1.3.2a1.2 1.2 0 0 0-.7 1.2c0 .3.1.7.4 1 .3.2.7.3 1.3.3.5 0 1-.1 1.4-.4.4-.2.7-.5 1-1l.2-1.3v-.6Zm9 4.2v-1c-.6.8-1.3 1.2-2.4 1.2a3.6 3.6 0 0 1-3.1-2c-.3-.7-.4-1.5-.4-2.3 0-.9.1-1.6.4-2.3a3.3 3.3 0 0 1 4.4-1.8c.4.2.7.5 1 .9v-4.2h1.4V153H373Zm-4.5-4.1c0 1 .2 1.8.7 2.3.4.6 1 .8 1.6.8a2 2 0 0 0 1.5-.7c.5-.5.7-1.3.7-2.3 0-1.2-.2-2-.7-2.5a2 2 0 0 0-3.2 0c-.4.5-.6 1.3-.6 2.4ZM382 153v-1c-.6.8-1.3 1.2-2.4 1.2a3.6 3.6 0 0 1-3.1-2c-.3-.7-.4-1.5-.4-2.3 0-.9.1-1.6.4-2.3a3.3 3.3 0 0 1 4.4-1.8c.4.2.7.5 1 .9v-4.2h1.4V153h-1.3Zm-4.5-4.1c0 1 .2 1.8.7 2.3.4.6 1 .8 1.6.8a2 2 0 0 0 1.5-.7c.5-.5.7-1.3.7-2.3 0-1.2-.2-2-.7-2.5a2 2 0 0 0-3.2 0c-.4.5-.6 1.3-.6 2.4Zm8 4.1v-8.3h1.2v1.3c.4-.6.7-1 1-1.2.2-.2.5-.3.8-.3.5 0 1 .2 1.5.5l-.5 1.3a2 2 0 0 0-1-.3c-.3 0-.6 0-.9.3-.2.1-.4.4-.5.7l-.2 1.7v4.3h-1.4Zm11-2.7 1.5.2c-.3.9-.7 1.5-1.3 2-.6.5-1.4.7-2.4.7-1.2 0-2.2-.4-2.9-1.1-.7-.8-1-1.8-1-3.2 0-1.4.3-2.5 1-3.2.7-.8 1.7-1.2 2.8-1.2 1.1 0 2 .4 2.7 1.1.7.8 1.1 1.9 1.1 3.2v.4h-6.2c0 1 .3 1.6.8 2.1.4.5 1 .7 1.7.7.5 0 1-.1 1.3-.4.4-.2.7-.7.9-1.3Zm-4.6-2.2h4.6c0-.7-.2-1.3-.5-1.6-.5-.6-1-.8-1.8-.8-.6 0-1.1.2-1.6.6-.4.5-.7 1-.7 1.8Zm7.3 2.4 1.4-.2c0 .6.2 1 .6 1.3.4.3.9.4 1.5.4s1.1-.1 1.4-.4c.4-.2.5-.5.5-.9 0-.3-.1-.6-.4-.7-.2-.2-.7-.3-1.4-.5l-2.2-.7c-.4-.2-.7-.4-.9-.8-.2-.3-.3-.7-.3-1 0-.5 0-.8.2-1.1l.7-.8 1-.4 1.2-.2c.6 0 1.2.1 1.7.3.5.2.8.4 1 .8.3.3.5.7.5 1.2l-1.3.2c-.1-.4-.3-.7-.6-1a2 2 0 0 0-1.2-.3c-.7 0-1.2 0-1.4.3-.3.2-.4.5-.4.7l.1.5c.1.2.3.3.6.4l1.2.4 2 .6c.5.2.8.4 1 .8.2.3.4.7.4 1.2 0 .4-.2.9-.5 1.3-.2.4-.6.7-1.1 1-.6.2-1.1.3-1.8.3a4 4 0 0 1-2.5-.7c-.5-.4-.9-1.1-1-2Zm8 0 1.4-.2c0 .6.2 1 .6 1.3.4.3.9.4 1.5.4s1.1-.1 1.4-.4c.4-.2.5-.5.5-.9 0-.3-.1-.6-.4-.7-.2-.2-.7-.3-1.4-.5l-2.2-.7c-.4-.2-.7-.4-.9-.8-.2-.3-.3-.7-.3-1 0-.5 0-.8.2-1.1l.7-.8 1-.4 1.2-.2c.6 0 1.2.1 1.7.3.5.2.8.4 1 .8.3.3.5.7.5 1.2l-1.3.2c-.1-.4-.3-.7-.6-1a2 2 0 0 0-1.2-.3c-.7 0-1.2 0-1.4.3-.3.2-.4.5-.4.7l.1.5c.1.2.3.3.6.4l1.2.4 2 .6c.5.2.8.4 1 .8.2.3.4.7.4 1.2 0 .4-.2.9-.5 1.3-.2.4-.6.7-1.1 1-.6.2-1.1.3-1.8.3a4 4 0 0 1-2.5-.7c-.5-.4-.9-1.1-1-2ZM62.6 98l-4.4-11.5h1.6l3 8.4.6 1.8.6-1.8 3.1-8.4h1.5L64.2 98h-1.6Zm12-2.7 1.5.2c-.3.9-.7 1.5-1.3 2-.6.5-1.4.7-2.4.7-1.2 0-2.2-.4-2.9-1.1-.7-.8-1-1.8-1-3.2 0-1.4.3-2.5 1-3.2.8-.8 1.7-1.2 2.8-1.2 1.2 0 2 .4 2.8 1.1.7.8 1 1.9 1 3.2v.4H70c0 1 .3 1.6.8 2.1s1 .7 1.7.7c.5 0 1-.1 1.3-.4.4-.2.7-.7 1-1.3ZM70 93.1h4.6c0-.7-.2-1.3-.5-1.6-.4-.6-1-.8-1.7-.8s-1.2.2-1.7.6c-.4.5-.7 1-.7 1.8Zm7.8 4.9v-8.3h1.3V91c.3-.6.6-1 .9-1.2l.9-.3c.5 0 1 .2 1.4.5l-.5 1.3a2 2 0 0 0-1-.3c-.3 0-.6 0-.8.3-.3.1-.4.4-.5.7-.2.5-.3 1-.3 1.7V98h-1.4Zm6.7 0h-1.3V86.5h1.4v4.1c.6-.7 1.3-1 2.2-1 .6 0 1 0 1.5.2.4.2.8.5 1.1.9l.7 1.3c.2.6.3 1.1.3 1.7 0 1.4-.4 2.5-1.1 3.3-.7.8-1.5 1.2-2.5 1.2s-1.8-.4-2.3-1.2v1Zm0-4.2c0 1 0 1.7.4 2.1.4.8 1 1.1 1.8 1.1a2 2 0 0 0 1.5-.8c.5-.5.7-1.3.7-2.4 0-1-.2-1.8-.6-2.4a2 2 0 0 0-1.6-.7 2 2 0 0 0-1.6.8c-.4.5-.6 1.3-.6 2.3Zm13 3.2L96 98l-1.6.2c-.9 0-1.6-.2-2-.7-.6-.4-.8-1-.8-1.7a2.3 2.3 0 0 1 1-2l1-.4 1.3-.2c1.1-.1 2-.3 2.5-.5v-.3c0-.6-.2-1-.4-1.2-.4-.4-1-.5-1.6-.5-.7 0-1.2.1-1.5.3-.3.3-.5.7-.7 1.3l-1.4-.2.7-1.5c.2-.3.7-.6 1.2-.8.5-.2 1.2-.3 1.9-.3a5 5 0 0 1 1.7.3c.5.1.8.3 1 .6.2.2.3.6.4 1l.1 1.2V97l.4 1h-1.4a3 3 0 0 1-.3-1Zm-.1-3.2-2.3.6-1.3.2a1.2 1.2 0 0 0-.7 1.2c0 .3.1.7.4 1 .3.2.7.3 1.3.3.5 0 1-.1 1.4-.4.4-.2.7-.5 1-1l.2-1.3v-.6Zm6.7 3 .2 1.2-1.1.1c-.5 0-1 0-1.2-.2-.3-.2-.5-.4-.6-.7a5 5 0 0 1-.2-1.6v-4.8h-1v-1.1h1v-2l1.4-.9v2.9h1.5v1.1h-1.5v4.8l.1.8.3.3.4.1h.7Zm1.3-8.6v-1.7h1.4v1.7h-1.4Zm0 9.8v-8.3h1.4V98h-1.4Zm3.6 0v-8.3h1.3v1.2a3 3 0 0 1 2.5-1.4c.6 0 1 .1 1.5.4.4.3.7.6.8 1a3 3 0 0 1 2.6-1.4c.8 0 1.4.2 1.9.7.4.5.6 1.2.6 2.1V98h-1.4v-5.2l-.1-1.2c0-.3-.3-.5-.5-.6-.2-.2-.5-.3-.8-.3a2 2 0 0 0-1.5.6c-.4.4-.6 1-.6 1.9V98H114v-5.4c0-.6 0-1-.3-1.4-.2-.3-.6-.5-1.1-.5a2 2 0 0 0-1.1.3c-.4.3-.6.6-.8 1l-.2 1.7V98H109Zm20.8-1.3.3 1.3-1.1.1c-.5 0-1 0-1.2-.2-.3-.2-.5-.4-.6-.7l-.2-1.6v-4.8h-1v-1.1h1v-2l1.4-.9v2.9h1.4v1.1h-1.4v4.8l.1.8.2.3.5.1h.7Zm7.1-1.4 1.5.2c-.3.9-.7 1.5-1.3 2-.6.5-1.4.7-2.4.7-1.2 0-2.2-.4-2.9-1.1-.7-.8-1-1.8-1-3.2 0-1.4.3-2.5 1-3.2.8-.8 1.7-1.2 2.8-1.2 1.1 0 2 .4 2.8 1.1.7.8 1 1.9 1 3.2v.4h-6.2c0 1 .3 1.6.8 2.1s1 .7 1.7.7c.5 0 1-.1 1.3-.4.4-.2.7-.7 1-1.3Zm-4.6-2.2h4.6c0-.7-.2-1.3-.5-1.6-.5-.6-1-.8-1.7-.8s-1.2.2-1.7.6c-.4.5-.7 1-.7 1.8Zm6.9 4.9 3-4.3-2.8-4h1.8l1.3 2 .5.9.7-1 1.4-1.9h1.6l-2.8 4 3 4.3h-1.7l-1.7-2.6-.4-.7-2.2 3.3h-1.7Zm12-1.3.2 1.3-1 .1c-.6 0-1 0-1.2-.2-.3-.2-.5-.4-.6-.7a5 5 0 0 1-.2-1.6v-4.8h-1v-1.1h1v-2l1.4-.9v2.9h1.4v1.1h-1.4v5.6l.3.3.5.1h.6ZM153 98v-1.6h1.6V98H153Zm11.3 0V87.9h-3.8v-1.4h9.1V88h-3.8V98h-1.5Zm6.7 0V86.5h1.4v4.2c.6-.8 1.5-1.2 2.5-1.2.6 0 1.1.1 1.6.4.4.2.8.6 1 1l.2 1.8V98h-1.4v-5.3c0-.7-.1-1.2-.4-1.5-.3-.3-.8-.5-1.3-.5-.4 0-.8.1-1.2.4-.4.2-.6.5-.8.8a4 4 0 0 0-.2 1.6V98H171Zm8.9-9.8v-1.7h1.4v1.7h-1.4Zm0 9.8v-8.3h1.4V98h-1.4Zm3-2.5 1.4-.2c0 .6.3 1 .6 1.3.4.3.9.4 1.5.4.7 0 1.2-.1 1.5-.4.3-.2.4-.5.4-.9 0-.3-.1-.6-.4-.7a6 6 0 0 0-1.4-.5l-2.2-.7c-.4-.2-.7-.4-.9-.8-.2-.3-.3-.7-.3-1 0-.5.1-.8.3-1.1.1-.3.4-.6.7-.8.2-.2.5-.3.9-.4l1.2-.2c.6 0 1.2.1 1.7.3.5.2.8.4 1 .8.3.3.5.7.6 1.2l-1.4.2c0-.4-.3-.7-.6-1a2 2 0 0 0-1.2-.3c-.7 0-1.1 0-1.4.3-.3.2-.4.5-.4.7 0 .2 0 .4.2.5 0 .2.2.3.5.4l1.2.4 2.1.6c.4.2.7.4 1 .8.2.3.3.7.3 1.2 0 .4-.2.9-.4 1.3-.3.4-.7.7-1.2 1-.5.2-1.1.3-1.8.3a4 4 0 0 1-2.4-.7c-.6-.4-1-1.1-1.1-2Zm16 1.2.3 1.3-1 .1c-.6 0-1 0-1.3-.2-.3-.2-.5-.4-.6-.7l-.1-1.6v-4.8h-1v-1.1h1v-2l1.4-.9v2.9h1.4v1.1h-1.4v5.6l.3.3.5.1h.6Zm7.1-1.4 1.5.2c-.2.9-.7 1.5-1.3 2-.6.5-1.4.7-2.4.7-1.2 0-2.1-.4-2.8-1.1-.8-.8-1.1-1.8-1.1-3.2 0-1.4.3-2.5 1-3.2.8-.8 1.7-1.2 2.9-1.2 1 0 2 .4 2.7 1.1.7.8 1 1.9 1 3.2v.4h-6.2c0 1 .4 1.6.8 2.1.5.5 1 .7 1.8.7.5 0 1-.1 1.3-.4.3-.2.6-.7.8-1.3Zm-4.6-2.2h4.7c-.1-.7-.3-1.3-.6-1.6-.4-.6-1-.8-1.7-.8s-1.2.2-1.7.6c-.4.5-.6 1-.7 1.8Zm7 4.9 3-4.3-2.8-4h1.7l1.3 2 .6.9.6-1 1.4-1.9h1.7l-2.9 4 3 4.3h-1.6l-1.7-2.6-.5-.7L210 98h-1.7Zm12-1.3.1 1.3-1 .1c-.5 0-1 0-1.2-.2-.3-.2-.5-.4-.6-.7a5 5 0 0 1-.2-1.6v-4.8h-1v-1.1h1v-2l1.4-.9v2.9h1.4v1.1H219v5.6l.3.3.5.1h.6Zm5.8 1.3v-8.3h1.2v1.2a3 3 0 0 1 2.5-1.4c.7 0 1.2.1 1.6.4l.8 1a3 3 0 0 1 2.5-1.4c.9 0 1.5.2 2 .7.4.5.6 1.2.6 2.1V98H236v-5.2l-.1-1.2c-.1-.3-.3-.5-.5-.6-.3-.2-.5-.3-.9-.3a2 2 0 0 0-1.4.6c-.4.4-.6 1-.6 1.9V98h-1.4v-5.4c0-.6-.1-1-.3-1.4-.3-.3-.6-.5-1.2-.5a2 2 0 0 0-1 .3c-.4.3-.6.6-.8 1l-.2 1.7V98h-1.4Zm18.7 0v-1.2a3 3 0 0 1-2.6 1.4c-.5 0-1-.1-1.4-.3l-1-.7c-.1-.3-.3-.6-.3-1l-.1-1.4v-5.1h1.4v6.1c.1.4.3.7.6.9.3.2.7.3 1 .3.5 0 .9-.1 1.3-.3l.8-1 .2-1.6v-4.4h1.4V98h-1.3Zm3-2.5 1.3-.2c.1.6.3 1 .7 1.3.3.3.8.4 1.5.4.6 0 1.1-.1 1.4-.4.3-.2.5-.5.5-.9 0-.3-.2-.6-.4-.7a6 6 0 0 0-1.5-.5l-2.1-.7c-.4-.2-.7-.4-1-.8l-.2-1c0-.5 0-.8.2-1.1l.7-.8c.2-.2.5-.3 1-.4l1.1-.2c.7 0 1.3.1 1.7.3.5.2.9.4 1.1.8.3.3.4.7.5 1.2l-1.4.2c0-.4-.2-.7-.5-1a2 2 0 0 0-1.3-.3c-.6 0-1 0-1.3.3-.3.2-.5.5-.5.7 0 .2 0 .4.2.5l.5.4 1.3.4 2 .6c.5.2.8.4 1 .8.2.3.3.7.3 1.2 0 .4-.1.9-.4 1.3-.3.4-.6.7-1.2 1-.5.2-1 .3-1.7.3a4 4 0 0 1-2.5-.7c-.5-.4-.9-1.1-1-2Zm11.6 1.2.2 1.3-1 .1c-.6 0-1 0-1.3-.2-.3-.2-.5-.4-.6-.7l-.1-1.6v-4.8h-1v-1.1h1v-2l1.4-.9v2.9h1.4v1.1H258v5.6l.3.3.5.1h.6Zm7.1 1.3h-1.3V86.5h1.4v4.1c.6-.7 1.4-1 2.3-1 .5 0 1 0 1.4.2.5.2.9.5 1.2.9.3.4.5.8.6 1.3.2.6.3 1.1.3 1.7 0 1.4-.4 2.5-1 3.3-.8.8-1.6 1.2-2.6 1.2s-1.7-.4-2.3-1.2v1Zm0-4.2c0 1 .1 1.7.4 2.1.4.8 1 1.1 1.8 1.1a2 2 0 0 0 1.6-.8c.4-.5.7-1.3.7-2.4 0-1-.3-1.8-.7-2.4a2 2 0 0 0-3.1 0c-.5.6-.7 1.4-.7 2.4Zm13.3 1.5 1.5.2c-.3.9-.7 1.5-1.3 2-.6.5-1.4.7-2.4.7-1.2 0-2.2-.4-2.9-1.1-.7-.8-1-1.8-1-3.2 0-1.4.3-2.5 1-3.2.7-.8 1.7-1.2 2.8-1.2 1.1 0 2 .4 2.7 1.1.7.8 1.1 1.9 1.1 3.2v.4h-6.2c0 1 .3 1.6.8 2.1.4.5 1 .7 1.7.7.5 0 1-.1 1.3-.4.4-.2.7-.7.9-1.3Zm-4.6-2.2h4.6c0-.7-.2-1.3-.5-1.6-.5-.6-1-.8-1.8-.8-.6 0-1.2.2-1.6.6-.4.5-.7 1-.7 1.8Zm12.3 8V89.8h1.3v1c.3-.3.6-.7 1-.9.4-.2.8-.3 1.4-.3.7 0 1.3.2 1.8.6.6.3 1 .8 1.3 1.5.2.7.4 1.4.4 2.2 0 .8-.2 1.6-.5 2.3a3.4 3.4 0 0 1-3.1 2c-.5 0-1 0-1.3-.2l-1-.8v4h-1.3Zm1.3-7.2c0 1 .2 1.9.6 2.4.4.5 1 .7 1.6.7a2 2 0 0 0 1.6-.8c.4-.5.6-1.3.6-2.4 0-1-.2-1.9-.6-2.4a2 2 0 0 0-1.6-.8c-.6 0-1.1.3-1.6.9-.4.5-.6 1.3-.6 2.4Zm7.6 4.1v-8.3h1.2V91c.4-.6.7-1 1-1.2.2-.2.5-.3.8-.3.5 0 1 .2 1.5.5l-.5 1.3a2 2 0 0 0-1-.3c-.3 0-.6 0-.9.3-.2.1-.4.4-.5.7l-.2 1.7V98h-1.4Zm11-2.7 1.4.2c-.2.9-.6 1.5-1.2 2s-1.4.7-2.4.7c-1.2 0-2.2-.4-2.9-1.1-.7-.8-1-1.8-1-3.2 0-1.4.3-2.5 1-3.2.7-.8 1.7-1.2 2.8-1.2 1.1 0 2 .4 2.7 1.1.7.8 1 1.9 1 3.2v.4h-6.1c0 1 .3 1.6.8 2.1.4.5 1 .7 1.7.7.5 0 1-.1 1.3-.4.4-.2.7-.7.9-1.3Zm-4.6-2.2h4.6c0-.7-.2-1.3-.5-1.6-.5-.6-1-.8-1.8-.8-.6 0-1.2.2-1.6.6-.4.5-.7 1-.7 1.8Zm7.3 2.4 1.3-.2c.1.6.3 1 .7 1.3.4.3.9.4 1.5.4s1.1-.1 1.4-.4c.3-.2.5-.5.5-.9 0-.3-.1-.6-.4-.7-.2-.2-.7-.3-1.5-.5l-2.1-.7c-.4-.2-.7-.4-1-.8l-.2-1c0-.5 0-.8.2-1.1l.7-.8 1-.4 1.1-.2c.7 0 1.3.1 1.8.3.4.2.8.4 1 .8.3.3.4.7.5 1.2l-1.3.2c-.1-.4-.3-.7-.6-1a2 2 0 0 0-1.3-.3c-.6 0-1 0-1.3.3-.3.2-.5.5-.5.7l.2.5c.1.2.3.3.6.4l1.2.4 2 .6c.5.2.8.4 1 .8.2.3.3.7.3 1.2 0 .4 0 .9-.4 1.3-.2.4-.6.7-1.1 1-.6.2-1.1.3-1.8.3a4 4 0 0 1-2.5-.7c-.5-.4-.9-1.1-1-2Zm14.2-.2 1.5.2c-.3.9-.7 1.5-1.3 2-.6.5-1.4.7-2.4.7-1.2 0-2.2-.4-2.9-1.1-.7-.8-1-1.8-1-3.2 0-1.4.3-2.5 1-3.2.7-.8 1.7-1.2 2.8-1.2 1.1 0 2 .4 2.7 1.1.7.8 1.1 1.9 1.1 3.2v.4h-6.2c0 1 .3 1.6.8 2.1.4.5 1 .7 1.7.7.5 0 1-.1 1.3-.4.4-.2.7-.7.9-1.3Zm-4.6-2.2h4.6c0-.7-.2-1.3-.5-1.6-.5-.6-1-.8-1.8-.8-.6 0-1.2.2-1.6.6-.4.5-.7 1-.7 1.8Zm7.8 4.9v-8.3h1.3v1.2a3 3 0 0 1 2.6-1.4c.5 0 1 .1 1.4.3l1 .7.4 1V98H333v-5l-.2-1.3c-.1-.3-.3-.5-.6-.7-.3-.2-.6-.3-1-.3-.6 0-1 .2-1.5.6-.5.4-.7 1.1-.7 2.2V98h-1.4Zm12-1.3.2 1.3-1 .1c-.6 0-1 0-1.2-.2-.3-.2-.5-.4-.6-.7-.2-.2-.2-.8-.2-1.6v-4.8h-1v-1.1h1v-2l1.4-.9v2.9h1.4v1.1h-1.4v5.6l.3.3.5.1h.6Zm5.8-8.5v-1.7h1.5v1.7h-1.5Zm0 9.8v-8.3h1.5V98h-1.5Zm3.6 0v-8.3h1.3v1.2a3 3 0 0 1 2.6-1.4c.5 0 1 .1 1.4.3l1 .7.4 1V98h-1.4v-5l-.1-1.3c-.1-.3-.3-.5-.6-.7-.3-.2-.6-.3-1-.3-.6 0-1.1.2-1.5.6-.5.4-.7 1.1-.7 2.2V98H349Zm16.4-1.3.2 1.3-1 .1c-.5 0-1 0-1.2-.2-.3-.2-.5-.4-.6-.7a5 5 0 0 1-.2-1.6v-4.8h-1v-1.1h1v-2l1.4-.9v2.9h1.4v1.1H364v5.6l.3.3.5.1h.6Zm1.4 1.3V86.5h1.4v4.2c.7-.8 1.5-1.2 2.5-1.2.6 0 1.2.1 1.6.4.5.2.8.6 1 1 .2.4.3 1 .3 1.8V98h-1.4v-5.3c0-.7-.2-1.2-.5-1.5-.3-.3-.7-.5-1.3-.5-.4 0-.8.1-1.2.4-.3.2-.6.5-.7.8a4 4 0 0 0-.3 1.6V98h-1.4Zm14.6-2.7 1.5.2c-.3.9-.7 1.5-1.3 2-.6.5-1.4.7-2.4.7-1.2 0-2.2-.4-2.9-1.1-.7-.8-1-1.8-1-3.2 0-1.4.3-2.5 1-3.2.7-.8 1.7-1.2 2.8-1.2 1.1 0 2 .4 2.7 1.1.7.8 1.1 1.9 1.1 3.2v.4h-6.2c0 1 .3 1.6.8 2.1.4.5 1 .7 1.7.7.5 0 1-.1 1.3-.4.4-.2.7-.7.9-1.3Zm-4.6-2.2h4.6c0-.7-.2-1.3-.5-1.6-.5-.6-1-.8-1.8-.8-.6 0-1.2.2-1.6.6-.4.5-.7 1-.7 1.8Zm17.7 3.9-1.5 1-1.6.2c-.9 0-1.6-.2-2-.7-.6-.4-.8-1-.8-1.7a2.3 2.3 0 0 1 1-2l1-.4 1.3-.2c1.1-.1 2-.3 2.5-.5v-.3c0-.6-.2-1-.4-1.2-.4-.4-1-.5-1.6-.5-.7 0-1.2.1-1.5.3-.3.3-.5.7-.7 1.3l-1.4-.2.7-1.5c.2-.3.7-.6 1.2-.8.5-.2 1.2-.3 1.9-.3a5 5 0 0 1 1.7.3c.5.1.8.3 1 .6.2.2.3.6.4 1l.1 1.2V97l.4 1h-1.4a3 3 0 0 1-.3-1Zm-.1-3.2-2.3.6-1.3.2a1.2 1.2 0 0 0-.7 1.2c0 .3.1.7.4 1 .3.2.7.3 1.3.3.5 0 1-.1 1.4-.4.4-.2.7-.5 1-1l.2-1.3v-.6Zm9 4.2v-1c-.6.8-1.3 1.2-2.4 1.2a3.6 3.6 0 0 1-3.1-2c-.3-.7-.4-1.5-.4-2.3 0-.9.1-1.6.4-2.3a3.3 3.3 0 0 1 3-2 2.7 2.7 0 0 1 2.4 1v-4h1.4V98h-1.3Zm-4.5-4.1c0 1 .2 1.8.7 2.3.4.6 1 .8 1.6.8a2 2 0 0 0 1.5-.7c.5-.5.7-1.3.7-2.3 0-1.2-.2-2-.7-2.5a2 2 0 0 0-3.2 0c-.4.5-.6 1.3-.6 2.4Zm13.4 4.1v-1c-.6.8-1.3 1.2-2.3 1.2a3.6 3.6 0 0 1-3.1-2c-.4-.7-.5-1.5-.5-2.3 0-.9.1-1.6.4-2.3a3.3 3.3 0 0 1 4.4-1.8c.4.2.7.5 1 .9v-4.2h1.4V98h-1.3Zm-4.5-4.1c0 1 .3 1.8.7 2.3.4.6 1 .8 1.6.8a2 2 0 0 0 1.5-.7c.5-.5.7-1.3.7-2.3 0-1.2-.2-2-.7-2.5a2 2 0 0 0-3.1 0c-.5.5-.7 1.3-.7 2.4Zm8 4.1v-8.3h1.2V91c.4-.6.7-1 1-1.2.2-.2.5-.3.8-.3.5 0 1 .2 1.5.5l-.5 1.3a2 2 0 0 0-1-.3c-.3 0-.6 0-.9.3-.2.1-.4.4-.5.7l-.2 1.7V98h-1.4Zm11-2.7 1.5.2c-.3.9-.7 1.5-1.3 2-.6.5-1.4.7-2.4.7-1.2 0-2.2-.4-2.9-1.1-.7-.8-1-1.8-1-3.2 0-1.4.3-2.5 1-3.2.8-.8 1.7-1.2 2.8-1.2 1.1 0 2 .4 2.7 1.1.8.8 1.1 1.9 1.1 3.2v.4h-6.2c0 1 .3 1.6.8 2.1.4.5 1 .7 1.7.7.5 0 1-.1 1.3-.4.4-.2.7-.7.9-1.3Zm-4.6-2.2h4.6c0-.7-.2-1.3-.5-1.6-.5-.6-1-.8-1.8-.8-.6 0-1.1.2-1.6.6-.4.5-.7 1-.7 1.8Zm7.3 2.4 1.4-.2c0 .6.3 1 .6 1.3.4.3.9.4 1.5.4.7 0 1.1-.1 1.4-.4.4-.2.5-.5.5-.9 0-.3-.1-.6-.4-.7a6 6 0 0 0-1.4-.5l-2.2-.7c-.4-.2-.7-.4-.9-.8-.2-.3-.3-.7-.3-1 0-.5 0-.8.3-1.1l.6-.8 1-.4 1.2-.2c.6 0 1.2.1 1.7.3.5.2.8.4 1 .8.3.3.5.7.5 1.2l-1.3.2c0-.4-.3-.7-.6-1a2 2 0 0 0-1.2-.3c-.7 0-1.1 0-1.4.3-.3.2-.4.5-.4.7l.1.5c.1.2.3.3.6.4l1.2.4 2 .6c.5.2.8.4 1 .8.2.3.4.7.4 1.2 0 .4-.2.9-.5 1.3-.2.4-.6.7-1.1 1-.6.2-1.1.3-1.8.3a4 4 0 0 1-2.5-.7c-.5-.4-.9-1.1-1-2Zm8 0 1.4-.2c0 .6.3 1 .6 1.3.4.3.9.4 1.5.4.7 0 1.1-.1 1.4-.4.4-.2.5-.5.5-.9 0-.3-.1-.6-.4-.7a6 6 0 0 0-1.4-.5l-2.2-.7c-.4-.2-.7-.4-.9-.8-.2-.3-.3-.7-.3-1 0-.5 0-.8.3-1.1l.6-.8 1-.4 1.2-.2c.6 0 1.2.1 1.7.3.5.2.8.4 1 .8.3.3.5.7.5 1.2l-1.3.2c0-.4-.3-.7-.6-1a2 2 0 0 0-1.2-.3c-.7 0-1.1 0-1.4.3-.3.2-.4.5-.4.7l.1.5c.1.2.3.3.6.4l1.2.4 2 .6c.5.2.8.4 1 .8.2.3.4.7.4 1.2 0 .4-.2.9-.5 1.3-.2.4-.6.7-1.1 1-.6.2-1.1.3-1.8.3a4 4 0 0 1-2.5-.7c-.5-.4-.9-1.1-1-2Zm16 1.2.3 1.3-1.1.1c-.5 0-1 0-1.2-.2-.3-.2-.5-.4-.6-.7a5 5 0 0 1-.2-1.6v-4.8h-1v-1.1h1v-2l1.4-.9v2.9h1.5v1.1H452v4.8l.1.8.3.3.4.1h.7Zm1-2.8c0-1.6.3-2.7 1.2-3.5.7-.6 1.6-.9 2.6-.9 1.1 0 2 .4 2.8 1.1.7.8 1 1.8 1 3.1 0 1.1 0 2-.4 2.6-.3.6-.8 1-1.4 1.4a4 4 0 0 1-2 .5c-1.2 0-2.1-.4-2.8-1.1-.7-.8-1-1.8-1-3.2Zm1.4 0c0 1 .2 1.8.7 2.3.4.6 1 .8 1.7.8s1.3-.2 1.7-.8c.5-.5.7-1.3.7-2.4 0-1-.2-1.8-.7-2.3-.4-.6-1-.8-1.7-.8s-1.3.2-1.7.8c-.5.5-.7 1.3-.7 2.4Zm13.7 4.1h-1.3V86.5h1.4v4.1c.6-.7 1.3-1 2.3-1 .5 0 1 0 1.4.2.5.2.8.5 1.1.9.3.4.6.8.7 1.3.2.6.3 1.1.3 1.7 0 1.4-.4 2.5-1 3.3-.8.8-1.6 1.2-2.6 1.2s-1.8-.4-2.3-1.2v1Zm0-4.2c0 1 .1 1.7.4 2.1.4.8 1 1.1 1.8 1.1a2 2 0 0 0 1.6-.8c.4-.5.6-1.3.6-2.4 0-1-.2-1.8-.6-2.4a2 2 0 0 0-1.6-.7 2 2 0 0 0-1.6.8c-.4.5-.6 1.3-.6 2.3Zm13.3 1.5 1.4.2c-.2.9-.6 1.5-1.2 2-.7.5-1.5.7-2.4.7-1.2 0-2.2-.4-2.9-1.1-.7-.8-1-1.8-1-3.2 0-1.4.3-2.5 1-3.2.7-.8 1.7-1.2 2.8-1.2 1.1 0 2 .4 2.7 1.1.7.8 1 1.9 1 3.2v.4h-6.1c0 1 .3 1.6.8 2.1.4.5 1 .7 1.7.7.5 0 1-.1 1.3-.4.4-.2.7-.7.9-1.3Zm-4.6-2.2h4.6c0-.7-.2-1.3-.5-1.6-.5-.6-1-.8-1.8-.8-.6 0-1.2.2-1.6.6-.4.5-.7 1-.7 1.8Zm13.6 4.9h-1.3V86.5h1.4v4.1c.6-.7 1.3-1 2.2-1 .5 0 1 0 1.5.2.4.2.8.5 1.1.9l.7 1.3c.2.6.2 1.1.2 1.7 0 1.4-.3 2.5-1 3.3-.7.8-1.6 1.2-2.5 1.2-1 0-1.8-.4-2.3-1.2v1Zm0-4.2c0 1 0 1.7.3 2.1.5.8 1 1.1 1.8 1.1a2 2 0 0 0 1.6-.8c.5-.5.7-1.3.7-2.4 0-1-.2-1.8-.6-2.4a2 2 0 0 0-3.2 0c-.4.6-.7 1.4-.7 2.4Zm7.5 4.2V86.5h1.4V98h-1.4Zm3.1-4.1c0-1.6.4-2.7 1.3-3.5.7-.6 1.6-.9 2.6-.9 1.1 0 2 .4 2.8 1.1.7.8 1 1.8 1 3.1 0 1.1 0 2-.4 2.6-.3.6-.8 1-1.4 1.4a4 4 0 0 1-2 .5c-1.2 0-2.1-.4-2.8-1.1-.7-.8-1-1.8-1-3.2Zm1.5 0c0 1 .2 1.8.6 2.3.5.6 1 .8 1.8.8.7 0 1.3-.2 1.7-.8.5-.5.7-1.3.7-2.4 0-1-.2-1.8-.7-2.3-.4-.6-1-.8-1.7-.8s-1.3.2-1.8.8c-.4.5-.6 1.3-.6 2.4Zm13.4 1 1.3.2c-.1 1-.5 1.7-1.1 2.3-.7.5-1.4.8-2.3.8-1.2 0-2-.4-2.8-1.1-.6-.8-1-1.8-1-3.2 0-1 .2-1.7.5-2.4a3 3 0 0 1 1.3-1.5 4 4 0 0 1 2-.5c.9 0 1.6.2 2.2.7.6.5 1 1.1 1.1 2l-1.4.2c-.1-.6-.3-1-.7-1.3-.3-.3-.7-.4-1.2-.4-.7 0-1.2.2-1.7.7-.4.5-.6 1.3-.6 2.4 0 1.2.2 2 .6 2.5.4.5 1 .7 1.7.7.5 0 1-.1 1.3-.5.4-.3.7-.8.8-1.5Zm2.5 3.1V86.5h1.5v6.6l3.3-3.4h1.8l-3.2 3 3.5 5.3h-1.7l-2.8-4.2-1 1V98H520Zm13.7-2.7 1.5.2c-.3.9-.7 1.5-1.3 2-.6.5-1.4.7-2.4.7-1.2 0-2.2-.4-2.9-1.1-.7-.8-1-1.8-1-3.2 0-1.4.3-2.5 1-3.2.8-.8 1.7-1.2 2.8-1.2 1.2 0 2 .4 2.8 1.1.7.8 1 1.9 1 3.2v.4H529c0 1 .3 1.6.8 2.1s1 .7 1.7.7c.5 0 1-.1 1.3-.4.4-.2.7-.7 1-1.3Zm-4.6-2.2h4.6c0-.7-.2-1.3-.5-1.6-.4-.6-1-.8-1.7-.8s-1.2.2-1.7.6c-.4.5-.7 1-.7 1.8Zm13.2 4.9v-1c-.5.8-1.3 1.2-2.3 1.2-.7 0-1.3-.2-1.8-.6-.6-.3-1-.8-1.3-1.5-.3-.6-.5-1.4-.5-2.2 0-.9.2-1.6.4-2.3a3.3 3.3 0 0 1 3.1-2 2.7 2.7 0 0 1 2.3 1v-4h1.4V98h-1.3Zm-4.4-4.1c0 1 .2 1.8.7 2.3.4.6 1 .8 1.5.8a2 2 0 0 0 1.6-.7c.4-.5.6-1.3.6-2.3 0-1.2-.2-2-.6-2.5a2 2 0 0 0-3.2 0c-.4.5-.6 1.3-.6 2.4Z"/></g><defs><clipPath id="a"><path fill="#fff" d="M0 0h545v184H0z"/></clipPath></defs></svg>