<svg xmlns="http://www.w3.org/2000/svg" width="746" height="433" fill="none"><path fill="#FFF5E1" d="M673 0H29a29 29 0 1 0 0 58h644a29 29 0 0 0 0-58Z"/><path stroke="#4D4D4D" stroke-width="2" d="M45 46v315"/><path stroke="#8B572A" stroke-width="2" d="M239 46v112"/><path stroke="#4A90E2" stroke-width="2" d="M215 46v186"/><path stroke="#67B279" stroke-width="2" d="M16 46v387"/><path fill="#67B279" fill-rule="evenodd" d="M16 46h24v4H16v-4Z" clip-rule="evenodd"/><path fill="#DF3812" fill-rule="evenodd" d="M190 46h20v4h-20v-4Z" clip-rule="evenodd"/><path stroke="#DF3812" stroke-width="2" d="M191 47v245"/><path fill="#4D4D4D" d="m208 261.3 1.4-.1c.1.6.3 1 .5 1.4.3.4.7.7 1.2.9.5.2 1 .3 1.7.3.6 0 1.1 0 1.6-.2l1-.7c.2-.3.3-.7.3-1 0-.4-.1-.7-.3-1l-1-.6-2.1-.6c-1-.2-1.8-.5-2.2-.7-.6-.3-1-.6-1.2-1-.3-.5-.4-1-.4-1.5 0-.6.1-1.1.4-1.6a3 3 0 0 1 1.5-1.2c.6-.2 1.3-.3 2-.3 1 0 1.7 0 2.3.4.7.2 1.2.6 1.5 1.2.4.5.6 1.1.6 1.8h-1.5c0-.6-.3-1.2-.8-1.6-.4-.3-1-.5-2-.5-.9 0-1.5.2-2 .5-.4.3-.6.7-.6 1.2 0 .4.2.8.5 1 .3.3 1 .6 2.2.8l2.6.8c.6.3 1.1.7 1.5 1.1.3.5.4 1 .4 1.7 0 .6-.1 1.2-.5 1.7-.3.5-.8 1-1.5 1.3-.6.2-1.4.4-2.2.4-1 0-2-.2-2.6-.5a3.7 3.7 0 0 1-2.3-3.4Zm16.7 1 1.5.2c-.3.9-.7 1.5-1.3 2-.6.5-1.4.7-2.4.7-1.2 0-2.2-.4-2.9-1.1-.7-.8-1-1.8-1-3.2 0-1.4.3-2.5 1-3.2.8-.8 1.7-1.2 2.8-1.2 1.1 0 2 .4 2.8 1.1.7.8 1 1.9 1 3.2v.4H220c0 1 .3 1.6.8 2.1.4.5 1 .7 1.7.7.5 0 1-.1 1.3-.4.4-.2.7-.7 1-1.3Zm-4.6-2.2h4.6c0-.7-.2-1.3-.5-1.6-.5-.6-1-.8-1.8-.8-.6 0-1.1.2-1.6.6-.4.5-.7 1-.7 1.8Zm7.8 8v-11.4h1.3v1l1-.9c.4-.2.9-.3 1.4-.3.7 0 1.4.2 1.9.6.5.3 1 .8 1.2 1.5.3.7.4 1.4.4 2.2 0 .8-.1 1.6-.4 2.3a3.4 3.4 0 0 1-3.2 2c-.4 0-.9 0-1.2-.2l-1-.8v4H228Zm1.3-7.2c0 1 .2 1.9.7 2.4.4.5 1 .7 1.5.7a2 2 0 0 0 1.6-.8c.5-.5.7-1.3.7-2.4 0-1-.2-1.9-.7-2.4a2 2 0 0 0-1.5-.8c-.6 0-1.1.3-1.6.9-.5.5-.7 1.3-.7 2.4Zm13 3c-.5.5-1 .8-1.5 1-.4.2-1 .3-1.5.3-1 0-1.6-.2-2.1-.7-.5-.4-.7-1-.7-1.7a2.3 2.3 0 0 1 1-2l1-.4 1.2-.2c1.2-.1 2-.3 2.5-.5v-.3c0-.6 0-1-.4-1.2-.3-.4-.8-.5-1.6-.5-.6 0-1.1.1-1.4.3-.3.3-.6.7-.7 1.3l-1.4-.2c.1-.6.3-1 .6-1.5.3-.3.7-.6 1.3-.8.5-.2 1.1-.3 1.8-.3a5 5 0 0 1 1.8.3c.4.1.7.3 1 .6.2.2.3.6.4 1v3.2l.1 2.4.4 1h-1.5a3 3 0 0 1-.2-1Zm0-3-2.4.5-1.2.2a1.2 1.2 0 0 0-.7 1.2c0 .3.1.7.4 1 .3.2.7.3 1.2.3.6 0 1-.1 1.5-.4.4-.2.7-.5 1-1l.1-1.3v-.6Zm3.5 4.1v-8.3h1.3v1.3c.3-.6.6-1 .9-1.2l.9-.3c.5 0 1 .2 1.4.5l-.4 1.3a2 2 0 0 0-1-.3c-.4 0-.7 0-1 .3-.2.1-.3.4-.4.7-.2.5-.3 1-.3 1.7v4.3h-1.4Zm10.8-1-1.5 1-1.6.2c-.9 0-1.6-.2-2-.7-.6-.4-.8-1-.8-1.7a2.3 2.3 0 0 1 1-2l1-.4 1.3-.2c1.1-.1 2-.3 2.5-.5v-.3c0-.6-.2-1-.4-1.2-.4-.4-1-.5-1.6-.5-.7 0-1.2.1-1.5.3-.3.3-.5.7-.7 1.3l-1.4-.2.7-1.5c.2-.3.7-.6 1.2-.8.5-.2 1.2-.3 1.9-.3a5 5 0 0 1 1.7.3c.5.1.8.3 1 .6.2.2.3.6.4 1v3.2l.2 2.4c0 .4.2.7.3 1h-1.4a3 3 0 0 1-.3-1Zm-.1-3.2-2.3.6-1.3.2a1.2 1.2 0 0 0-.7 1.2c0 .3.1.7.4 1 .3.2.7.3 1.3.3.5 0 1-.1 1.4-.4.4-.2.7-.5 1-1l.2-1.3v-.6Zm6.7 3 .2 1.2-1.1.1c-.5 0-1 0-1.2-.2-.3-.2-.5-.4-.6-.7a5 5 0 0 1-.2-1.6v-4.8h-1v-1.1h1v-2l1.4-.9v2.9h1.4v1.1h-1.4v4.8l.1.8.2.3.5.1h.7Zm.8-3c0-1.5.4-2.6 1.3-3.4.7-.6 1.6-.9 2.6-.9 1.1 0 2 .4 2.8 1.1.7.8 1 1.8 1 3.1 0 1.1 0 2-.4 2.6-.3.6-.8 1-1.4 1.4a4 4 0 0 1-2 .5c-1.2 0-2.1-.4-2.8-1.1-.7-.8-1-1.8-1-3.2Zm1.5 0c0 1.1.2 2 .7 2.4.4.6 1 .8 1.7.8s1.3-.2 1.7-.8c.5-.5.7-1.3.7-2.4 0-1-.2-1.8-.7-2.3-.4-.6-1-.8-1.7-.8s-1.3.2-1.8.8c-.4.5-.6 1.3-.6 2.4Zm8 4.2v-8.3h1.2v1.3c.3-.6.6-1 .9-1.2l.9-.3c.5 0 1 .2 1.4.5l-.5 1.3a2 2 0 0 0-1-.3c-.3 0-.6 0-.8.3-.3.1-.4.4-.5.7-.2.5-.3 1-.3 1.7v4.3h-1.4Zm15.1-3 1.4.1c-.1 1-.5 1.7-1.1 2.3-.7.5-1.4.8-2.3.8-1.2 0-2-.4-2.8-1.1-.7-.8-1-1.8-1-3.2 0-1 .1-1.7.4-2.4a3 3 0 0 1 1.4-1.5 4 4 0 0 1 2-.5c.9 0 1.6.2 2.2.7.6.5 1 1.1 1 2l-1.3.2c-.1-.6-.3-1-.7-1.3-.3-.3-.7-.4-1.2-.4-.7 0-1.3.2-1.7.7-.4.5-.7 1.3-.7 2.4 0 1.2.2 2 .7 2.5.4.5 1 .7 1.6.7.6 0 1-.1 1.4-.5.4-.3.6-.8.7-1.5Zm2.6 3v-11.5h1.4v4.2c.7-.8 1.5-1.2 2.5-1.2.6 0 1.2.1 1.6.4.5.2.8.6 1 1 .2.4.3 1 .3 1.8v5.3h-1.4v-5.3c0-.7-.2-1.2-.5-1.5-.3-.3-.7-.5-1.3-.5-.4 0-.8.1-1.2.4-.3.2-.6.5-.7.8a4 4 0 0 0-.3 1.6v4.5h-1.4Zm14.3-1-1.5 1-1.5.2c-1 0-1.6-.2-2.1-.7-.5-.4-.8-1-.8-1.7a2.3 2.3 0 0 1 1-2l1-.4 1.3-.2c1.2-.1 2-.3 2.5-.5v-.3c0-.6-.1-1-.4-1.2-.3-.4-.9-.5-1.6-.5-.6 0-1.1.1-1.4.3-.3.3-.6.7-.7 1.3l-1.4-.2c.1-.6.3-1 .6-1.5.3-.3.7-.6 1.3-.8.5-.2 1.1-.3 1.8-.3a5 5 0 0 1 1.8.3c.4.1.7.3 1 .6l.4 1v3.2l.1 2.4c0 .4.2.7.4 1h-1.5a3 3 0 0 1-.3-1Zm0-3.2-2.4.6-1.2.2a1.2 1.2 0 0 0-.3 2.1c.3.3.7.4 1.2.4.6 0 1-.1 1.5-.4.4-.2.7-.5.9-1l.2-1.3v-.6Zm3.5 4.2v-8.3h1.3v1.3c.3-.6.6-1 .9-1.2.2-.2.6-.3.9-.3.5 0 1 .2 1.4.5l-.5 1.3a2 2 0 0 0-1-.3c-.3 0-.6 0-.8.3-.3.1-.4.4-.5.7-.2.5-.3 1-.3 1.7v4.3H309Zm10.8-1-1.5 1-1.6.2c-.9 0-1.6-.2-2-.7-.6-.4-.8-1-.8-1.7a2.3 2.3 0 0 1 1-2l1-.4 1.3-.2 2.5-.5v-.3c0-.6-.2-1-.4-1.2-.4-.4-1-.5-1.6-.5-.7 0-1.2.1-1.5.3-.3.3-.5.7-.7 1.3l-1.4-.2.6-1.5c.3-.3.7-.6 1.3-.8.5-.2 1.2-.3 1.9-.3a5 5 0 0 1 1.7.3c.4.1.8.3 1 .6.2.2.3.6.4 1v3.2l.2 2.4c0 .4.1.7.3 1H320a3 3 0 0 1-.3-1Zm-.1-3.2-2.3.6-1.3.2a1.2 1.2 0 0 0-.7 1.2c0 .3.1.7.4 1 .3.2.7.3 1.3.3.5 0 1-.1 1.4-.4.4-.2.7-.5 1-1l.2-1.3v-.6Zm9 1.2 1.4.1c-.2 1-.6 1.7-1.2 2.3-.6.5-1.4.8-2.3.8-1.1 0-2-.4-2.7-1.1-.7-.8-1-1.8-1-3.2 0-1 0-1.7.4-2.4a3 3 0 0 1 1.3-1.5 4 4 0 0 1 2-.5c1 0 1.7.2 2.2.7.6.5 1 1.1 1.1 2l-1.3.2c-.2-.6-.4-1-.7-1.3-.4-.3-.8-.4-1.2-.4-.7 0-1.3.2-1.8.7-.4.5-.6 1.3-.6 2.4 0 1.2.2 2 .6 2.5.5.5 1 .7 1.7.7.5 0 1-.1 1.4-.5.3-.3.6-.8.7-1.5Zm5.6 1.7.2 1.3-1 .1c-.5 0-1 0-1.2-.2-.3-.2-.5-.4-.6-.7a5 5 0 0 1-.2-1.6v-4.8h-1v-1.1h1v-2l1.4-.9v2.9h1.4v1.1h-1.4v5.6l.3.3.5.1h.6Zm7.1-1.4 1.5.2c-.3.9-.7 1.5-1.3 2-.6.5-1.4.7-2.4.7-1.2 0-2.2-.4-2.9-1.1-.7-.8-1-1.8-1-3.2 0-1.4.3-2.5 1-3.2.7-.8 1.7-1.2 2.8-1.2 1.1 0 2 .4 2.7 1.1.7.8 1.1 1.9 1.1 3.2v.4h-6.2c0 1 .3 1.6.8 2.1.4.5 1 .7 1.7.7.5 0 1-.1 1.3-.4.4-.2.7-.7.9-1.3Zm-4.6-2.2h4.6c0-.7-.2-1.3-.5-1.6-.5-.6-1-.8-1.8-.8-.6 0-1.1.2-1.6.6-.4.5-.7 1-.7 1.8Zm7.8 4.9v-8.3h1.3v1.3c.3-.6.6-1 .9-1.2.2-.2.5-.3.9-.3s1 .2 1.4.5l-.5 1.3a2 2 0 0 0-1-.3c-.3 0-.6 0-.8.3-.3.1-.4.4-.5.7-.2.5-.3 1-.3 1.7v4.3h-1.4Z"/><path fill="#4A90E2" fill-rule="evenodd" d="M214 46h20v4h-20v-4Z" clip-rule="evenodd"/><path fill="#8B572A" fill-rule="evenodd" d="M238 46h431v4H238v-4Z" clip-rule="evenodd"/><path fill="#4D4D4D" d="m63.6 348-4.4-11.5h1.6l3 8.4.6 1.8.6-1.8 3.1-8.4h1.5L65.2 348h-1.6Zm12-2.7 1.5.2c-.3.9-.7 1.5-1.3 2-.6.5-1.4.7-2.4.7-1.2 0-2.2-.4-2.9-1.1-.7-.8-1-1.8-1-3.2 0-1.4.3-2.5 1-3.2.8-.8 1.7-1.2 2.8-1.2 1.2 0 2 .4 2.8 1.1.7.8 1 1.9 1 3.2v.4H71c0 1 .3 1.6.8 2.1s1 .7 1.7.7c.5 0 1-.1 1.3-.4.4-.2.7-.7 1-1.3Zm-4.6-2.2h4.6c0-.7-.2-1.3-.5-1.6-.4-.6-1-.8-1.7-.8s-1.2.2-1.7.6c-.4.5-.7 1-.7 1.8Zm7.8 4.9v-8.3h1.3v1.3c.3-.6.6-1 .9-1.2l.9-.3c.5 0 1 .2 1.4.5l-.5 1.3a2 2 0 0 0-1-.3c-.3 0-.6 0-.8.3-.3.1-.4.4-.5.7-.2.5-.3 1-.3 1.7v4.3h-1.4Zm6.7 0h-1.3v-11.5h1.4v4.1c.6-.7 1.3-1 2.2-1 .6 0 1 0 1.5.2.4.2.8.5 1.1.9l.7 1.3c.2.6.3 1.1.3 1.7 0 1.4-.4 2.5-1.1 3.3-.7.8-1.5 1.2-2.5 1.2s-1.8-.4-2.3-1.2v1Zm0-4.2c0 1 0 1.7.4 2.1.4.8 1 1.1 1.8 1.1a2 2 0 0 0 1.5-.8c.5-.5.7-1.3.7-2.4 0-1-.2-1.8-.6-2.4a2 2 0 0 0-3.2 0c-.4.6-.6 1.4-.6 2.4Zm13 3.2-1.5 1-1.6.2c-.9 0-1.6-.2-2-.7-.6-.4-.8-1-.8-1.7a2.3 2.3 0 0 1 1-2l1-.4 1.3-.2c1.1-.1 2-.3 2.5-.5v-.3c0-.6-.2-1-.4-1.2-.4-.4-1-.5-1.6-.5-.7 0-1.2.1-1.5.3-.3.3-.5.7-.7 1.3l-1.4-.2.7-1.5c.2-.3.7-.6 1.2-.8.5-.2 1.2-.3 1.9-.3a5 5 0 0 1 1.7.3c.5.1.8.3 1 .6.2.2.3.6.4 1l.1 1.2v4.4l.4 1h-1.4a3 3 0 0 1-.3-1Zm-.1-3.2-2.3.6-1.3.2a1.2 1.2 0 0 0-.7 1.2c0 .3.1.7.4 1 .3.2.7.3 1.3.3.5 0 1-.1 1.4-.4.4-.2.7-.5 1-1l.2-1.3v-.6Zm6.7 3 .2 1.2-1.1.1c-.5 0-1 0-1.2-.2-.3-.2-.5-.4-.6-.7a5 5 0 0 1-.2-1.6v-4.8h-1v-1.1h1v-2l1.4-.9v2.9h1.5v1.1h-1.5v4.8l.1.8.3.3.4.1h.7Zm1.3-8.6v-1.7h1.4v1.7h-1.4Zm0 9.8v-8.3h1.4v8.3h-1.4Zm3.6 0v-8.3h1.3v1.2a3 3 0 0 1 2.5-1.4c.6 0 1 .1 1.5.4.4.3.7.6.8 1a3 3 0 0 1 2.6-1.4c.8 0 1.4.2 1.9.7.4.5.6 1.2.6 2.1v5.7h-1.4v-5.2l-.1-1.2c0-.3-.3-.5-.5-.6-.2-.2-.5-.3-.8-.3a2 2 0 0 0-1.5.6c-.4.4-.6 1-.6 1.9v4.8H115v-5.4c0-.6 0-1-.3-1.4-.2-.3-.6-.5-1.1-.5a2 2 0 0 0-1.1.3c-.4.3-.6.6-.8 1l-.2 1.7v4.3H110Zm20.8-1.3.3 1.3-1.1.1c-.5 0-1 0-1.2-.2-.3-.2-.5-.4-.6-.7a5 5 0 0 1-.2-1.6v-4.8h-1v-1.1h1v-2l1.4-.9v2.9h1.4v1.1h-1.4v4.8l.1.8.2.3.5.1h.7Zm7.1-1.4 1.5.2c-.3.9-.7 1.5-1.3 2-.6.5-1.4.7-2.4.7-1.2 0-2.2-.4-2.9-1.1-.7-.8-1-1.8-1-3.2 0-1.4.3-2.5 1-3.2.8-.8 1.7-1.2 2.8-1.2 1.1 0 2 .4 2.8 1.1.7.8 1 1.9 1 3.2v.4h-6.2c0 1 .3 1.6.8 2.1s1 .7 1.7.7c.5 0 1-.1 1.3-.4.4-.2.7-.7 1-1.3Zm-4.6-2.2h4.6c0-.7-.2-1.3-.5-1.6-.5-.6-1-.8-1.7-.8s-1.2.2-1.7.6c-.4.5-.7 1-.7 1.8Zm6.9 4.9 3-4.3-2.8-4h1.8l1.3 2 .5.9.7-1 1.4-1.9h1.6l-2.8 4 3 4.3h-1.7l-1.7-2.6-.4-.7-2.2 3.3h-1.7Zm12-1.3.2 1.3-1 .1c-.6 0-1 0-1.2-.2-.3-.2-.5-.4-.6-.7a5 5 0 0 1-.2-1.6v-4.8h-1v-1.1h1v-2l1.4-.9v2.9h1.4v1.1h-1.4v5.6l.3.3.5.1h.6Zm1.8 1.3v-1.6h1.6v1.6H154Zm11.3 0v-10.1h-3.8v-1.4h9.1v1.4h-3.8V348h-1.5Zm6.7 0v-11.5h1.4v4.2c.6-.8 1.5-1.2 2.5-1.2.6 0 1.1.1 1.6.4.4.2.8.6 1 1l.2 1.8v5.3h-1.4v-5.3c0-.7-.1-1.2-.4-1.5-.3-.3-.8-.5-1.3-.5-.4 0-.8.1-1.2.4-.4.2-.6.5-.8.8a4 4 0 0 0-.2 1.6v4.5H172Zm8.9-9.8v-1.7h1.4v1.7h-1.4Zm0 9.8v-8.3h1.4v8.3h-1.4Zm3-2.5 1.4-.2c0 .6.3 1 .6 1.3.4.3.9.4 1.5.4.7 0 1.2-.1 1.5-.4.3-.2.4-.5.4-.9 0-.3-.1-.6-.4-.7-.2-.2-.7-.3-1.4-.5l-2.2-.7c-.4-.2-.7-.4-.9-.8-.2-.3-.3-.7-.3-1 0-.5.1-.8.3-1.1.1-.3.4-.6.7-.8.2-.2.5-.3.9-.4l1.2-.2c.6 0 1.2.1 1.7.3.5.2.8.4 1 .8.3.3.5.7.6 1.2l-1.4.2c0-.4-.3-.7-.6-1a2 2 0 0 0-1.2-.3c-.7 0-1.1 0-1.4.3-.3.2-.4.5-.4.7 0 .2 0 .4.2.5 0 .2.2.3.5.4l1.2.4 2.1.6c.4.2.7.4 1 .8.2.3.3.7.3 1.2 0 .4-.2.9-.4 1.3-.3.4-.7.7-1.2 1-.5.2-1.1.3-1.8.3a4 4 0 0 1-2.4-.7c-.6-.4-1-1.1-1.1-2Zm16 1.2.3 1.3-1 .1c-.6 0-1 0-1.3-.2-.3-.2-.5-.4-.6-.7a5 5 0 0 1-.1-1.6v-4.8h-1v-1.1h1v-2l1.4-.9v2.9h1.4v1.1h-1.4v5.6l.3.3.5.1h.6Zm7.1-1.4 1.5.2c-.2.9-.7 1.5-1.3 2-.6.5-1.4.7-2.4.7-1.2 0-2.1-.4-2.8-1.1-.8-.8-1.1-1.8-1.1-3.2 0-1.4.3-2.5 1-3.2.8-.8 1.7-1.2 2.9-1.2 1 0 2 .4 2.7 1.1.7.8 1 1.9 1 3.2v.4h-6.2c0 1 .4 1.6.8 2.1.5.5 1 .7 1.8.7.5 0 1-.1 1.3-.4.3-.2.6-.7.8-1.3Zm-4.6-2.2h4.7c-.1-.7-.3-1.3-.6-1.6-.4-.6-1-.8-1.7-.8s-1.2.2-1.7.6c-.4.5-.6 1-.7 1.8Zm7 4.9 3-4.3-2.8-4h1.7l1.3 2 .6.9.6-1 1.4-1.9h1.7l-2.9 4 3 4.3h-1.6l-1.7-2.6-.5-.7-2.2 3.3h-1.7Zm12-1.3.1 1.3-1 .1c-.5 0-1 0-1.2-.2-.3-.2-.5-.4-.6-.7a5 5 0 0 1-.2-1.6v-4.8h-1v-1.1h1v-2l1.4-.9v2.9h1.4v1.1H220v5.6l.3.3.5.1h.6Zm5.8 1.3v-8.3h1.2v1.2a3 3 0 0 1 2.5-1.4c.7 0 1.2.1 1.6.4l.8 1a3 3 0 0 1 2.5-1.4c.9 0 1.5.2 2 .7.4.5.6 1.2.6 2.1v5.7H237v-5.2l-.1-1.2c-.1-.3-.3-.5-.5-.6-.3-.2-.5-.3-.9-.3a2 2 0 0 0-1.4.6c-.4.4-.6 1-.6 1.9v4.8h-1.4v-5.4c0-.6-.1-1-.3-1.4-.3-.3-.6-.5-1.2-.5a2 2 0 0 0-1 .3c-.4.3-.6.6-.8 1l-.2 1.7v4.3h-1.4Zm18.7 0v-1.2a3 3 0 0 1-2.6 1.4c-.5 0-1-.1-1.4-.3l-1-.7c-.1-.3-.3-.6-.3-1l-.1-1.4v-5.1h1.4v6.1c.1.4.3.7.6.9.3.2.7.3 1 .3.5 0 .9-.1 1.3-.3l.8-1 .2-1.6v-4.4h1.4v8.3h-1.3Zm3-2.5 1.3-.2c.1.6.3 1 .7 1.3.3.3.8.4 1.5.4.6 0 1.1-.1 1.4-.4.3-.2.5-.5.5-.9 0-.3-.2-.6-.4-.7a6 6 0 0 0-1.5-.5l-2.1-.7c-.4-.2-.7-.4-1-.8l-.2-1c0-.5 0-.8.2-1.1l.7-.8c.2-.2.5-.3 1-.4l1.1-.2c.7 0 1.3.1 1.7.3.5.2.9.4 1.1.8.3.3.4.7.5 1.2l-1.4.2c0-.4-.2-.7-.5-1a2 2 0 0 0-1.3-.3c-.6 0-1 0-1.3.3-.3.2-.5.5-.5.7 0 .2 0 .4.2.5l.5.4 1.3.4 2 .6c.5.2.8.4 1 .8.2.3.3.7.3 1.2 0 .4-.1.9-.4 1.3-.3.4-.6.7-1.2 1-.5.2-1 .3-1.7.3a4 4 0 0 1-2.5-.7c-.5-.4-.9-1.1-1-2Zm11.6 1.2.2 1.3-1 .1c-.6 0-1 0-1.3-.2-.3-.2-.5-.4-.6-.7a5 5 0 0 1-.1-1.6v-4.8h-1v-1.1h1v-2l1.4-.9v2.9h1.4v1.1H259v5.6l.3.3.5.1h.6Zm7.1 1.3h-1.3v-11.5h1.4v4.1c.6-.7 1.4-1 2.3-1 .5 0 1 0 1.4.2.5.2.9.5 1.2.9.3.4.5.8.6 1.3.2.6.3 1.1.3 1.7 0 1.4-.4 2.5-1 3.3-.8.8-1.6 1.2-2.6 1.2s-1.7-.4-2.3-1.2v1Zm0-4.2c0 1 .1 1.7.4 2.1.4.8 1 1.1 1.8 1.1a2 2 0 0 0 1.6-.8c.4-.5.7-1.3.7-2.4 0-1-.3-1.8-.7-2.4a2 2 0 0 0-3.1 0c-.5.6-.7 1.4-.7 2.4Zm13.3 1.5 1.5.2c-.3.9-.7 1.5-1.3 2-.6.5-1.4.7-2.4.7-1.2 0-2.2-.4-2.9-1.1-.7-.8-1-1.8-1-3.2 0-1.4.3-2.5 1-3.2.7-.8 1.7-1.2 2.8-1.2 1.1 0 2 .4 2.7 1.1.7.8 1.1 1.9 1.1 3.2v.4h-6.2c0 1 .3 1.6.8 2.1.4.5 1 .7 1.7.7.5 0 1-.1 1.3-.4.4-.2.7-.7.9-1.3Zm-4.6-2.2h4.6c0-.7-.2-1.3-.5-1.6-.5-.6-1-.8-1.8-.8-.6 0-1.2.2-1.6.6-.4.5-.7 1-.7 1.8Zm12.3 8v-11.4h1.3v1c.3-.3.6-.7 1-.9.4-.2.8-.3 1.4-.3.7 0 1.3.2 1.8.6.6.3 1 .8 1.3 1.5.2.7.4 1.4.4 2.2 0 .8-.2 1.6-.5 2.3a3.4 3.4 0 0 1-3.1 2c-.5 0-1 0-1.3-.2l-1-.8v4h-1.3Zm1.3-7.2c0 1 .2 1.9.6 2.4.4.5 1 .7 1.6.7a2 2 0 0 0 1.6-.8c.4-.5.6-1.3.6-2.4 0-1-.2-1.9-.6-2.4a2 2 0 0 0-1.6-.8c-.6 0-1.1.3-1.6.9-.4.5-.6 1.3-.6 2.4Zm7.6 4.1v-8.3h1.2v1.3c.4-.6.7-1 1-1.2.2-.2.5-.3.8-.3.5 0 1 .2 1.5.5l-.5 1.3a2 2 0 0 0-1-.3c-.3 0-.6 0-.9.3-.2.1-.4.4-.5.7l-.2 1.7v4.3h-1.4Zm11-2.7 1.4.2c-.2.9-.6 1.5-1.2 2s-1.4.7-2.4.7c-1.2 0-2.2-.4-2.9-1.1-.7-.8-1-1.8-1-3.2 0-1.4.3-2.5 1-3.2.7-.8 1.7-1.2 2.8-1.2 1.1 0 2 .4 2.7 1.1.7.8 1 1.9 1 3.2v.4h-6.1c0 1 .3 1.6.8 2.1.4.5 1 .7 1.7.7.5 0 1-.1 1.3-.4.4-.2.7-.7.9-1.3Zm-4.6-2.2h4.6c0-.7-.2-1.3-.5-1.6-.5-.6-1-.8-1.8-.8-.6 0-1.2.2-1.6.6-.4.5-.7 1-.7 1.8Zm7.3 2.4 1.3-.2c.1.6.3 1 .7 1.3.4.3.9.4 1.5.4s1.1-.1 1.4-.4c.3-.2.5-.5.5-.9 0-.3-.1-.6-.4-.7-.2-.2-.7-.3-1.5-.5l-2.1-.7c-.4-.2-.7-.4-1-.8l-.2-1c0-.5 0-.8.2-1.1l.7-.8 1-.4 1.1-.2c.7 0 1.3.1 1.8.3.4.2.8.4 1 .8.3.3.4.7.5 1.2l-1.3.2c-.1-.4-.3-.7-.6-1a2 2 0 0 0-1.3-.3c-.6 0-1 0-1.3.3-.3.2-.5.5-.5.7l.2.5c.1.2.3.3.6.4l1.2.4 2 .6c.5.2.8.4 1 .8.2.3.3.7.3 1.2 0 .4 0 .9-.4 1.3-.2.4-.6.7-1.1 1-.6.2-1.1.3-1.8.3a4 4 0 0 1-2.5-.7c-.5-.4-.9-1.1-1-2Zm14.2-.2 1.5.2c-.3.9-.7 1.5-1.3 2-.6.5-1.4.7-2.4.7-1.2 0-2.2-.4-2.9-1.1-.7-.8-1-1.8-1-3.2 0-1.4.3-2.5 1-3.2.7-.8 1.7-1.2 2.8-1.2 1.1 0 2 .4 2.7 1.1.7.8 1.1 1.9 1.1 3.2v.4h-6.2c0 1 .3 1.6.8 2.1.4.5 1 .7 1.7.7.5 0 1-.1 1.3-.4.4-.2.7-.7.9-1.3Zm-4.6-2.2h4.6c0-.7-.2-1.3-.5-1.6-.5-.6-1-.8-1.8-.8-.6 0-1.2.2-1.6.6-.4.5-.7 1-.7 1.8Zm7.8 4.9v-8.3h1.3v1.2a3 3 0 0 1 2.6-1.4c.5 0 1 .1 1.4.3l1 .7.4 1v6.5H334v-5l-.2-1.3c-.1-.3-.3-.5-.6-.7-.3-.2-.6-.3-1-.3-.6 0-1 .2-1.5.6-.5.4-.7 1.1-.7 2.2v4.5h-1.4Zm12-1.3.2 1.3-1 .1c-.6 0-1 0-1.2-.2-.3-.2-.5-.4-.6-.7a5 5 0 0 1-.2-1.6v-4.8h-1v-1.1h1v-2l1.4-.9v2.9h1.4v1.1h-1.4v5.6l.3.3.5.1h.6Zm5.8-8.5v-1.7h1.5v1.7h-1.5Zm0 9.8v-8.3h1.5v8.3h-1.5Zm3.6 0v-8.3h1.3v1.2a3 3 0 0 1 2.6-1.4c.5 0 1 .1 1.4.3l1 .7.4 1v6.5h-1.4v-5l-.1-1.3c-.1-.3-.3-.5-.6-.7-.3-.2-.6-.3-1-.3-.6 0-1.1.2-1.5.6-.5.4-.7 1.1-.7 2.2v4.5H350Zm16.4-1.3.2 1.3-1 .1c-.5 0-1 0-1.2-.2-.3-.2-.5-.4-.6-.7a5 5 0 0 1-.2-1.6v-4.8h-1v-1.1h1v-2l1.4-.9v2.9h1.4v1.1H365v5.6l.3.3.5.1h.6Zm1.4 1.3v-11.5h1.4v4.2c.7-.8 1.5-1.2 2.5-1.2.6 0 1.2.1 1.6.4.5.2.8.6 1 1 .2.4.3 1 .3 1.8v5.3h-1.4v-5.3c0-.7-.2-1.2-.5-1.5-.3-.3-.7-.5-1.3-.5-.4 0-.8.1-1.2.4-.3.2-.6.5-.7.8a4 4 0 0 0-.3 1.6v4.5h-1.4Zm14.6-2.7 1.5.2c-.3.9-.7 1.5-1.3 2-.6.5-1.4.7-2.4.7-1.2 0-2.2-.4-2.9-1.1-.7-.8-1-1.8-1-3.2 0-1.4.3-2.5 1-3.2.7-.8 1.7-1.2 2.8-1.2 1.1 0 2 .4 2.7 1.1.7.8 1.1 1.9 1.1 3.2v.4h-6.2c0 1 .3 1.6.8 2.1.4.5 1 .7 1.7.7.5 0 1-.1 1.3-.4.4-.2.7-.7.9-1.3Zm-4.6-2.2h4.6c0-.7-.2-1.3-.5-1.6-.5-.6-1-.8-1.8-.8-.6 0-1.2.2-1.6.6-.4.5-.7 1-.7 1.8Zm17.7 3.9-1.5 1-1.6.2c-.9 0-1.6-.2-2-.7-.6-.4-.8-1-.8-1.7a2.3 2.3 0 0 1 1-2l1-.4 1.3-.2c1.1-.1 2-.3 2.5-.5v-.3c0-.6-.2-1-.4-1.2-.4-.4-1-.5-1.6-.5-.7 0-1.2.1-1.5.3-.3.3-.5.7-.7 1.3l-1.4-.2.7-1.5c.2-.3.7-.6 1.2-.8.5-.2 1.2-.3 1.9-.3a5 5 0 0 1 1.7.3c.5.1.8.3 1 .6.2.2.3.6.4 1l.1 1.2v4.4l.4 1h-1.4a3 3 0 0 1-.3-1Zm-.1-3.2-2.3.6-1.3.2a1.2 1.2 0 0 0-.3 2.1c.3.3.7.4 1.3.4.5 0 1-.1 1.4-.4.4-.2.7-.5 1-1l.2-1.3v-.6Zm9 4.2v-1c-.6.8-1.3 1.2-2.4 1.2a3.6 3.6 0 0 1-3.1-2c-.3-.7-.4-1.5-.4-2.3 0-.9.1-1.6.4-2.3a3.3 3.3 0 0 1 4.4-1.8c.4.2.7.5 1 .9v-4.2h1.4V348h-1.3Zm-4.5-4.1c0 1 .2 1.8.7 2.3.4.6 1 .8 1.6.8a2 2 0 0 0 1.5-.7c.5-.5.7-1.3.7-2.3 0-1.2-.2-2-.7-2.5a2 2 0 0 0-3.2 0c-.4.5-.6 1.3-.6 2.4Zm13.4 4.1v-1c-.6.8-1.3 1.2-2.3 1.2a3.6 3.6 0 0 1-3.1-2c-.4-.7-.5-1.5-.5-2.3 0-.9.1-1.6.4-2.3a3.3 3.3 0 0 1 4.4-1.8c.4.2.7.5 1 .9v-4.2h1.4V348h-1.3Zm-4.5-4.1c0 1 .3 1.8.7 2.3.4.6 1 .8 1.6.8a2 2 0 0 0 1.5-.7c.5-.5.7-1.3.7-2.3 0-1.2-.2-2-.7-2.5a2 2 0 0 0-3.1 0c-.5.5-.7 1.3-.7 2.4Zm8 4.1v-8.3h1.2v1.3c.4-.6.7-1 1-1.2.2-.2.5-.3.8-.3.5 0 1 .2 1.5.5l-.5 1.3a2 2 0 0 0-1-.3c-.3 0-.6 0-.9.3-.2.1-.4.4-.5.7l-.2 1.7v4.3h-1.4Zm11-2.7 1.5.2c-.3.9-.7 1.5-1.3 2-.6.5-1.4.7-2.4.7-1.2 0-2.2-.4-2.9-1.1-.7-.8-1-1.8-1-3.2 0-1.4.3-2.5 1-3.2.8-.8 1.7-1.2 2.8-1.2 1.1 0 2 .4 2.7 1.1.8.8 1.1 1.9 1.1 3.2v.4h-6.2c0 1 .3 1.6.8 2.1.4.5 1 .7 1.7.7.5 0 1-.1 1.3-.4.4-.2.7-.7.9-1.3Zm-4.6-2.2h4.6c0-.7-.2-1.3-.5-1.6-.5-.6-1-.8-1.8-.8-.6 0-1.1.2-1.6.6-.4.5-.7 1-.7 1.8Zm7.3 2.4 1.4-.2c0 .6.3 1 .6 1.3.4.3.9.4 1.5.4.7 0 1.1-.1 1.4-.4.4-.2.5-.5.5-.9 0-.3-.1-.6-.4-.7a6 6 0 0 0-1.4-.5l-2.2-.7c-.4-.2-.7-.4-.9-.8-.2-.3-.3-.7-.3-1 0-.5 0-.8.3-1.1l.6-.8 1-.4 1.2-.2c.6 0 1.2.1 1.7.3.5.2.8.4 1 .8.3.3.5.7.5 1.2l-1.3.2c0-.4-.3-.7-.6-1a2 2 0 0 0-1.2-.3c-.7 0-1.1 0-1.4.3-.3.2-.4.5-.4.7l.1.5c.1.2.3.3.6.4l1.2.4 2 .6c.5.2.8.4 1 .8.2.3.4.7.4 1.2 0 .4-.2.9-.5 1.3-.2.4-.6.7-1.1 1-.6.2-1.1.3-1.8.3a4 4 0 0 1-2.5-.7c-.5-.4-.9-1.1-1-2Zm8 0 1.4-.2c0 .6.3 1 .6 1.3.4.3.9.4 1.5.4.7 0 1.1-.1 1.4-.4.4-.2.5-.5.5-.9 0-.3-.1-.6-.4-.7a6 6 0 0 0-1.4-.5l-2.2-.7c-.4-.2-.7-.4-.9-.8-.2-.3-.3-.7-.3-1 0-.5 0-.8.3-1.1l.6-.8 1-.4 1.2-.2c.6 0 1.2.1 1.7.3.5.2.8.4 1 .8.3.3.5.7.5 1.2l-1.3.2c0-.4-.3-.7-.6-1a2 2 0 0 0-1.2-.3c-.7 0-1.1 0-1.4.3-.3.2-.4.5-.4.7l.1.5c.1.2.3.3.6.4l1.2.4 2 .6c.5.2.8.4 1 .8.2.3.4.7.4 1.2 0 .4-.2.9-.5 1.3-.2.4-.6.7-1.1 1-.6.2-1.1.3-1.8.3a4 4 0 0 1-2.5-.7c-.5-.4-.9-1.1-1-2Zm16 1.2.3 1.3-1.1.1c-.5 0-1 0-1.2-.2-.3-.2-.5-.4-.6-.7a5 5 0 0 1-.2-1.6v-4.8h-1v-1.1h1v-2l1.4-.9v2.9h1.5v1.1H453v4.8l.1.8.3.3.4.1h.7Zm1-2.8c0-1.6.3-2.7 1.2-3.5.7-.6 1.6-.9 2.6-.9 1.1 0 2 .4 2.8 1.1.7.8 1 1.8 1 3.1 0 1.1 0 2-.4 2.6-.3.6-.8 1-1.4 1.4a4 4 0 0 1-2 .5c-1.2 0-2.1-.4-2.8-1.1-.7-.8-1-1.8-1-3.2Zm1.4 0c0 1 .2 1.8.7 2.3.4.6 1 .8 1.7.8s1.3-.2 1.7-.8c.5-.5.7-1.3.7-2.4 0-1-.2-1.8-.7-2.3-.4-.6-1-.8-1.7-.8s-1.3.2-1.7.8c-.5.5-.7 1.3-.7 2.4Zm13.7 4.1h-1.3v-11.5h1.4v4.1c.6-.7 1.3-1 2.3-1 .5 0 1 0 1.4.2.5.2.8.5 1.1.9.3.4.6.8.7 1.3.2.6.3 1.1.3 1.7 0 1.4-.4 2.5-1 3.3-.8.8-1.6 1.2-2.6 1.2s-1.8-.4-2.3-1.2v1Zm0-4.2c0 1 .1 1.7.4 2.1.4.8 1 1.1 1.8 1.1a2 2 0 0 0 1.6-.8c.4-.5.6-1.3.6-2.4 0-1-.2-1.8-.6-2.4a2 2 0 0 0-1.6-.7 2 2 0 0 0-1.6.8c-.4.5-.6 1.3-.6 2.3Zm13.3 1.5 1.4.2c-.2.9-.6 1.5-1.2 2-.7.5-1.5.7-2.4.7-1.2 0-2.2-.4-2.9-1.1-.7-.8-1-1.8-1-3.2 0-1.4.3-2.5 1-3.2.7-.8 1.7-1.2 2.8-1.2 1.1 0 2 .4 2.7 1.1.7.8 1 1.9 1 3.2v.4h-6.1c0 1 .3 1.6.8 2.1.4.5 1 .7 1.7.7.5 0 1-.1 1.3-.4.4-.2.7-.7.9-1.3Zm-4.6-2.2h4.6c0-.7-.2-1.3-.5-1.6-.5-.6-1-.8-1.8-.8-.6 0-1.2.2-1.6.6-.4.5-.7 1-.7 1.8Zm13.6 4.9h-1.3v-11.5h1.4v4.1c.6-.7 1.3-1 2.2-1 .5 0 1 0 1.5.2.4.2.8.5 1.1.9l.7 1.3c.2.6.2 1.1.2 1.7 0 1.4-.3 2.5-1 3.3-.7.8-1.6 1.2-2.5 1.2-1 0-1.8-.4-2.3-1.2v1Zm0-4.2c0 1 0 1.7.3 2.1.5.8 1 1.1 1.8 1.1a2 2 0 0 0 1.6-.8c.5-.5.7-1.3.7-2.4 0-1-.2-1.8-.6-2.4a2 2 0 0 0-3.2 0c-.4.6-.7 1.4-.7 2.4Zm7.5 4.2v-11.5h1.4V348h-1.4Zm3.1-4.1c0-1.6.4-2.7 1.3-3.5.7-.6 1.6-.9 2.6-.9 1.1 0 2 .4 2.8 1.1.7.8 1 1.8 1 3.1 0 1.1 0 2-.4 2.6-.3.6-.8 1-1.4 1.4a4 4 0 0 1-2 .5c-1.2 0-2.1-.4-2.8-1.1-.7-.8-1-1.8-1-3.2Zm1.5 0c0 1 .2 1.8.6 2.3.5.6 1 .8 1.8.8.7 0 1.3-.2 1.7-.8.5-.5.7-1.3.7-2.4 0-1-.2-1.8-.7-2.3-.4-.6-1-.8-1.7-.8s-1.3.2-1.8.8c-.4.5-.6 1.3-.6 2.4Zm13.4 1 1.3.2c-.1 1-.5 1.7-1.1 2.3-.7.5-1.4.8-2.3.8-1.2 0-2-.4-2.8-1.1-.6-.8-1-1.8-1-3.2 0-1 .2-1.7.5-2.4a3 3 0 0 1 1.3-1.5 4 4 0 0 1 2-.5c.9 0 1.6.2 2.2.7.6.5 1 1.1 1.1 2l-1.4.2c-.1-.6-.3-1-.7-1.3-.3-.3-.7-.4-1.2-.4-.7 0-1.2.2-1.7.7-.4.5-.6 1.3-.6 2.4 0 1.2.2 2 .6 2.5.4.5 1 .7 1.7.7.5 0 1-.1 1.3-.5.4-.3.7-.8.8-1.5Zm2.5 3.1v-11.5h1.5v6.6l3.3-3.4h1.8l-3.2 3 3.5 5.3h-1.7l-2.8-4.2-1 1v3.2H521Zm13.7-2.7 1.5.2c-.3.9-.7 1.5-1.3 2-.6.5-1.4.7-2.4.7-1.2 0-2.2-.4-2.9-1.1-.7-.8-1-1.8-1-3.2 0-1.4.3-2.5 1-3.2.8-.8 1.7-1.2 2.8-1.2 1.2 0 2 .4 2.8 1.1.7.8 1 1.9 1 3.2v.4H530c0 1 .3 1.6.8 2.1s1 .7 1.7.7c.5 0 1-.1 1.3-.4.4-.2.7-.7 1-1.3Zm-4.6-2.2h4.6c0-.7-.2-1.3-.5-1.6-.4-.6-1-.8-1.7-.8s-1.2.2-1.7.6c-.4.5-.7 1-.7 1.8Zm13.2 4.9v-1c-.5.8-1.3 1.2-2.3 1.2-.7 0-1.3-.2-1.8-.6-.6-.3-1-.8-1.3-1.5-.3-.6-.5-1.4-.5-2.2 0-.9.2-1.6.4-2.3a3.3 3.3 0 0 1 3.1-2 2.7 2.7 0 0 1 2.3 1v-4h1.4V348h-1.3Zm-4.4-4.1c0 1 .2 1.8.7 2.3.4.6 1 .8 1.5.8a2 2 0 0 0 1.6-.7c.4-.5.6-1.3.6-2.3 0-1.2-.2-2-.6-2.5a2 2 0 0 0-3.2 0c-.4.5-.6 1.3-.6 2.4Z"/><path fill="#8B572A" d="M256.2 74.2H254v-1.6c0-.6 0-1.1.2-1.5.1-.4.3-.7.6-1 .3-.3.7-.5 1.2-.7l.4 1c-.4 0-.7.3-1 .6l-.2 1h1v2.2Zm3.7 0h-2.2v-1.6c0-.6 0-1.1.2-1.5 0-.4.3-.7.6-1l1.1-.7.5 1c-.5 0-.8.3-1 .6-.2.2-.3.6-.3 1h1v2.2Zm1.5 4.4 2.2-.3c0 .4.3.7.5 1 .3.2.7.3 1.3.3.5 0 1-.1 1.2-.3l.3-.6-.1-.4-.8-.3c-1.7-.4-2.9-.7-3.3-1-.7-.5-1-1.1-1-2 0-.7.3-1.3.8-1.8.6-.4 1.5-.7 2.7-.7 1.1 0 2 .2 2.5.6.6.3 1 .9 1.1 1.6l-2 .4c-.1-.3-.3-.6-.5-.7-.3-.2-.6-.3-1-.3-.7 0-1 0-1.3.2-.2.2-.3.3-.3.5 0 .1 0 .3.2.4l2 .6c1.3.3 2 .6 2.5 1s.7 1 .7 1.6c0 .8-.3 1.4-1 2-.6.5-1.5.8-2.7.8-1.2 0-2-.2-2.7-.7-.7-.5-1.1-1-1.3-1.9Zm16.9-3.4-2.2.3c0-.4-.2-.7-.5-1-.2-.1-.6-.3-1-.3-.5 0-1 .2-1.3.6-.3.4-.5 1-.5 1.9 0 1 .2 1.7.5 2 .4.5.8.7 1.4.7.4 0 .7-.1 1-.4.2-.2.4-.6.5-1.2l2.2.4c-.2 1-.7 1.7-1.3 2.2a4 4 0 0 1-2.5.8c-1.3 0-2.2-.4-3-1.2-.7-.7-1-1.8-1-3.1 0-1.4.3-2.5 1-3.2.8-.8 1.8-1.2 3-1.2 1 0 1.8.2 2.4.7.6.4 1 1 1.3 2ZM282 81h-2.2v-8.3h2v1.2c.4-.6.7-1 1-1.1.2-.2.5-.3.9-.3.5 0 1 .2 1.4.4l-.6 2a2 2 0 0 0-1-.4c-.4 0-.6 0-.9.2l-.5 1-.1 2.7V81Zm4-9.4v-2h2.3v2h-2.2Zm0 9.4v-8.3h2.3V81h-2.2Zm4.5-8.3h2v1.2a3 3 0 0 1 2.6-1.4c1 0 1.8.4 2.5 1.1.6.8 1 1.9 1 3.2 0 1.4-.4 2.5-1 3.2a3.2 3.2 0 0 1-3.7 1l-1.2-1v4.2h-2.2V72.7Zm2.2 4c0 1 .1 1.6.5 2 .4.5.8.7 1.4.7.5 0 .9-.2 1.2-.6.4-.4.5-1 .5-2 0-.8-.1-1.5-.5-2-.3-.3-.8-.5-1.3-.5s-1 .2-1.3.6c-.4.4-.5 1-.5 1.8Zm11.4-4v1.8h-1.5V79l.3.3h.3l1-.1.1 1.7c-.5.2-1 .3-1.7.3-.4 0-.8 0-1-.2-.4-.1-.6-.3-.8-.5l-.3-.9v-5.1h-1v-1.8h1v-1.6l2.1-1.3v2.9h1.5Zm5.1-3.2h2.2v1.6c0 .7 0 1.2-.2 1.5 0 .4-.3.7-.6 1-.3.3-.7.5-1.2.7l-.4-1c.5 0 .8-.3 1-.5l.3-1h-1.1v-2.3Zm-3.7 0h2.2v1.6c0 .7 0 1.2-.2 1.5 0 .4-.3.7-.6 1l-1.1.7-.5-1c.5 0 .8-.3 1-.5.2-.3.3-.6.3-1h-1v-2.3ZM256.2 119.2H254v-1.6c0-.6 0-1.1.2-1.5.1-.4.3-.7.6-1 .3-.3.7-.5 1.2-.7l.4 1c-.4 0-.7.3-1 .6l-.2 1h1v2.2Zm3.7 0h-2.2v-1.6c0-.6 0-1.1.2-1.5 0-.4.3-.7.6-1l1.1-.7.5 1c-.5 0-.8.3-1 .6-.2.2-.3.6-.3 1h1v2.2Zm9.9 6.8h-2v-1.2c-.4.5-.8.8-1.3 1a3 3 0 0 1-1.4.4c-1 0-1.7-.4-2.4-1.2-.7-.7-1-1.8-1-3.2 0-1.4.3-2.5 1-3.2a3.2 3.2 0 0 1 4.9 0v-4h2.2V126Zm-5.9-4.3c0 .9.1 1.5.4 1.9.3.6.8.9 1.4.9.6 0 1-.3 1.3-.7.4-.4.6-1 .6-2 0-.9-.2-1.6-.5-2-.4-.4-.8-.6-1.4-.6-.5 0-1 .2-1.3.6-.3.4-.5 1-.5 1.9Zm7.5 0c0-.7.2-1.4.6-2 .3-.8.8-1.3 1.5-1.6.6-.4 1.4-.6 2.2-.6a4.1 4.1 0 0 1 4.3 4.3c0 1.3-.4 2.3-1.2 3.2-.8.8-1.9 1.2-3 1.2-.8 0-1.6-.2-2.3-.5-.7-.4-1.2-.9-1.5-1.5a5 5 0 0 1-.6-2.5Zm2.3.2c0 .8.2 1.4.6 1.8.3.5.8.7 1.4.7.6 0 1-.2 1.4-.7.4-.4.6-1 .6-1.9 0-.8-.2-1.4-.6-1.8-.3-.5-.8-.7-1.4-.7-.6 0-1 .2-1.4.7-.4.4-.6 1-.6 1.9Zm7.8-4.2h2v1.1c.8-.8 1.7-1.3 2.7-1.3.5 0 1 .1 1.3.3.4.3.8.6 1 1l1.2-1c.4-.2.9-.3 1.3-.3a3 3 0 0 1 1.6.4c.4.2.7.6 1 1l.1 1.8v5.3h-2.1v-4.7c0-.9-.1-1.4-.3-1.6-.2-.3-.5-.5-1-.5-.2 0-.5 0-.8.3l-.6.8-.1 1.7v4h-2.2v-4.5c0-.9 0-1.4-.2-1.6a1 1 0 0 0-.3-.5l-.7-.2c-.3 0-.6 0-.9.3-.3.2-.5.4-.6.8a6 6 0 0 0-.2 1.7v4h-2.2v-8.3Zm16 2.5-2-.3c.3-.8.7-1.4 1.3-1.8.5-.4 1.3-.6 2.4-.6 1 0 1.7.1 2.2.4.5.2.8.5 1 .8.2.4.3 1 .3 2v4.2l.5 1.1H301a8.6 8.6 0 0 1-.3-1 4 4 0 0 1-1.2 1l-1.4.2c-.8 0-1.5-.2-2-.7-.5-.5-.7-1-.7-1.8 0-.4 0-.9.3-1.2.2-.4.5-.7 1-.9.3-.2 1-.3 1.7-.5 1-.2 1.7-.3 2.1-.5v-.2c0-.5 0-.8-.3-1l-1.2-.2c-.4 0-.7 0-.9.2-.2.2-.4.4-.5.8Zm3 1.8-1.3.4a4 4 0 0 0-1.2.3 1 1 0 0 0-.4.8c0 .3 0 .6.3.8.2.2.5.3.9.3s.8 0 1.1-.3c.3-.2.5-.5.5-.8l.1-1v-.5Zm4.4-5.4v-2h2.1v2H305Zm0 9.4v-8.3h2.1v8.3H305Zm12 0h-2.2v-4.2c0-1 0-1.5-.2-1.8a1.2 1.2 0 0 0-1.2-.8c-.4 0-.7.1-1 .3l-.7.8-.1 2v3.7h-2.2v-8.3h2v1.2c.8-1 1.7-1.4 2.8-1.4.4 0 .9.1 1.3.3a2.2 2.2 0 0 1 1.3 1.6l.2 1.4v5.2Zm1.7-6.4v-2h8v2h-8Zm0 3.5v-2h8v2h-8Zm14.6.3 2.2.3c-.3.8-.7 1.4-1.3 1.9a4 4 0 0 1-2.3.6c-1.4 0-2.5-.5-3.2-1.4-.5-.8-.8-1.7-.8-2.9 0-1.4.3-2.4 1-3.2.8-.8 1.7-1.2 2.8-1.2 1.2 0 2.2.4 3 1.2.6.9 1 2.1 1 3.8H330c0 .6.2 1.1.6 1.5.3.4.7.5 1.2.5.4 0 .7 0 .9-.2.2-.2.4-.5.5-1Zm.2-2.3c0-.6-.2-1-.5-1.4-.3-.3-.7-.5-1.2-.5s-.8.2-1.2.5a2 2 0 0 0-.4 1.4h3.3Zm2.9 4.9 3-4.3-2.9-4h2.7l1.5 2.3 1.5-2.3h2.6l-2.8 4 3 4.3h-2.7l-1.6-2.6-1.7 2.6h-2.6Zm11.6-5.8-2-.3c.2-.8.6-1.4 1.1-1.8.6-.4 1.4-.6 2.5-.6 1 0 1.7.1 2.2.4.5.2.8.5 1 .8.2.4.3 1 .3 2v4.2l.5 1.1h-2.2a8.6 8.6 0 0 1-.3-1 4 4 0 0 1-1.2 1l-1.4.2c-.8 0-1.5-.2-2-.7-.5-.5-.7-1-.7-1.8 0-.4 0-.9.3-1.2.2-.4.5-.7 1-.9.3-.2 1-.3 1.7-.5 1-.2 1.7-.3 2.1-.5v-.2c0-.5 0-.8-.3-1l-1.2-.2c-.4 0-.7 0-.9.2-.2.2-.4.4-.5.8Zm3 1.8-1.4.4a4 4 0 0 0-1.2.3 1 1 0 0 0-.4.8c0 .3 0 .6.3.8.2.2.5.3.9.3s.8 0 1.1-.3c.3-.2.5-.5.5-.8l.1-1v-.5Zm4-4.3h2.1v1.1c.7-.8 1.6-1.3 2.6-1.3.5 0 1 .1 1.4.3l1 1 1.1-1c.4-.2.9-.3 1.4-.3a3 3 0 0 1 1.5.4c.4.2.8.6 1 1l.2 1.8v5.3H365v-4.7c0-.9 0-1.4-.2-1.6-.2-.3-.6-.5-1-.5-.3 0-.6 0-.8.3-.3.2-.5.4-.6.8l-.2 1.7v4H360v-4.5l-.1-1.6a1 1 0 0 0-.4-.5l-.6-.2c-.4 0-.7 0-1 .3-.2.2-.4.4-.5.8a6 6 0 0 0-.2 1.7v4H355v-8.3Zm14.4 0h2v1.2a3 3 0 0 1 2.7-1.4c1 0 1.7.4 2.4 1.1.7.8 1 1.9 1 3.2 0 1.4-.3 2.5-1 3.2a3.2 3.2 0 0 1-3.7 1l-1.2-1v4.2h-2.2v-11.5Zm2.2 4c0 1 .2 1.6.5 2 .4.5.9.7 1.4.7.5 0 1-.2 1.3-.6.3-.4.5-1 .5-2 0-.8-.2-1.5-.5-2-.4-.3-.8-.5-1.3-.5-.6 0-1 .2-1.4.6-.3.4-.5 1-.5 1.8Zm7.7 4.3v-11.5h2.2V126h-2.2Zm9.2-2.6 2.2.3c-.3.8-.7 1.4-1.3 1.9a4 4 0 0 1-2.3.6c-1.4 0-2.5-.5-3.2-1.4-.6-.8-.8-1.7-.8-2.9 0-1.4.3-2.4 1-3.2.8-.8 1.7-1.2 2.8-1.2 1.2 0 2.2.4 2.9 1.2.7.9 1 2.1 1 3.8h-5.5c0 .6.2 1.1.6 1.5.3.4.7.5 1.2.5.4 0 .7 0 .9-.2.2-.2.4-.5.5-1Zm.1-2.3c0-.6-.1-1-.4-1.4-.4-.3-.7-.5-1.2-.5s-.9.2-1.2.5a2 2 0 0 0-.4 1.4h3.2Zm4 4.9v-2.2h2.2v2.2h-2.2Zm11.7-5.8-2.2.3c0-.4-.2-.7-.5-1-.2-.1-.5-.3-1-.3s-1 .2-1.3.6c-.3.4-.4 1-.4 1.9 0 1 .1 1.7.4 2 .4.5.8.7 1.4.7.4 0 .7-.1 1-.4.3-.2.5-.6.6-1.2l2.1.4c-.2 1-.6 1.7-1.3 2.2a4 4 0 0 1-2.5.8c-1.2 0-2.2-.4-3-1.2-.6-.7-1-1.8-1-3.1 0-1.4.4-2.5 1-3.2.8-.8 1.8-1.2 3-1.2 1 0 1.8.2 2.4.7.6.4 1 1 1.3 2Zm1.2 1.5c0-.7.2-1.4.5-2 .4-.8.9-1.3 1.5-1.6.7-.4 1.4-.6 2.2-.6a4.1 4.1 0 0 1 4.3 4.3c0 1.3-.4 2.3-1.2 3.2-.8.8-1.8 1.2-3 1.2-.8 0-1.5-.2-2.2-.5-.7-.4-1.2-.9-1.6-1.5a5 5 0 0 1-.5-2.5Zm2.2.2c0 .8.2 1.4.6 1.8.4.5.9.7 1.5.7.5 0 1-.2 1.4-.7.4-.4.6-1 .6-1.9 0-.8-.2-1.4-.6-1.8-.4-.5-.9-.7-1.4-.7-.6 0-1.1.2-1.5.7-.4.4-.6 1-.6 1.9Zm7.9-4.2h2v1.1c.7-.8 1.6-1.3 2.6-1.3.5 0 1 .1 1.4.3l1 1 1.1-1c.5-.2.9-.3 1.4-.3a3 3 0 0 1 1.5.4c.5.2.8.6 1 1l.2 1.8v5.3h-2.2v-4.7c0-.9 0-1.4-.2-1.6-.2-.3-.5-.5-1-.5-.3 0-.6 0-.8.3-.3.2-.5.4-.6.8l-.2 1.7v4h-2.2v-4.5l-.1-1.6a1 1 0 0 0-.4-.5l-.6-.2c-.4 0-.7 0-1 .3-.2.2-.4.4-.5.8a6 6 0 0 0-.2 1.7v4h-2.2v-8.3Zm18-3.2h2.1v1.6l-.1 1.5c-.1.4-.4.7-.7 1l-1.1.7-.4-1c.4 0 .7-.3.9-.5.2-.3.3-.6.3-1h-1v-2.3Zm-3.8 0h2.2v1.6l-.1 1.5c-.1.4-.3.7-.6 1-.3.3-.7.5-1.2.7l-.4-1c.4 0 .7-.3 1-.5l.2-1h-1v-2.3ZM256.2 96.2H254v-1.6c0-.6 0-1.1.2-1.5.1-.4.3-.7.6-1 .3-.3.7-.5 1.2-.7l.4 1c-.4 0-.7.3-1 .6l-.2 1h1v2.2Zm3.7 0h-2.2v-1.6c0-.6 0-1.1.2-1.5 0-.4.3-.7.6-1l1.1-.7.5 1c-.5 0-.8.3-1 .6-.2.2-.3.6-.3 1h1v2.2Zm6-1.5v1.8h-1.4v4.5s0 .2.2.3h.4l.8-.1.2 1.7c-.5.2-1 .3-1.7.3-.4 0-.8 0-1-.2-.4-.1-.6-.3-.8-.5l-.3-.9v-5.1h-1v-1.8h1v-1.6l2.2-1.3v2.9h1.5Zm3.8-3.2v4.3a3.2 3.2 0 0 1 3.9-1c.4.2.7.4.9.7l.4 1 .1 1.6v4.9h-2.2v-4.4l-.1-1.6a1 1 0 0 0-.4-.6l-.8-.2c-.4 0-.7 0-1 .3-.3.1-.5.4-.6.8-.2.3-.2.8-.2 1.5v4.2h-2.2V91.5h2.2Zm7.6 2v-2h2.2v2h-2.2Zm0 9.5v-8.3h2.2v8.3h-2.2Zm6.5 0h-2.2v-8.3h2v1.2c.4-.6.7-1 1-1.1.3-.2.6-.3 1-.3s1 .2 1.4.4l-.7 2a2 2 0 0 0-1-.4c-.3 0-.6 0-.8.2-.2.2-.4.5-.5 1-.1.4-.2 1.3-.2 2.7v2.6Zm11.8 0h-2v-1.2c-.4.5-.8.8-1.3 1a3 3 0 0 1-1.4.4c-1 0-1.7-.4-2.4-1.2-.7-.7-1-1.8-1-3.2 0-1.4.3-2.5 1-3.2a3.2 3.2 0 0 1 4.9 0v-4h2.2V103Zm-6-4.3c0 .9.2 1.5.5 1.9.3.6.8.9 1.4.9.6 0 1-.3 1.3-.7.4-.4.6-1 .6-2 0-.9-.2-1.6-.5-2-.4-.4-.8-.6-1.4-.6-.5 0-1 .2-1.3.6-.3.4-.5 1-.5 1.9Zm7.9 1.2v-2.2h4.3v2.2h-4.3Zm5.5-5.2h2v1.2a3 3 0 0 1 2.6-1.4c1 0 1.8.4 2.5 1.1.6.8 1 1.9 1 3.2 0 1.4-.4 2.5-1 3.2a3.2 3.2 0 0 1-3.7 1l-1.2-1v4.2H303V94.7Zm2.2 4c0 1 .1 1.6.5 2 .4.5.8.7 1.4.7.5 0 .9-.2 1.2-.6.4-.4.6-1 .6-2 0-.8-.2-1.5-.6-2-.3-.3-.8-.5-1.3-.5s-1 .2-1.3.6c-.4.4-.5 1-.5 1.8Zm9.3-1.5-2-.3c.2-.8.6-1.4 1.1-1.8.6-.4 1.4-.6 2.5-.6 1 0 1.7.1 2.2.4.4.2.8.5 1 .8.2.4.3 1 .3 2v4.2l.4 1.1H318a8.1 8.1 0 0 1-.3-1 4 4 0 0 1-1.2 1l-1.4.2c-.8 0-1.5-.2-2-.7-.5-.5-.7-1-.7-1.8 0-.4 0-.9.3-1.2.2-.4.5-.7 1-.9.3-.2 1-.3 1.7-.5 1-.2 1.7-.3 2.1-.5v-.2c0-.5 0-.8-.3-1l-1.2-.2c-.4 0-.7 0-.9.2-.2.2-.4.4-.5.8Zm3 1.8-1.4.4a4 4 0 0 0-1.2.3 1 1 0 0 0-.4.8c0 .3 0 .6.3.8.2.2.5.3.9.3a2 2 0 0 0 1.1-.3c.3-.2.4-.5.5-.8l.1-1V99Zm6.3 4h-2.2v-8.3h2v1.2c.4-.6.7-1 1-1.1.3-.2.6-.3 1-.3.5 0 1 .2 1.4.4l-.7 2a2 2 0 0 0-1-.4c-.3 0-.6 0-.8.2-.2.2-.4.5-.5 1-.1.4-.2 1.3-.2 2.7v2.6Zm8-8.3v1.8h-1.5v4.5l.2.3h.4l.9-.1.2 1.7c-.5.2-1.1.3-1.8.3-.4 0-.7 0-1-.2-.4-.1-.6-.3-.7-.5-.2-.2-.3-.5-.4-.9v-5.1h-1v-1.8h1v-1.6l2.2-1.3v2.9h1.5Zm.5 0h2.3l2 5.9 2-5.9h2.2l-3 8-.5 1.4c-.1.5-.3.9-.5 1.1l-.6.7-.8.3-1.2.2c-.4 0-.8 0-1.2-.2l-.2-1.7 1 .1c.4 0 .8-.1 1-.4.3-.3.5-.7.6-1.2l-3.1-8.3Zm13.4-3.2h2.2v1.6l-.1 1.5c-.1.4-.3.7-.7 1l-1.1.7-.4-1c.4 0 .7-.3 1-.5l.2-1h-1v-2.3Zm-3.6 0h2.2v1.6l-.2 1.5c-.1.4-.3.7-.6 1-.3.3-.7.5-1.2.7l-.4-1c.4 0 .7-.3 1-.5l.2-1h-1v-2.3Z"/><path fill="#4D4D4D" d="M322 81v-8.3h1.3v1.2a3 3 0 0 1 2.5-1.4c.6 0 1.1.1 1.5.4.4.3.7.6.9 1a3 3 0 0 1 2.5-1.4c.9 0 1.5.2 2 .7.4.5.6 1.2.6 2.1V81h-1.4v-5.2l-.1-1.2c-.1-.3-.3-.5-.5-.6l-.9-.3a2 2 0 0 0-1.4.6c-.4.4-.6 1-.6 1.9V81H327v-5.4c0-.6-.1-1-.4-1.4-.2-.3-.6-.5-1-.5a2 2 0 0 0-1.2.3c-.3.3-.6.6-.7 1-.2.4-.2 1-.2 1.7V81H322Zm18.8-1-1.5 1-1.6.2c-.9 0-1.6-.2-2-.7-.5-.4-.8-1-.8-1.7a2.3 2.3 0 0 1 1-2l1-.4 1.3-.2c1.1-.1 2-.3 2.5-.5v-.3c0-.6-.1-1-.4-1.2-.4-.4-.9-.5-1.6-.5-.7 0-1.2.1-1.5.3-.3.3-.5.7-.7 1.3l-1.4-.2.7-1.5c.3-.3.7-.6 1.2-.8.5-.2 1.2-.3 1.9-.3a5 5 0 0 1 1.7.3c.5.1.8.3 1 .6.2.2.3.6.4 1l.1 1.2V80l.4 1h-1.4a3 3 0 0 1-.3-1Zm-.1-3.2-2.3.6-1.2.2a1.2 1.2 0 0 0-.8 1.2c0 .3.1.7.4 1 .3.2.7.3 1.3.3.5 0 1-.1 1.4-.4.4-.2.8-.5 1-1l.2-1.3v-.6Zm6.7 3 .2 1.2-1.1.1c-.5 0-1 0-1.2-.2-.3-.2-.5-.4-.6-.7a5 5 0 0 1-.2-1.6v-4.8h-1v-1.1h1v-2l1.4-.9v2.9h1.5v1.1h-1.5v4.8l.1.8.3.3.4.1h.7Zm6.8-1.8 1.3.1c-.1 1-.5 1.7-1.1 2.3-.6.5-1.4.8-2.3.8-1.1 0-2-.4-2.8-1.1-.6-.8-1-1.8-1-3.2 0-1 .2-1.7.5-2.4A3 3 0 0 1 350 73a4 4 0 0 1 2-.5c.9 0 1.6.2 2.2.7.6.5 1 1.1 1.1 2l-1.4.2c0-.6-.3-1-.7-1.3-.3-.3-.7-.4-1.2-.4-.7 0-1.2.2-1.7.7-.4.5-.6 1.3-.6 2.4 0 1.2.2 2 .6 2.5.4.5 1 .7 1.7.7.5 0 1-.1 1.4-.5.3-.3.6-.8.7-1.5Zm2.5 3V69.5h1.4v4.2c.7-.8 1.5-1.2 2.5-1.2.6 0 1.2.1 1.6.4.5.2.8.6 1 1 .2.4.3 1 .3 1.8V81h-1.4v-5.3c0-.7-.2-1.2-.5-1.5-.3-.3-.7-.5-1.3-.5-.4 0-.8.1-1.1.4-.4.2-.7.5-.8.8a4 4 0 0 0-.3 1.6V81h-1.4Zm13.4 0v-8.3h1.3V74l.8-1.2c.3-.2.6-.3 1-.3s.9.2 1.4.5l-.5 1.3a2 2 0 0 0-1-.3c-.3 0-.6 0-.9.3-.2.1-.4.4-.5.7l-.2 1.7V81H370Zm11-2.7 1.5.2c-.3.9-.7 1.5-1.3 2-.6.5-1.4.7-2.4.7-1.2 0-2.2-.4-2.9-1.1-.7-.8-1-1.8-1-3.2 0-1.4.3-2.5 1-3.2.8-.8 1.7-1.2 2.8-1.2 1.1 0 2 .4 2.8 1.1.7.8 1 1.9 1 3.2v.4h-6.2c0 1 .3 1.6.8 2.1s1 .7 1.7.7c.5 0 1-.1 1.3-.4.4-.2.7-.7 1-1.3Zm-4.6-2.2h4.6c0-.7-.2-1.3-.5-1.6-.5-.6-1-.8-1.7-.8s-1.2.2-1.7.6c-.4.5-.7 1-.7 1.8Zm13.1 8v-4c-.2.3-.5.6-.9.8l-1.2.3c-1 0-1.9-.4-2.6-1.2-.7-.8-1-1.9-1-3.2 0-.9 0-1.6.4-2.3a3.2 3.2 0 0 1 3-2c1 0 1.9.4 2.5 1.3v-1.1h1.2v11.5h-1.4Zm-4.3-7.3c0 1.1.2 1.9.7 2.4.4.6 1 .8 1.6.8a2 2 0 0 0 1.5-.7c.4-.5.7-1.3.7-2.3 0-1.2-.3-2-.7-2.5a2 2 0 0 0-1.6-.9 2 2 0 0 0-1.6.8c-.4.5-.6 1.3-.6 2.4Zm13.4 4.2v-1.2a3 3 0 0 1-2.7 1.4c-.4 0-.9-.1-1.3-.3-.4-.2-.8-.4-1-.7l-.4-1v-6.5h1.3v4.6l.1 1.5c0 .4.3.7.6.9.3.2.6.3 1 .3l1.2-.3c.4-.3.6-.6.8-1 .2-.3.2-.8.2-1.6v-4.4h1.4V81h-1.2Zm9.1-2.7 1.5.2c-.2.9-.7 1.5-1.3 2-.6.5-1.4.7-2.4.7-1.2 0-2.1-.4-2.9-1.1-.7-.8-1-1.8-1-3.2 0-1.4.3-2.5 1-3.2.8-.8 1.7-1.2 2.9-1.2 1 0 2 .4 2.7 1.1.7.8 1 1.9 1 3.2v.4h-6.2c0 1 .3 1.6.8 2.1s1 .7 1.7.7c.6 0 1-.1 1.4-.4.3-.2.6-.7.8-1.3Zm-4.6-2.2h4.6c0-.7-.2-1.3-.5-1.6-.4-.6-1-.8-1.7-.8s-1.2.2-1.7.6c-.4.5-.6 1-.7 1.8Zm7.3 2.4 1.4-.2c0 .6.3 1 .6 1.3.4.3.9.4 1.5.4.7 0 1.2-.1 1.5-.4.3-.2.4-.5.4-.9 0-.3-.1-.6-.4-.7a6 6 0 0 0-1.4-.5l-2.2-.7c-.4-.2-.7-.4-.9-.8-.2-.3-.3-.7-.3-1 0-.5.1-.8.3-1.1.1-.3.4-.6.7-.8.2-.2.5-.3.9-.4l1.2-.2c.6 0 1.2.1 1.7.3.5.2.9.4 1 .8.3.3.5.7.6 1.2l-1.4.2c0-.4-.2-.7-.6-1a2 2 0 0 0-1.2-.3c-.7 0-1.1 0-1.4.3-.3.2-.4.5-.4.7 0 .2 0 .4.2.5 0 .2.3.3.5.4l1.2.4 2.1.6c.4.2.7.4 1 .8.2.3.3.7.3 1.2 0 .4-.2.9-.4 1.3-.3.4-.7.7-1.2 1-.5.2-1.1.3-1.8.3a4 4 0 0 1-2.4-.7c-.6-.4-1-1.1-1.1-2Zm11.6 1.2.2 1.3-1 .1c-.5 0-1 0-1.2-.2-.3-.2-.5-.4-.6-.7a5 5 0 0 1-.2-1.6v-4.8h-1v-1.1h1v-2l1.4-.9v2.9h1.4v1.1h-1.4v5.6l.3.3.5.1h.6Zm.8-1.2 1.4-.2c.1.6.3 1 .7 1.3.3.3.8.4 1.5.4.6 0 1.1-.1 1.4-.4.3-.2.5-.5.5-.9 0-.3-.1-.6-.4-.7-.2-.2-.7-.3-1.5-.5l-2.1-.7c-.4-.2-.7-.4-1-.8l-.2-1c0-.5 0-.8.2-1.1l.7-.8c.2-.2.5-.3 1-.4l1.1-.2c.7 0 1.3.1 1.7.3.5.2 1 .4 1.1.8.3.3.4.7.5 1.2l-1.4.2c0-.4-.2-.7-.5-1a2 2 0 0 0-1.3-.3c-.6 0-1 0-1.3.3-.3.2-.5.5-.5.7l.2.5c.1.2.3.3.6.4l1.2.4 2 .6c.5.2.8.4 1 .8.2.3.3.7.3 1.2 0 .4-.1.9-.4 1.3-.2.4-.6.7-1.2 1-.5.2-1 .3-1.7.3a4 4 0 0 1-2.5-.7c-.5-.4-.9-1.1-1-2Zm13.4 2.5v-7.2h-1.2v-1.1h1.2v-.9l.1-1.2c.2-.4.4-.7.8-.9.3-.2.8-.3 1.4-.3h1.3l-.2 1.3h-.8c-.5 0-.8 0-1 .2l-.2 1v.8h1.6v1.1h-1.6V81h-1.4Zm3.6-4.1c0-1.6.4-2.7 1.3-3.5.7-.6 1.6-.9 2.6-.9 1.1 0 2 .4 2.8 1.1.7.8 1 1.8 1 3.1 0 1.1-.1 2-.4 2.6-.3.6-.8 1-1.4 1.4a4 4 0 0 1-2 .5c-1.2 0-2.1-.4-2.8-1.1-.8-.8-1.1-1.8-1.1-3.2Zm1.4 0c0 1 .3 1.8.7 2.3.5.6 1 .8 1.8.8.7 0 1.3-.2 1.7-.8.5-.5.7-1.3.7-2.4 0-1-.2-1.8-.7-2.3-.4-.6-1-.8-1.7-.8s-1.3.2-1.8.8c-.4.5-.7 1.3-.7 2.4Zm8 4.1v-8.3h1.3V74c.3-.6.6-1 .9-1.2.2-.2.5-.3.9-.3s1 .2 1.4.5l-.5 1.3a2 2 0 0 0-1-.3c-.3 0-.6 0-.8.3-.3.1-.5.4-.6.7l-.2 1.7V81h-1.4Zm9.2-2.5 1.4-.2c.1.6.3 1 .7 1.3.3.3.8.4 1.5.4.6 0 1.1-.1 1.4-.4.3-.2.5-.5.5-.9 0-.3-.2-.6-.4-.7a6 6 0 0 0-1.5-.5l-2.1-.7c-.4-.2-.7-.4-1-.8l-.2-1c0-.5 0-.8.2-1.1l.7-.8c.2-.2.5-.3 1-.4l1.1-.2c.7 0 1.2.1 1.7.3.5.2.9.4 1.1.8.3.3.4.7.5 1.2l-1.4.2c0-.4-.2-.7-.5-1a2 2 0 0 0-1.3-.3c-.6 0-1 0-1.4.3l-.4.7c0 .2 0 .4.2.5l.5.4 1.3.4 2 .6c.5.2.8.4 1 .8.2.3.3.7.3 1.2 0 .4-.1.9-.4 1.3-.3.4-.6.7-1.2 1-.5.2-1 .3-1.7.3a4 4 0 0 1-2.5-.7c-.5-.4-1-1.1-1-2Zm14-.5 1.4.1c-.2 1-.5 1.7-1.2 2.3-.6.5-1.3.8-2.3.8-1 0-2-.4-2.7-1.1-.7-.8-1-1.8-1-3.2 0-1 .1-1.7.4-2.4a3 3 0 0 1 1.4-1.5 4 4 0 0 1 2-.5c.9 0 1.6.2 2.2.7.5.5.9 1.1 1 2l-1.3.2c-.1-.6-.4-1-.7-1.3-.3-.3-.7-.4-1.2-.4-.7 0-1.3.2-1.7.7-.5.5-.7 1.3-.7 2.4 0 1.2.2 2 .7 2.5.4.5 1 .7 1.6.7.6 0 1-.1 1.4-.5.4-.3.6-.8.7-1.5Zm2.6 3v-8.3h1.3V74l.8-1.2c.3-.2.6-.3 1-.3s.9.2 1.4.5l-.5 1.3a2 2 0 0 0-1-.3c-.3 0-.6 0-.9.3-.2.1-.4.4-.5.7l-.2 1.7V81H475Zm5.3-9.8v-1.7h1.4v1.7h-1.4Zm0 9.8v-8.3h1.4V81h-1.4Zm3.6 3.2V72.7h1.3v1c.3-.3.6-.7 1-.9.4-.2.8-.3 1.4-.3a3.4 3.4 0 0 1 3.1 2c.3.8.4 1.5.4 2.3 0 .8-.2 1.6-.5 2.3a3.4 3.4 0 0 1-3.1 2c-.5 0-1 0-1.3-.2-.4-.2-.7-.5-.9-.8v4H484Zm1.3-7.3c0 1 .2 1.9.6 2.4.4.5 1 .7 1.6.7a2 2 0 0 0 1.6-.8c.4-.5.7-1.3.7-2.4 0-1-.3-1.9-.7-2.4a2 2 0 0 0-1.6-.8c-.6 0-1 .3-1.5.9-.5.5-.7 1.3-.7 2.4Zm10.7 2.8.2 1.3-1 .1c-.6 0-1 0-1.3-.2-.3-.2-.5-.4-.6-.7a5 5 0 0 1-.1-1.6v-4.8h-1v-1.1h1v-2l1.4-.9v2.9h1.4v1.1h-1.4v5.6l.3.3.5.1h.6Zm.8-1.2 1.4-.2c0 .6.3 1 .6 1.3.4.3.9.4 1.5.4.7 0 1.2-.1 1.5-.4.3-.2.4-.5.4-.9 0-.3-.1-.6-.4-.7a6 6 0 0 0-1.4-.5l-2.2-.7c-.4-.2-.7-.4-.9-.8-.2-.3-.3-.7-.3-1 0-.5.1-.8.3-1.1.1-.3.4-.6.7-.8.2-.2.5-.3.9-.4l1.2-.2c.6 0 1.2.1 1.7.3.5.2.8.4 1 .8.3.3.5.7.6 1.2l-1.4.2c0-.4-.3-.7-.6-1a2 2 0 0 0-1.2-.3c-.7 0-1.1 0-1.4.3-.3.2-.4.5-.4.7 0 .2 0 .4.2.5 0 .2.2.3.5.4l1.2.4 2.1.6c.4.2.7.4 1 .8.2.3.3.7.3 1.2 0 .4-.2.9-.4 1.3-.3.4-.7.7-1.2 1-.5.2-1.1.3-1.8.3a4 4 0 0 1-2.4-.7c-.6-.4-1-1.1-1.1-2ZM358 103v-8.3h1.3v1.2a3 3 0 0 1 2.5-1.4c.6 0 1.1.1 1.5.4.4.3.7.6.9 1a3 3 0 0 1 2.5-1.4c.9 0 1.5.2 2 .7.4.5.6 1.2.6 2.1v5.7h-1.4v-5.2l-.1-1.2c-.1-.3-.3-.5-.5-.6l-.9-.3a2 2 0 0 0-1.4.6c-.4.4-.6 1-.6 1.9v4.8H363v-5.4c0-.6-.1-1-.4-1.4-.2-.3-.6-.5-1-.5a2 2 0 0 0-1.2.3c-.3.3-.6.6-.7 1-.2.4-.2 1-.2 1.7v4.3H358Zm18.8-1-1.5 1-1.6.2c-.9 0-1.6-.2-2-.7-.5-.4-.8-1-.8-1.7 0-.4.1-.8.3-1.1l.7-.8 1-.5 1.3-.2c1.1-.1 2-.3 2.5-.5v-.3c0-.6-.1-1-.4-1.2-.4-.4-.9-.5-1.6-.5-.7 0-1.2.1-1.5.3-.3.3-.5.7-.7 1.3l-1.4-.2.7-1.5c.3-.3.7-.6 1.2-.8.5-.2 1.2-.3 1.9-.3a5 5 0 0 1 1.7.3c.5.1.8.3 1 .6.2.2.3.6.4 1l.1 1.2v4.4l.4 1h-1.4a3 3 0 0 1-.3-1Zm-.1-3.2-2.3.6-1.2.2a1.2 1.2 0 0 0-.8 1.2c0 .3.1.7.4 1 .3.2.7.3 1.3.3.5 0 1-.1 1.4-.4.4-.2.8-.5 1-1l.2-1.3v-.6Zm6.7 3 .2 1.2-1.1.1c-.5 0-1 0-1.2-.2-.3-.2-.5-.4-.6-.7a5 5 0 0 1-.2-1.6v-4.8h-1v-1.1h1v-2l1.4-.9v2.9h1.5v1.1h-1.5v4.8l.1.8.3.3.4.1h.7Zm6.8-1.8 1.3.1c-.1 1-.5 1.7-1.1 2.3-.6.5-1.4.8-2.3.8-1.1 0-2-.4-2.8-1.1-.6-.8-1-1.8-1-3.2 0-1 .2-1.7.5-2.4A3 3 0 0 1 386 95a4 4 0 0 1 2-.5c.9 0 1.6.2 2.2.7.6.5 1 1.1 1.1 2l-1.4.2c0-.6-.3-1-.7-1.3-.3-.3-.7-.4-1.2-.4-.7 0-1.2.2-1.7.7-.4.5-.6 1.3-.6 2.4 0 1.2.2 2 .6 2.5.4.5 1 .7 1.7.7.5 0 1-.1 1.4-.5.3-.3.6-.8.7-1.5Zm2.5 3V91.5h1.4v4.2c.7-.8 1.5-1.2 2.5-1.2.6 0 1.2.1 1.6.4.5.2.8.6 1 1 .2.4.3 1 .3 1.8v5.3h-1.4v-5.3c0-.7-.2-1.2-.5-1.5-.3-.3-.7-.5-1.3-.5-.4 0-.8.1-1.1.4-.4.2-.7.5-.8.8a4 4 0 0 0-.3 1.6v4.5h-1.4Zm16.5-1.3.2 1.3-1 .1c-.6 0-1 0-1.3-.2-.3-.2-.5-.4-.6-.7a5 5 0 0 1-.1-1.6v-4.8h-1v-1.1h1v-2l1.4-.9v2.9h1.4v1.1h-1.4v5.6l.3.3.5.1h.6Zm1.4 1.3V91.5h1.4v4.2c.6-.8 1.4-1.2 2.4-1.2.7 0 1.2.1 1.6.4.5.2.8.6 1 1 .2.4.3 1 .3 1.8v5.3H416v-5.3c0-.7-.1-1.2-.5-1.5-.3-.3-.7-.5-1.2-.5s-.9.1-1.2.4c-.4.2-.6.5-.8.8a4 4 0 0 0-.2 1.6v4.5h-1.4Zm8.9-9.8v-1.7h1.4v1.7h-1.4Zm0 9.8v-8.3h1.4v8.3h-1.4Zm3.5 0v-8.3h1.3V96c.3-.6.6-1 .9-1.2.2-.2.5-.3.9-.3s1 .2 1.4.5l-.5 1.3a2 2 0 0 0-1-.3c-.3 0-.6 0-.8.3-.3.1-.4.4-.6.7l-.2 1.7v4.3H423Zm10.7 0v-1c-.5.8-1.3 1.2-2.3 1.2-.6 0-1.3-.2-1.8-.6-.6-.3-1-.8-1.3-1.5-.3-.6-.5-1.4-.5-2.2 0-.9.2-1.6.5-2.3a3.3 3.3 0 0 1 3-2 2.7 2.7 0 0 1 2.3 1v-4h1.4V103h-1.3Zm-4.4-4.1c0 1 .2 1.8.7 2.3.4.6 1 .8 1.5.8a2 2 0 0 0 1.6-.7c.4-.5.7-1.3.7-2.3 0-1.2-.3-2-.7-2.5a2 2 0 0 0-3.2 0c-.4.5-.6 1.3-.6 2.4Zm7.4.7V98h4.3v1.5h-4.3Zm5.9 6.6V94.7h1.3v1c.3-.3.6-.7 1-.9.4-.2.8-.3 1.4-.3.7 0 1.3.2 1.8.6.6.3 1 .8 1.3 1.5.3.7.4 1.4.4 2.2 0 .8-.2 1.6-.5 2.3a3.4 3.4 0 0 1-3.1 2c-.5 0-1 0-1.3-.2l-1-.8v4h-1.3Zm1.3-7.3c0 1 .2 1.9.6 2.4.4.5 1 .7 1.6.7a2 2 0 0 0 1.6-.8c.4-.5.7-1.3.7-2.4 0-1-.3-1.9-.7-2.4a2 2 0 0 0-1.6-.8c-.6 0-1 .3-1.6.9-.4.5-.6 1.3-.6 2.4Zm13 3c-.5.5-1 .8-1.5 1l-1.5.3c-1 0-1.7-.2-2.1-.7-.5-.4-.8-1-.8-1.7a2.3 2.3 0 0 1 1-2l1-.4 1.3-.2c1.1-.1 2-.3 2.5-.5v-.3c0-.6-.1-1-.4-1.2-.4-.4-.9-.5-1.6-.5-.7 0-1.2.1-1.5.3-.3.3-.5.7-.7 1.3l-1.3-.2c0-.6.3-1 .6-1.5.3-.3.7-.6 1.2-.8.6-.2 1.2-.3 1.9-.3a5 5 0 0 1 1.7.3c.5.1.8.3 1 .6.2.2.4.6.4 1l.1 1.2v2l.1 2.4c0 .4.2.7.4 1h-1.5a3 3 0 0 1-.3-1Zm-.1-3-2.3.5-1.2.2a1.2 1.2 0 0 0-.8 1.2c0 .3.2.7.4 1 .3.2.7.3 1.3.3.5 0 1-.1 1.4-.4.5-.2.8-.5 1-1l.2-1.3v-.6Zm3.6 4.1v-8.3h1.2V96c.4-.6.7-1 1-1.2.2-.2.5-.3.8-.3.5 0 1 .2 1.5.5l-.5 1.3a2 2 0 0 0-1-.3c-.3 0-.6 0-.9.3-.2.1-.4.4-.5.7l-.2 1.7v4.3h-1.4Zm8.4-1.3.2 1.3-1 .1c-.6 0-1 0-1.3-.2l-.5-.7a5 5 0 0 1-.2-1.6v-4.8h-1v-1.1h1v-2l1.4-.9v2.9h1.4v1.1h-1.4v5.6l.3.3.5.1h.6Zm1.3 4.5-.1-1.3.8.1c.3 0 .5 0 .7-.2.2 0 .4-.2.5-.4a7 7 0 0 0 .5-1.4l-3.1-8.3h1.5l1.7 4.8.6 2 .6-2 1.8-4.8h1.4l-3.2 8.4-.8 2-.8 1a2 2 0 0 1-1.2.3c-.2 0-.5 0-.9-.2Zm12.5-3.2v-8.3h1.3V96c.3-.6.6-1 .9-1.2.2-.2.6-.3.9-.3.5 0 1 .2 1.4.5l-.5 1.3a2 2 0 0 0-1-.3c-.3 0-.6 0-.8.3-.3.1-.4.4-.5.7-.2.5-.3 1-.3 1.7v4.3h-1.4Zm11-2.7 1.5.2c-.2.9-.7 1.5-1.3 2-.6.5-1.4.7-2.4.7-1.2 0-2.1-.4-2.8-1.1-.8-.8-1.1-1.8-1.1-3.2 0-1.4.4-2.5 1-3.2.8-.8 1.7-1.2 2.9-1.2 1 0 2 .4 2.7 1.1.7.8 1 1.9 1 3.2v.4H489c.1 1 .4 1.6.8 2.1.5.5 1 .7 1.8.7.5 0 1-.1 1.3-.4.3-.2.6-.7.8-1.3Zm-4.6-2.2h4.7c-.1-.7-.3-1.3-.6-1.6-.4-.6-1-.8-1.7-.8s-1.2.2-1.6.6c-.5.5-.7 1-.8 1.8Zm13.2 8v-4l-1 .8-1.2.3c-1 0-1.8-.4-2.6-1.2-.7-.8-1-1.9-1-3.2 0-.9.1-1.6.4-2.3a3.2 3.2 0 0 1 3-2c1.1 0 2 .4 2.5 1.3v-1.1h1.3v11.5h-1.4Zm-4.4-7.3c0 1.1.2 1.9.7 2.4.4.6 1 .8 1.6.8a2 2 0 0 0 1.5-.7c.5-.5.7-1.3.7-2.3 0-1.2-.2-2-.7-2.5a2 2 0 0 0-1.6-.9 2 2 0 0 0-1.5.8c-.5.5-.7 1.3-.7 2.4Zm13.4 4.2v-1.2a3 3 0 0 1-2.6 1.4c-.5 0-1-.1-1.4-.3l-1-.7-.4-1v-6.5h1.3v4.6l.1 1.5c.1.4.3.7.6.9.3.2.6.3 1 .3.5 0 .9-.1 1.2-.3.4-.3.7-.6.8-1 .2-.3.3-.8.3-1.6v-4.4h1.4v8.3h-1.3Zm9.2-2.7 1.4.2c-.2.9-.6 1.5-1.3 2-.6.5-1.4.7-2.3.7-1.2 0-2.2-.4-3-1.1-.6-.8-1-1.8-1-3.2 0-1.4.4-2.5 1-3.2.8-.8 1.7-1.2 2.9-1.2 1.1 0 2 .4 2.7 1.1.7.8 1 1.9 1 3.2v.4h-6.1c0 1 .3 1.6.7 2.1.5.5 1 .7 1.8.7.5 0 1-.1 1.3-.4.4-.2.6-.7.9-1.3Zm-4.7-2.2h4.7c0-.7-.3-1.3-.6-1.6-.4-.6-1-.8-1.7-.8-.6 0-1.2.2-1.6.6-.5.5-.7 1-.8 1.8Zm7.3 2.4 1.4-.2c0 .6.3 1 .7 1.3.3.3.8.4 1.5.4.6 0 1-.1 1.4-.4.3-.2.5-.5.5-.9 0-.3-.2-.6-.4-.7-.2-.2-.7-.3-1.5-.5l-2.1-.7c-.4-.2-.7-.4-1-.8l-.2-1c0-.5 0-.8.2-1.1l.7-.8c.2-.2.5-.3.9-.4l1.2-.2c.7 0 1.2.1 1.7.3.5.2.9.4 1.1.8.3.3.4.7.5 1.2l-1.4.2c0-.4-.2-.7-.5-1a2 2 0 0 0-1.3-.3c-.6 0-1 0-1.4.3l-.4.7c0 .2 0 .4.2.5l.5.4 1.3.4 2 .6c.4.2.8.4 1 .8.2.3.3.7.3 1.2 0 .4-.1.9-.4 1.3-.3.4-.7.7-1.2 1-.5.2-1 .3-1.7.3a4 4 0 0 1-2.5-.7c-.6-.4-1-1.1-1-2Zm11.7 1.2.2 1.3-1.1.1c-.5 0-1 0-1.2-.2-.3-.2-.5-.4-.6-.7a5 5 0 0 1-.2-1.6v-4.8h-1v-1.1h1v-2l1.4-.9v2.9h1.5v1.1h-1.5v4.8l.1.8.3.3.4.1h.7Zm.8-1.2 1.4-.2c0 .6.3 1 .6 1.3.4.3.9.4 1.5.4.7 0 1.1-.1 1.5-.4.3-.2.4-.5.4-.9 0-.3-.1-.6-.4-.7-.2-.2-.7-.3-1.4-.5l-2.2-.7c-.4-.2-.7-.4-.9-.8-.2-.3-.3-.7-.3-1 0-.5 0-.8.3-1.1.1-.3.4-.6.7-.8l.8-.4 1.3-.2c.6 0 1.2.1 1.7.3.5.2.8.4 1 .8.3.3.5.7.6 1.2l-1.4.2c0-.4-.3-.7-.6-1a2 2 0 0 0-1.2-.3c-.7 0-1.1 0-1.4.3-.3.2-.4.5-.4.7l.1.5.6.4 1.2.4 2.1.6c.4.2.7.4 1 .8.2.3.3.7.3 1.2 0 .4-.2.9-.4 1.3-.3.4-.7.7-1.2 1-.5.2-1.1.3-1.8.3a4 4 0 0 1-2.4-.7c-.6-.4-1-1.1-1.1-2ZM445 125v-8.3h1.3v1.2a3 3 0 0 1 2.5-1.4c.6 0 1.1.1 1.5.4.4.3.7.6.9 1a3 3 0 0 1 2.5-1.4c.9 0 1.5.2 2 .7.4.5.6 1.2.6 2.1v5.7h-1.4v-5.2l-.1-1.2c-.1-.3-.3-.5-.5-.6l-.9-.3a2 2 0 0 0-1.4.6c-.4.4-.6 1-.6 1.9v4.8H450v-5.4c0-.6-.1-1-.4-1.4-.2-.3-.6-.5-1-.5a2 2 0 0 0-1.2.3c-.3.3-.6.6-.7 1-.2.4-.2 1-.2 1.7v4.3H445Zm18.8-1-1.5 1-1.6.2c-.9 0-1.6-.2-2-.7-.5-.4-.8-1-.8-1.7a2.3 2.3 0 0 1 1-2l1-.4 1.3-.2c1.1-.1 2-.3 2.5-.5v-.3c0-.6-.1-1-.4-1.2-.4-.4-.9-.5-1.6-.5-.7 0-1.2.1-1.5.3-.3.3-.5.7-.7 1.3l-1.4-.2.7-1.5c.3-.3.7-.6 1.2-.8.5-.2 1.2-.3 1.9-.3a5 5 0 0 1 1.7.3c.5.1.8.3 1 .6.2.2.3.6.4 1l.1 1.2v4.4l.4 1h-1.4a3 3 0 0 1-.3-1Zm-.1-3.2-2.3.6-1.2.2a1.2 1.2 0 0 0-.8 1.2c0 .3.1.7.4 1 .3.2.7.3 1.3.3.5 0 1-.1 1.4-.4.4-.2.8-.5 1-1l.2-1.3v-.6Zm6.7 3 .2 1.2-1.1.1c-.5 0-1 0-1.2-.2-.3-.2-.5-.4-.6-.7a5 5 0 0 1-.2-1.6v-4.8h-1v-1.1h1v-2l1.4-.9v2.9h1.5v1.1h-1.5v4.8l.1.8.3.3.4.1h.7Zm6.8-1.8 1.3.1c-.1 1-.5 1.7-1.1 2.3-.6.5-1.4.8-2.3.8-1.1 0-2-.4-2.8-1.1-.6-.8-1-1.8-1-3.2 0-1 .2-1.7.5-2.4a3 3 0 0 1 1.3-1.5 4 4 0 0 1 2-.5c.9 0 1.6.2 2.2.7.6.5 1 1.1 1.1 2l-1.4.2c0-.6-.3-1-.7-1.3-.3-.3-.7-.4-1.2-.4-.7 0-1.2.2-1.7.7-.4.5-.6 1.3-.6 2.4 0 1.2.2 2 .6 2.5.4.5 1 .7 1.7.7.5 0 1-.1 1.4-.5.3-.3.6-.8.7-1.5Zm2.5 3v-11.5h1.4v4.2c.7-.8 1.5-1.2 2.5-1.2.6 0 1.2.1 1.6.4.5.2.8.6 1 1 .2.4.3 1 .3 1.8v5.3h-1.4v-5.3c0-.7-.2-1.2-.5-1.5-.3-.3-.7-.5-1.3-.5-.4 0-.8.1-1.1.4-.4.2-.7.5-.8.8a4 4 0 0 0-.3 1.6v4.5h-1.4Zm13.4 0v-8.3h1.3v1.3l.8-1.2c.3-.2.6-.3 1-.3s.9.2 1.4.5l-.5 1.3a2 2 0 0 0-1-.3c-.3 0-.6 0-.9.3-.2.1-.4.4-.5.7l-.2 1.7v4.3H493Zm11-2.7 1.5.2c-.3.9-.7 1.5-1.3 2-.6.5-1.4.7-2.4.7-1.2 0-2.2-.4-2.9-1.1-.7-.8-1-1.8-1-3.2 0-1.4.3-2.5 1-3.2.8-.8 1.7-1.2 2.8-1.2 1.1 0 2 .4 2.8 1.1.7.8 1 1.9 1 3.2v.4h-6.2c0 1 .3 1.6.8 2.1s1 .7 1.7.7c.5 0 1-.1 1.3-.4.4-.2.7-.7 1-1.3Zm-4.6-2.2h4.6c0-.7-.2-1.3-.5-1.6-.5-.6-1-.8-1.7-.8s-1.2.2-1.7.6c-.4.5-.7 1-.7 1.8Zm13.1 8v-4c-.2.3-.5.6-.9.8l-1.2.3c-1 0-1.9-.4-2.6-1.2-.7-.8-1-1.9-1-3.2 0-.9 0-1.6.4-2.3a3.2 3.2 0 0 1 3-2c1 0 1.9.4 2.5 1.3v-1.1h1.2v11.5h-1.4Zm-4.3-7.3c0 1.1.2 1.9.7 2.4.4.6 1 .8 1.6.8a2 2 0 0 0 1.5-.7c.4-.5.7-1.3.7-2.3 0-1.2-.3-2-.7-2.5a2 2 0 0 0-1.6-.9 2 2 0 0 0-1.6.8c-.4.5-.6 1.3-.6 2.4Zm13.4 4.2v-1.2a3 3 0 0 1-2.7 1.4c-.4 0-.9-.1-1.3-.3-.5-.2-.8-.4-1-.7l-.4-1v-6.5h1.3v4.6l.1 1.5c0 .4.3.7.6.9.3.2.6.3 1 .3.5 0 .8-.1 1.2-.3.4-.3.6-.6.8-1 .2-.3.2-.8.2-1.6v-4.4h1.4v8.3h-1.2Zm9.1-2.7 1.5.2c-.2.9-.7 1.5-1.3 2-.6.5-1.4.7-2.4.7-1.2 0-2.1-.4-2.9-1.1-.7-.8-1-1.8-1-3.2 0-1.4.3-2.5 1-3.2.8-.8 1.7-1.2 2.9-1.2 1 0 2 .4 2.7 1.1.7.8 1 1.9 1 3.2v.4h-6.2c0 1 .3 1.6.8 2.1s1 .7 1.7.7c.6 0 1-.1 1.4-.4.3-.2.6-.7.8-1.3Zm-4.6-2.2h4.6c0-.7-.2-1.3-.5-1.6-.4-.6-1-.8-1.7-.8s-1.2.2-1.7.6c-.4.5-.6 1-.7 1.8Zm7.3 2.4 1.4-.2c0 .6.3 1 .6 1.3.4.3.9.4 1.5.4.7 0 1.2-.1 1.5-.4.3-.2.4-.5.4-.9 0-.3-.1-.6-.4-.7a6 6 0 0 0-1.4-.5l-2.2-.7c-.4-.2-.7-.4-.9-.8-.2-.3-.3-.7-.3-1 0-.5.1-.8.3-1.1.1-.3.4-.6.7-.8.2-.2.5-.3.9-.4l1.2-.2c.6 0 1.2.1 1.7.3.5.2.9.4 1 .8.3.3.5.7.6 1.2l-1.4.2c0-.4-.2-.7-.6-1a2 2 0 0 0-1.2-.3c-.7 0-1.1 0-1.4.3-.3.2-.4.5-.4.7 0 .2 0 .4.2.5 0 .2.3.3.5.4l1.2.4 2.1.6c.4.2.7.4 1 .8.2.3.3.7.3 1.2 0 .4-.2.9-.4 1.3-.3.4-.7.7-1.2 1-.5.2-1.1.3-1.8.3a4 4 0 0 1-2.4-.7c-.6-.4-1-1.1-1.1-2Zm11.6 1.2.2 1.3-1 .1c-.5 0-1 0-1.2-.2-.3-.2-.5-.4-.6-.7a5 5 0 0 1-.2-1.6v-4.8h-1v-1.1h1v-2l1.4-.9v2.9h1.4v1.1h-1.4v5.6l.3.3.5.1h.6Zm.8-1.2 1.4-.2c.1.6.3 1 .7 1.3.3.3.8.4 1.5.4.6 0 1.1-.1 1.4-.4.3-.2.5-.5.5-.9 0-.3-.1-.6-.4-.7-.2-.2-.7-.3-1.5-.5l-2.1-.7c-.4-.2-.7-.4-1-.8l-.2-1c0-.5 0-.8.2-1.1l.7-.8c.2-.2.5-.3 1-.4l1.1-.2c.7 0 1.3.1 1.7.3.5.2.9.4 1.1.8.3.3.4.7.5 1.2l-1.4.2c0-.4-.2-.7-.5-1a2 2 0 0 0-1.3-.3c-.6 0-1 0-1.3.3-.3.2-.5.5-.5.7l.2.5.5.4 1.3.4 2 .6c.5.2.8.4 1 .8.2.3.3.7.3 1.2 0 .4-.1.9-.4 1.3-.2.4-.6.7-1.2 1-.5.2-1 .3-1.7.3a4 4 0 0 1-2.5-.7c-.5-.4-.9-1.1-1-2Zm12.5 0 1.4-.2c0 .6.3 1 .6 1.3.4.3.9.4 1.5.4.7 0 1.2-.1 1.5-.4.3-.2.4-.5.4-.9 0-.3 0-.6-.4-.7-.2-.2-.6-.3-1.4-.5l-2.2-.7c-.4-.2-.7-.4-.9-.8-.2-.3-.3-.7-.3-1 0-.5.1-.8.3-1.1l.7-.8c.2-.2.5-.3.9-.4l1.2-.2c.6 0 1.2.1 1.7.3.5.2.9.4 1 .8.3.3.5.7.6 1.2l-1.4.2c0-.4-.2-.7-.5-1a2 2 0 0 0-1.3-.3c-.7 0-1.1 0-1.4.3-.3.2-.4.5-.4.7 0 .2 0 .4.2.5 0 .2.3.3.5.4l1.2.4 2.1.6c.4.2.7.4 1 .8.2.3.3.7.3 1.2 0 .4-.1.9-.4 1.3-.3.4-.7.7-1.2 1-.5.2-1.1.3-1.8.3a4 4 0 0 1-2.4-.7c-.6-.4-1-1.1-1.1-2Zm14.2-.2 1.5.2c-.2.9-.7 1.5-1.3 2-.6.5-1.4.7-2.4.7-1.2 0-2.1-.4-2.8-1.1-.8-.8-1.1-1.8-1.1-3.2 0-1.4.4-2.5 1-3.2.8-.8 1.7-1.2 2.9-1.2 1 0 2 .4 2.7 1.1.7.8 1 1.9 1 3.2v.4H568c.1 1 .4 1.6.8 2.1.5.5 1 .7 1.8.7.5 0 1-.1 1.3-.4.3-.2.6-.7.8-1.3Zm-4.6-2.2h4.7c-.1-.7-.3-1.3-.6-1.6-.4-.6-1-.8-1.7-.8s-1.2.2-1.6.6c-.5.5-.7 1-.8 1.8Zm7.9 4.9v-8.3h1.2v1.2a3 3 0 0 1 2.7-1.4c.5 0 1 .1 1.3.3.5.2.8.4 1 .7l.4 1 .1 1.4v5.1h-1.4v-5c0-.6 0-1-.2-1.3 0-.3-.3-.5-.5-.7-.3-.2-.6-.3-1-.3-.6 0-1.1.2-1.6.6-.4.4-.6 1.1-.6 2.2v4.5h-1.4Zm12-1.3.1 1.3-1 .1c-.5 0-1 0-1.2-.2-.3-.2-.5-.4-.6-.7a5 5 0 0 1-.2-1.6v-4.8h-1v-1.1h1v-2l1.4-.9v2.9h1.4v1.1h-1.4v4.8l.1.8.2.3.5.1h.6Zm6.1 1.3v-7.2h-1.2v-1.1h1.2v-.9c0-.5 0-1 .2-1.2.1-.4.3-.7.7-1l1.4-.2h1.3l-.2 1.3h-.8c-.4 0-.7 0-1 .2l-.2 1v.8h1.6v1.1h-1.6v7.2H594Zm4.1 0v-8.3h1.3v1.3c.3-.6.6-1 .9-1.2.2-.2.6-.3.9-.3.5 0 1 .2 1.4.5l-.5 1.3a2 2 0 0 0-1-.3c-.3 0-.6 0-.8.3-.3.1-.4.4-.5.7-.2.5-.3 1-.3 1.7v4.3h-1.4Zm4.8-4.1c0-1.6.5-2.7 1.3-3.5.7-.6 1.6-.9 2.6-.9 1.2 0 2.1.4 2.8 1.1.7.8 1.1 1.8 1.1 3.1 0 1.1-.2 2-.5 2.6-.3.6-.8 1-1.4 1.4a4 4 0 0 1-2 .5c-1.1 0-2-.4-2.8-1.1-.7-.8-1-1.8-1-3.2Zm1.5 0c0 1 .2 1.8.7 2.3.4.6 1 .8 1.7.8s1.3-.2 1.8-.8c.4-.5.7-1.3.7-2.4 0-1-.3-1.8-.7-2.3-.5-.6-1-.8-1.8-.8-.7 0-1.3.2-1.7.8-.5.5-.7 1.3-.7 2.4Zm8 4.1v-8.3h1.2v1.2a3 3 0 0 1 2.5-1.4c.7 0 1.2.1 1.5.4.4.3.7.6.9 1a3 3 0 0 1 2.5-1.4c.9 0 1.5.2 2 .7.4.5.6 1.2.6 2.1v5.7h-1.4v-5.2l-.1-1.2c-.1-.3-.3-.5-.5-.6-.3-.2-.5-.3-.9-.3a2 2 0 0 0-1.4.6c-.4.4-.6 1-.6 1.9v4.8h-1.4v-5.4c0-.6-.1-1-.3-1.4-.3-.3-.7-.5-1.2-.5a2 2 0 0 0-1 .3c-.4.3-.6.6-.8 1-.2.4-.2 1-.2 1.7v4.3h-1.4Zm22.6-2.6 2.2.3c-.2.8-.7 1.4-1.3 1.9a4 4 0 0 1-2.3.6c-1.4 0-2.5-.5-3.2-1.4-.5-.8-.8-1.7-.8-2.9 0-1.4.4-2.4 1-3.2.8-.8 1.7-1.2 2.8-1.2 1.2 0 2.2.4 3 1.2.6.9 1 2.1 1 3.8h-5.5c0 .6.1 1.1.5 1.5.3.4.7.5 1.2.5.4 0 .7 0 1-.2l.4-1Zm.2-2.3c0-.6-.2-1-.5-1.4-.3-.3-.7-.5-1.2-.5-.4 0-.8.2-1.1.5a2 2 0 0 0-.5 1.4h3.3Zm2.9 4.9 3-4.3-2.9-4h2.7l1.5 2.3 1.5-2.3h2.6l-2.8 4 3 4.3h-2.6l-1.7-2.6-1.7 2.6H638Zm11.6-5.8-2-.3c.2-.8.6-1.4 1.2-1.8.5-.4 1.3-.6 2.4-.6 1 0 1.7.1 2.2.4.5.2.8.5 1 .8.2.4.3 1 .3 2v4.2l.5 1.1H653a7.7 7.7 0 0 1-.3-1 4 4 0 0 1-1.2 1l-1.4.2c-.8 0-1.5-.2-2-.7-.5-.5-.7-1-.7-1.8 0-.4 0-.9.3-1.2.2-.4.5-.7 1-.9l1.7-.5c1-.2 1.7-.3 2.1-.5v-.2c0-.5 0-.8-.3-1l-1.2-.2c-.4 0-.7 0-.9.2-.2.2-.4.4-.5.8Zm3 1.8-1.4.4a4 4 0 0 0-1.2.3 1 1 0 0 0-.4.8c0 .3 0 .6.3.8.2.2.5.3.9.3s.8 0 1.1-.3c.3-.2.5-.5.5-.8l.1-1v-.5Zm4.1-4.3h2v1.1c.7-.8 1.6-1.3 2.6-1.3.5 0 1 .1 1.4.3l1 1 1.1-1c.5-.2.9-.3 1.4-.3a3 3 0 0 1 1.5.4c.5.2.8.6 1 1l.2 1.8v5.3h-2.2v-4.7c0-.9 0-1.4-.2-1.6-.2-.3-.5-.5-1-.5-.3 0-.6 0-.8.3-.3.2-.5.4-.6.8l-.2 1.7v4h-2.2v-4.5l-.1-1.6a1 1 0 0 0-.4-.5l-.6-.2c-.4 0-.7 0-1 .3-.2.2-.4.4-.5.8a6 6 0 0 0-.2 1.7v4h-2.2v-8.3Zm14.3 0h2v1.2a3 3 0 0 1 2.7-1.4c1 0 1.7.4 2.4 1.1.7.8 1 1.9 1 3.2 0 1.4-.3 2.5-1 3.2a3.2 3.2 0 0 1-3.7 1l-1.2-1v4.2h-2.2v-11.5Zm2.2 4c0 1 .2 1.6.6 2 .3.5.8.7 1.3.7s1-.2 1.3-.6c.3-.4.5-1 .5-2 0-.8-.2-1.5-.5-2-.4-.3-.8-.5-1.3-.5-.6 0-1 .2-1.4.6-.3.4-.5 1-.5 1.8Zm7.7 4.3v-11.5h2.2V125H681Zm9.2-2.6 2.2.3c-.3.8-.7 1.4-1.3 1.9a4 4 0 0 1-2.3.6c-1.4 0-2.5-.5-3.2-1.4-.5-.8-.8-1.7-.8-2.9 0-1.4.3-2.4 1-3.2.8-.8 1.7-1.2 2.8-1.2 1.2 0 2.2.4 3 1.2.6.9 1 2.1 1 3.8H687c0 .6.2 1.1.6 1.5.3.4.7.5 1.2.5.4 0 .7 0 .9-.2.2-.2.4-.5.5-1Zm.2-2.3c0-.6-.2-1-.5-1.4-.3-.3-.7-.5-1.2-.5s-.8.2-1.2.5a2 2 0 0 0-.4 1.4h3.3Zm4 4.9v-2.2h2.1v2.2h-2.2Zm11.6-5.8-2.1.3-.5-1c-.3-.1-.6-.3-1-.3-.6 0-1 .2-1.4.6-.3.4-.4 1-.4 1.9 0 1 .1 1.7.5 2 .3.5.7.7 1.3.7.4 0 .7-.1 1-.4.3-.2.5-.6.6-1.2l2.1.4c-.2 1-.6 1.7-1.3 2.2a4 4 0 0 1-2.5.8c-1.2 0-2.2-.4-3-1.2-.6-.7-1-1.8-1-3.1 0-1.4.4-2.5 1-3.2.8-.8 1.8-1.2 3-1.2 1 0 1.8.2 2.4.7.6.4 1 1 1.3 2Zm1.2 1.5c0-.7.2-1.4.5-2 .4-.8.9-1.3 1.5-1.6.7-.4 1.4-.6 2.3-.6a4.1 4.1 0 0 1 4.3 4.3c0 1.3-.5 2.3-1.3 3.2-.8.8-1.8 1.2-3 1.2-.8 0-1.5-.2-2.2-.5-.7-.4-1.2-.9-1.6-1.5a5 5 0 0 1-.5-2.5Zm2.2.2c0 .8.2 1.4.6 1.8.4.5.9.7 1.5.7.5 0 1-.2 1.4-.7.4-.4.6-1 .6-1.9 0-.8-.2-1.4-.6-1.8-.4-.5-.9-.7-1.4-.7-.6 0-1 .2-1.5.7-.4.4-.6 1-.6 1.9Zm8-4.2h2v1.1c.7-.8 1.5-1.3 2.5-1.3.6 0 1 .1 1.4.3l1 1 1.1-1 1.4-.3a3 3 0 0 1 1.5.4c.5.2.8.6 1 1l.2 1.8v5.3h-2.2v-4.7c0-.9 0-1.4-.2-1.6-.2-.3-.5-.5-1-.5-.3 0-.5 0-.8.3-.3.2-.5.4-.6.8l-.2 1.7v4h-2.2v-6.1a1 1 0 0 0-.5-.5l-.6-.2c-.4 0-.7 0-1 .3-.2.2-.4.4-.5.8a6 6 0 0 0-.2 1.7v4h-2.2v-8.3ZM230.4 199v-11.5h2.3l2.7 8.2.5 1.7.6-1.9 2.8-8h2V199H240v-9.6l-3.4 9.6h-1.3l-3.4-9.8v9.8h-1.4Zm12.7-4.1c0-1.6.4-2.7 1.2-3.5.8-.6 1.6-.9 2.6-.9 1.2 0 2.1.4 2.8 1.1.8.8 1.1 1.8 1.1 3.1 0 1.1-.1 2-.5 2.6-.3.6-.7 1-1.4 1.4a4 4 0 0 1-2 .5c-1.1 0-2-.4-2.8-1.1-.7-.8-1-1.8-1-3.2Zm1.4 0c0 1 .2 1.8.7 2.3.5.6 1 .8 1.8.8.6 0 1.2-.2 1.7-.8.5-.5.7-1.3.7-2.4 0-1-.2-1.8-.7-2.3-.5-.6-1-.8-1.8-.8-.7 0-1.2.2-1.7.8-.5.5-.7 1.3-.7 2.4Zm13.4 4.1v-1c-.6.8-1.3 1.2-2.3 1.2a3.6 3.6 0 0 1-3.1-2c-.4-.7-.5-1.5-.5-2.3 0-.9.1-1.6.4-2.3a3.3 3.3 0 0 1 4.4-1.8c.4.2.7.5 1 .9v-4.2h1.4V199h-1.3Zm-4.5-4.1c0 1 .3 1.8.7 2.3.4.6 1 .8 1.6.8a2 2 0 0 0 1.5-.7c.5-.5.7-1.3.7-2.3 0-1.2-.2-2-.7-2.5a2 2 0 0 0-3.1 0c-.5.5-.7 1.3-.7 2.4Zm8-5.7v-1.7h1.4v1.7h-1.4Zm0 9.8v-8.3h1.4v8.3h-1.4Zm3.9 0v-7.2H264v-1.1h1.2v-.9l.1-1.2c.2-.4.4-.7.8-1l1.4-.2h1.3l-.2 1.3h-.8c-.5 0-.8 0-1 .2l-.2 1v.8h1.6v1.1h-1.6v7.2h-1.4Zm4.1-9.8v-1.7h1.4v1.7h-1.4Zm0 9.8v-8.3h1.4v8.3h-1.4Zm9.3-2.7 1.4.2c-.2.9-.6 1.5-1.3 2-.6.5-1.4.7-2.3.7-1.3 0-2.2-.4-3-1.1-.6-.8-1-1.8-1-3.2 0-1.4.4-2.5 1-3.2.8-.8 1.7-1.2 2.9-1.2 1 0 2 .4 2.7 1.1.7.8 1 1.9 1 3.2v.4H274c0 1 .3 1.6.7 2.1.5.5 1 .7 1.8.7.5 0 1-.1 1.3-.4.4-.2.6-.7.9-1.3Zm-4.7-2.2h4.7c0-.7-.3-1.3-.6-1.6-.4-.6-1-.8-1.7-.8s-1.2.2-1.6.6c-.5.5-.7 1-.8 1.8Zm7.9 4.9v-8.3h1.2v1.3c.4-.6.6-1 1-1.2.2-.2.5-.3.8-.3.5 0 1 .2 1.5.5l-.5 1.3a2 2 0 0 0-1-.3c-.4 0-.6 0-.9.3-.2.1-.4.4-.5.7-.2.5-.2 1-.2 1.7v4.3h-1.4Zm4.7-2.5 1.4-.2c.1.6.3 1 .7 1.3.3.3.8.4 1.5.4.6 0 1.1-.1 1.4-.4.3-.2.5-.5.5-.9 0-.3-.1-.6-.4-.7-.2-.2-.7-.3-1.5-.5l-2.1-.7c-.4-.2-.7-.4-1-.8l-.2-1c0-.5 0-.8.2-1.1l.7-.8c.2-.2.5-.3 1-.4l1.1-.2c.7 0 1.3.1 1.7.3.5.2.9.4 1.1.8.3.3.4.7.5 1.2l-1.4.2c0-.4-.2-.7-.5-1a2 2 0 0 0-1.3-.3c-.6 0-1 0-1.3.3-.3.2-.5.5-.5.7l.2.5c.1.2.3.3.6.4l1.2.4 2 .6c.5.2.8.4 1 .8.2.3.3.7.3 1.2 0 .4-.1.9-.4 1.3-.2.4-.6.7-1.2 1-.5.2-1 .3-1.7.3a4 4 0 0 1-2.5-.7c-.5-.4-.9-1.1-1-2Zm12.5 0 1.4-.2c0 .6.3 1 .6 1.3.4.3.9.4 1.5.4.7 0 1.2-.1 1.5-.4.3-.2.4-.5.4-.9 0-.3 0-.6-.4-.7-.2-.2-.6-.3-1.4-.5l-2.2-.7c-.4-.2-.7-.4-.9-.8-.2-.3-.3-.7-.3-1 0-.5.1-.8.3-1.1l.7-.8c.2-.2.5-.3.9-.4l1.2-.2c.6 0 1.2.1 1.7.3.5.2.9.4 1 .8.3.3.5.7.6 1.2l-1.4.2c0-.4-.2-.7-.5-1a2 2 0 0 0-1.3-.3c-.7 0-1.1 0-1.4.3-.3.2-.4.5-.4.7 0 .2 0 .4.2.5 0 .2.3.3.5.4l1.2.4 2.1.6c.4.2.7.4 1 .8.2.3.3.7.3 1.2 0 .4-.1.9-.4 1.3-.3.4-.7.7-1.2 1-.5.2-1.1.3-1.8.3a4 4 0 0 1-2.4-.7c-.6-.4-1-1.1-1.1-2Zm14.2-.2 1.5.2c-.2.9-.7 1.5-1.3 2-.6.5-1.4.7-2.4.7-1.2 0-2.1-.4-2.8-1.1-.8-.8-1.1-1.8-1.1-3.2 0-1.4.4-2.5 1-3.2.8-.8 1.7-1.2 2.9-1.2 1 0 2 .4 2.7 1.1.7.8 1 1.9 1 3.2v.4h-6.2c.1 1 .4 1.6.8 2.1.5.5 1 .7 1.8.7.5 0 1-.1 1.3-.4.3-.2.6-.7.8-1.3Zm-4.6-2.2h4.7c-.1-.7-.3-1.3-.6-1.6-.4-.6-1-.8-1.7-.8s-1.2.2-1.7.6c-.4.5-.6 1-.7 1.8Zm7.9 8v-11.4h1.2v1l1-.9 1.5-.3c.7 0 1.3.2 1.8.6.6.3 1 .8 1.3 1.5.2.7.4 1.4.4 2.2 0 .8-.2 1.6-.5 2.3a3.4 3.4 0 0 1-3.1 2c-.5 0-1 0-1.3-.2l-1-.8v4h-1.3Zm1.2-7.2c0 1 .3 1.9.7 2.4.4.5 1 .7 1.6.7a2 2 0 0 0 1.6-.8c.4-.5.6-1.3.6-2.4 0-1-.2-1.9-.6-2.4a2 2 0 0 0-1.6-.8c-.6 0-1.1.3-1.6.9-.4.5-.7 1.3-.7 2.4Zm13 3c-.4.5-1 .8-1.4 1-.5.2-1 .3-1.6.3-.9 0-1.6-.2-2-.7-.6-.4-.8-1-.8-1.7a2.3 2.3 0 0 1 1-2l1-.4 1.3-.2c1.1-.1 2-.3 2.5-.5v-.3c0-.6-.2-1-.4-1.2-.4-.4-1-.5-1.6-.5-.7 0-1.2.1-1.5.3-.3.3-.5.7-.7 1.3l-1.4-.2.7-1.5c.2-.3.7-.6 1.2-.8.5-.2 1.2-.3 1.9-.3a5 5 0 0 1 1.7.3c.5.1.8.3 1 .6.2.2.3.6.4 1v3.2l.2 2.4c0 .4.2.7.3 1h-1.4a3 3 0 0 1-.3-1Zm0-3-2.3.5-1.3.2a1.2 1.2 0 0 0-.7 1.2c0 .3.1.7.4 1 .3.2.7.3 1.3.3.5 0 1-.1 1.4-.4.4-.2.7-.5 1-1l.2-1.3v-.6Zm3.6 4.1v-8.3h1.2v1.3c.4-.6.6-1 1-1.2.2-.2.5-.3.8-.3.5 0 1 .2 1.5.5l-.5 1.3a2 2 0 0 0-1-.3c-.4 0-.6 0-.9.3-.2.1-.4.4-.5.7-.2.5-.2 1-.2 1.7v4.3h-1.4Zm10.7-1-1.5 1-1.5.2c-1 0-1.6-.2-2.1-.7-.5-.4-.8-1-.8-1.7a2.3 2.3 0 0 1 1-2l1-.4 1.3-.2c1.1-.1 2-.3 2.5-.5v-.3c0-.6-.1-1-.4-1.2-.3-.4-.9-.5-1.6-.5-.6 0-1.1.1-1.5.3-.3.3-.5.7-.7 1.3l-1.3-.2c.1-.6.3-1 .6-1.5.3-.3.7-.6 1.2-.8.6-.2 1.2-.3 2-.3a5 5 0 0 1 1.6.3c.5.1.8.3 1 .6l.5 1v3.2l.1 2.4c0 .4.2.7.4 1h-1.5a3 3 0 0 1-.3-1Zm-.1-3.2-2.3.6-1.2.2a1.2 1.2 0 0 0-.8 1.2c0 .3.2.7.5 1 .2.2.7.3 1.2.3s1-.1 1.4-.4c.5-.2.8-.5 1-1l.2-1.3v-.6Zm6.7 3 .2 1.2-1 .1c-.6 0-1 0-1.3-.2l-.6-.7a5 5 0 0 1-.1-1.6v-4.8h-1v-1.1h1v-2l1.4-.9v2.9h1.4v1.1h-1.4v5.6l.3.3.5.1h.6Zm.8-3c0-1.5.5-2.6 1.3-3.4.7-.6 1.6-.9 2.6-.9 1.2 0 2.1.4 2.8 1.1.8.8 1.1 1.8 1.1 3.1 0 1.1-.1 2-.5 2.6-.3.6-.8 1-1.4 1.4a4 4 0 0 1-2 .5c-1.1 0-2-.4-2.8-1.1-.7-.8-1-1.8-1-3.2Zm1.5 0c0 1.1.2 2 .7 2.4.4.6 1 .8 1.7.8s1.3-.2 1.8-.8c.4-.5.7-1.3.7-2.4 0-1-.3-1.8-.7-2.3-.5-.6-1-.8-1.8-.8-.7 0-1.3.2-1.7.8-.5.5-.7 1.3-.7 2.4Zm8 4.2v-8.3h1.2v1.3c.3-.6.6-1 1-1.2.2-.2.5-.3.8-.3.5 0 1 .2 1.5.5l-.5 1.3a2 2 0 0 0-1-.3c-.4 0-.6 0-.9.3-.2.1-.4.4-.5.7-.2.5-.2 1-.2 1.7v4.3H362Zm4.8 0v-1.6h1.6v1.6h-1.6Zm11.3 0v-10.1h-3.8v-1.4h9.1v1.4h-3.8V199h-1.5Zm6.7 0v-11.5h1.4v4.2c.7-.8 1.5-1.2 2.5-1.2.6 0 1.1.1 1.6.4.4.2.8.6 1 1 .2.4.3 1 .3 1.8v5.3h-1.4v-5.3c0-.7-.2-1.2-.5-1.5-.3-.3-.7-.5-1.3-.5-.4 0-.8.1-1.2.4l-.8.8a4 4 0 0 0-.2 1.6v4.5h-1.4Zm9-9.8v-1.7h1.3v1.7h-1.4Zm0 9.8v-8.3h1.3v8.3h-1.4Zm3-2.5 1.3-.2c0 .6.3 1 .6 1.3.4.3 1 .4 1.5.4.7 0 1.2-.1 1.5-.4.3-.2.5-.5.5-.9 0-.3-.2-.6-.5-.7-.2-.2-.6-.3-1.4-.5l-2.1-.7c-.4-.2-.7-.4-1-.8-.2-.3-.3-.7-.3-1 0-.5.1-.8.3-1.1l.7-.8c.2-.2.5-.3.9-.4l1.2-.2c.6 0 1.2.1 1.7.3.5.2.9.4 1.1.8l.5 1.2-1.4.2c0-.4-.2-.7-.5-1a2 2 0 0 0-1.3-.3c-.6 0-1.1 0-1.4.3-.3.2-.4.5-.4.7 0 .2 0 .4.2.5 0 .2.3.3.5.4l1.3.4 2 .6c.4.2.7.4 1 .8.2.3.3.7.3 1.2 0 .4-.1.9-.4 1.3-.3.4-.7.7-1.2 1-.5.2-1 .3-1.7.3a4 4 0 0 1-2.5-.7c-.6-.4-1-1.1-1-2Zm18.3-.5 1.4.1c-.1 1-.5 1.7-1.1 2.3-.7.5-1.4.8-2.3.8-1.2 0-2-.4-2.8-1.1-.7-.8-1-1.8-1-3.2 0-1 .1-1.7.4-2.4a3 3 0 0 1 1.4-1.5 4 4 0 0 1 2-.5c.9 0 1.6.2 2.2.7.6.5 1 1.1 1 2l-1.3.2c-.1-.6-.3-1-.7-1.3-.3-.3-.7-.4-1.2-.4-.7 0-1.3.2-1.7.7-.4.5-.7 1.3-.7 2.4 0 1.2.3 2 .7 2.5.4.5 1 .7 1.7.7.5 0 1-.1 1.3-.5.4-.3.6-.8.7-1.5Zm2.6 3v-11.5h1.4v4.2c.7-.8 1.5-1.2 2.5-1.2.6 0 1.2.1 1.6.4.5.2.8.6 1 1 .2.4.3 1 .3 1.8v5.3H423v-5.3c0-.7-.2-1.2-.5-1.5-.3-.3-.7-.5-1.3-.5-.4 0-.8.1-1.2.4-.3.2-.6.5-.7.8a4 4 0 0 0-.3 1.6v4.5h-1.4Zm14.3-1-1.5 1-1.5.2c-1 0-1.6-.2-2.1-.7-.5-.4-.7-1-.7-1.7a2.3 2.3 0 0 1 1-2l1-.4 1.2-.2c1.2-.1 2-.3 2.5-.5v-.3c0-.6-.1-1-.4-1.2-.3-.4-.9-.5-1.6-.5-.6 0-1.1.1-1.4.3-.3.3-.6.7-.7 1.3l-1.4-.2c.1-.6.3-1 .6-1.5.3-.3.7-.6 1.3-.8.5-.2 1.1-.3 1.8-.3a5 5 0 0 1 1.8.3c.4.1.7.3 1 .6l.4 1v3.2l.1 2.4.4 1h-1.5a3 3 0 0 1-.3-1Zm0-3.2-2.4.6-1.2.2a1.2 1.2 0 0 0-.3 2.1c.3.3.7.4 1.2.4.6 0 1-.1 1.5-.4.4-.2.7-.5.9-1 .2-.3.2-.7.2-1.3v-.6Zm3.5 4.2v-8.3h1.3v1.3c.3-.6.6-1 .9-1.2l.9-.3c.5 0 1 .2 1.4.5l-.5 1.3a2 2 0 0 0-1-.3c-.3 0-.6 0-.8.3-.3.1-.4.4-.5.7-.2.5-.3 1-.3 1.7v4.3h-1.4Zm10.8-1-1.5 1-1.6.2c-.9 0-1.6-.2-2-.7-.6-.4-.8-1-.8-1.7a2.3 2.3 0 0 1 1-2l1-.4 1.3-.2 2.5-.5v-.3c0-.6-.2-1-.4-1.2-.4-.4-1-.5-1.6-.5-.7 0-1.2.1-1.5.3-.3.3-.5.7-.7 1.3l-1.4-.2.6-1.5c.3-.3.7-.6 1.3-.8.5-.2 1.2-.3 1.9-.3a5 5 0 0 1 1.7.3c.4.1.8.3 1 .6.2.2.3.6.4 1v3.2l.2 2.4c0 .4.2.7.3 1h-1.4a3 3 0 0 1-.3-1Zm-.1-3.2-2.3.6-1.3.2a1.2 1.2 0 0 0-.7 1.2c0 .3.1.7.4 1 .3.2.7.3 1.3.3.5 0 1-.1 1.4-.4.4-.2.7-.5 1-1l.2-1.3v-.6Zm9 1.2 1.4.1c-.2 1-.6 1.7-1.2 2.3-.6.5-1.4.8-2.3.8-1.1 0-2-.4-2.7-1.1-.7-.8-1-1.8-1-3.2 0-1 0-1.7.4-2.4a3 3 0 0 1 1.3-1.5 4 4 0 0 1 2-.5c1 0 1.7.2 2.2.7.6.5 1 1.1 1.1 2l-1.3.2c-.2-.6-.4-1-.7-1.3-.4-.3-.8-.4-1.2-.4-.7 0-1.3.2-1.8.7-.4.5-.6 1.3-.6 2.4 0 1.2.2 2 .6 2.5.5.5 1 .7 1.7.7.6 0 1-.1 1.4-.5.4-.3.6-.8.7-1.5Zm5.6 1.7.2 1.3-1 .1c-.5 0-1 0-1.2-.2-.3-.2-.5-.4-.6-.7a5 5 0 0 1-.2-1.6v-4.8h-1v-1.1h1v-2l1.4-.9v2.9h1.4v1.1h-1.4v4.8l.1.8.2.3.5.1h.6Zm7.1-1.4 1.5.2c-.3.9-.7 1.5-1.3 2-.6.5-1.4.7-2.4.7-1.2 0-2.2-.4-2.9-1.1-.7-.8-1-1.8-1-3.2 0-1.4.3-2.5 1-3.2.8-.8 1.7-1.2 2.8-1.2 1.1 0 2 .4 2.7 1.1.8.8 1.1 1.9 1.1 3.2v.4h-6.2c0 1 .3 1.6.8 2.1.4.5 1 .7 1.7.7.5 0 1-.1 1.3-.4.4-.2.7-.7.9-1.3Zm-4.6-2.2h4.6c0-.7-.2-1.3-.5-1.6-.5-.6-1-.8-1.8-.8-.6 0-1.1.2-1.6.6-.4.5-.7 1-.7 1.8Zm7.8 4.9v-8.3h1.3v1.3c.3-.6.6-1 .9-1.2.2-.2.5-.3.9-.3.5 0 1 .2 1.4.5l-.5 1.3a2 2 0 0 0-1-.3c-.3 0-.6 0-.8.3-.3.1-.4.4-.5.7-.2.5-.3 1-.3 1.7v4.3h-1.4Zm15.2 0v-1c-.5.8-1.3 1.2-2.3 1.2a3.6 3.6 0 0 1-3.1-2 5.9 5.9 0 0 1 0-4.5 3.3 3.3 0 0 1 4.3-1.9c.4.2.8.5 1 .9v-4.2h1.4V199h-1.3Zm-4.5-4.1c0 1 .3 1.8.7 2.3.5.6 1 .8 1.6.8a2 2 0 0 0 1.6-.7c.4-.5.6-1.3.6-2.3 0-1.2-.2-2-.6-2.5a2 2 0 0 0-3.2 0c-.4.5-.7 1.3-.7 2.4Zm8-5.7v-1.7h1.4v1.7h-1.4Zm0 9.8v-8.3h1.4v8.3h-1.4Zm5.9 0-3.2-8.3h1.5l1.8 5 .5 1.6.5-1.5 1.9-5.1h1.4L497 199h-1.3Zm5.7-9.8v-1.7h1.4v1.7h-1.4Zm0 9.8v-8.3h1.4v8.3h-1.4Zm9 0v-1c-.6.8-1.4 1.2-2.4 1.2-.7 0-1.3-.2-1.8-.6-.6-.3-1-.8-1.3-1.5-.3-.6-.5-1.4-.5-2.2 0-.9.2-1.6.4-2.3a3.3 3.3 0 0 1 3.1-2 2.7 2.7 0 0 1 2.3 1v-4h1.4V199h-1.3Zm-4.5-4.1c0 1 .2 1.8.7 2.3.4.6 1 .8 1.5.8a2 2 0 0 0 1.6-.7c.4-.5.6-1.3.6-2.3 0-1.2-.2-2-.6-2.5a2 2 0 0 0-3.2 0c-.4.5-.6 1.3-.6 2.4Zm13.6 1.4 1.5.2c-.2.9-.7 1.5-1.3 2-.6.5-1.4.7-2.4.7-1.2 0-2.1-.4-2.9-1.1-.7-.8-1-1.8-1-3.2 0-1.4.3-2.5 1-3.2.8-.8 1.7-1.2 2.9-1.2 1 0 2 .4 2.7 1.1.7.8 1 1.9 1 3.2v.4h-6.2c0 1 .3 1.6.8 2.1s1 .7 1.7.7c.6 0 1-.1 1.4-.4.3-.2.6-.7.8-1.3Zm-4.6-2.2h4.6c0-.7-.2-1.3-.5-1.6-.4-.6-1-.8-1.7-.8s-1.2.2-1.7.6c-.4.5-.6 1-.7 1.8Zm7.3 2.4 1.4-.2c0 .6.3 1 .6 1.3.4.3.9.4 1.5.4.7 0 1.2-.1 1.5-.4.3-.2.4-.5.4-.9 0-.3-.1-.6-.4-.7a6 6 0 0 0-1.4-.5l-2.2-.7c-.4-.2-.7-.4-.9-.8-.2-.3-.3-.7-.3-1 0-.5.1-.8.3-1.1.1-.3.4-.6.7-.8.2-.2.5-.3.9-.4l1.2-.2c.6 0 1.2.1 1.7.3.5.2.9.4 1 .8.3.3.5.7.6 1.2l-1.4.2c0-.4-.2-.7-.6-1a2 2 0 0 0-1.2-.3c-.7 0-1.1 0-1.4.3-.3.2-.4.5-.4.7 0 .2 0 .4.2.5 0 .2.3.3.5.4l1.2.4 2.1.6c.4.2.7.4 1 .8.2.3.3.7.3 1.2 0 .4-.2.9-.4 1.3-.3.4-.7.7-1.2 1-.5.2-1.1.3-1.8.3a4 4 0 0 1-2.4-.7c-.6-.4-1-1.1-1.1-2Zm18.4 1.5-1.5 1-1.5.2c-1 0-1.6-.2-2.1-.7-.5-.4-.8-1-.8-1.7a2.3 2.3 0 0 1 1-2l1-.4 1.3-.2c1.1-.1 2-.3 2.5-.5v-.3c0-.6-.1-1-.4-1.2-.3-.4-.9-.5-1.6-.5-.6 0-1.1.1-1.5.3-.3.3-.5.7-.7 1.3l-1.3-.2c.1-.6.3-1 .6-1.5.3-.3.7-.6 1.2-.8.6-.2 1.2-.3 2-.3a5 5 0 0 1 1.6.3c.5.1.8.3 1 .6l.5 1v3.2l.1 2.4c0 .4.2.7.4 1h-1.5a3 3 0 0 1-.3-1Zm-.1-3.2-2.3.6-1.2.2a1.2 1.2 0 0 0-.8 1.2c0 .3.2.7.5 1 .2.2.7.3 1.2.3s1-.1 1.4-.4c.5-.2.8-.5 1-1l.2-1.3v-.6Zm9 4.2v-1c-.5.8-1.3 1.2-2.3 1.2a3.6 3.6 0 0 1-3.1-2 5.9 5.9 0 0 1 0-4.5 3.3 3.3 0 0 1 4.4-1.9c.3.2.7.5.9.9v-4.2h1.4V199h-1.3Zm-4.4-4.1c0 1 .2 1.8.6 2.3.5.6 1 .8 1.6.8a2 2 0 0 0 1.6-.7c.4-.5.6-1.3.6-2.3 0-1.2-.2-2-.6-2.5a2 2 0 0 0-3.2 0c-.4.5-.6 1.3-.6 2.4Zm13.3 4.1v-1c-.5.8-1.3 1.2-2.3 1.2-.7 0-1.3-.2-1.8-.6-.6-.3-1-.8-1.3-1.5-.3-.6-.5-1.4-.5-2.2 0-.9.2-1.6.4-2.3a3.3 3.3 0 0 1 3.1-2 2.7 2.7 0 0 1 2.3 1v-4h1.4V199h-1.3Zm-4.4-4.1c0 1 .2 1.8.6 2.3.5.6 1 .8 1.6.8a2 2 0 0 0 1.6-.7c.4-.5.6-1.3.6-2.3 0-1.2-.2-2-.6-2.5a2 2 0 0 0-3.2 0c-.4.5-.6 1.3-.6 2.4Zm8 4.1v-8.3h1.2v1.3c.3-.6.6-1 .9-1.2.2-.2.5-.3.9-.3s1 .2 1.4.5l-.5 1.3a2 2 0 0 0-1-.3c-.3 0-.6 0-.8.3-.3.1-.4.4-.5.7-.2.5-.3 1-.3 1.7v4.3H562Zm11-2.7 1.4.2c-.2.9-.7 1.5-1.3 2-.6.5-1.4.7-2.4.7-1.2 0-2.1-.4-2.9-1.1-.7-.8-1-1.8-1-3.2 0-1.4.3-2.5 1-3.2.8-.8 1.7-1.2 2.9-1.2 1 0 2 .4 2.7 1.1.7.8 1 1.9 1 3.2v.4h-6.2c0 1 .3 1.6.8 2.1s1 .7 1.7.7c.6 0 1-.1 1.4-.4.3-.2.6-.7.8-1.3Zm-4.7-2.2h4.7c-.1-.7-.3-1.3-.6-1.6-.4-.6-1-.8-1.7-.8s-1.2.2-1.7.6c-.4.5-.6 1-.7 1.8Zm7.3 2.4 1.4-.2c0 .6.3 1 .6 1.3.4.3.9.4 1.5.4.7 0 1.2-.1 1.5-.4.3-.2.4-.5.4-.9 0-.3 0-.6-.4-.7-.2-.2-.6-.3-1.4-.5l-2.2-.7c-.4-.2-.7-.4-.9-.8-.2-.3-.3-.7-.3-1 0-.5.1-.8.3-1.1l.7-.8c.2-.2.5-.3.9-.4l1.2-.2c.6 0 1.2.1 1.7.3.5.2.9.4 1 .8.3.3.5.7.6 1.2l-1.4.2c0-.4-.2-.7-.5-1a2 2 0 0 0-1.3-.3c-.7 0-1.1 0-1.4.3-.3.2-.4.5-.4.7 0 .2 0 .4.2.5 0 .2.3.3.5.4l1.2.4 2.1.6c.4.2.7.4 1 .8.2.3.3.7.3 1.2 0 .4-.1.9-.4 1.3-.3.4-.7.7-1.2 1-.5.2-1.1.3-1.8.3a4 4 0 0 1-2.4-.7c-.6-.4-1-1.1-1.1-2Zm8 0 1.4-.2c0 .6.3 1 .6 1.3.4.3.9.4 1.5.4.7 0 1.2-.1 1.5-.4.3-.2.4-.5.4-.9 0-.3 0-.6-.4-.7-.2-.2-.6-.3-1.4-.5l-2.2-.7c-.4-.2-.7-.4-.9-.8-.2-.3-.3-.7-.3-1 0-.5.1-.8.3-1.1l.7-.8c.2-.2.5-.3.9-.4l1.2-.2c.6 0 1.2.1 1.7.3.5.2.9.4 1 .8.3.3.5.7.6 1.2l-1.4.2c0-.4-.2-.7-.5-1a2 2 0 0 0-1.3-.3c-.7 0-1.1 0-1.4.3-.3.2-.4.5-.4.7 0 .2 0 .4.2.5 0 .2.3.3.5.4l1.2.4 2.1.6c.4.2.7.4 1 .8.2.3.3.7.3 1.2 0 .4-.1.9-.4 1.3-.3.4-.7.7-1.2 1-.5.2-1.1.3-1.8.3a4 4 0 0 1-2.4-.7c-.6-.4-1-1.1-1.1-2Zm13 5.7v-11.5h1.3v1c.3-.3.6-.7 1-.9.4-.2.9-.3 1.4-.3a3.4 3.4 0 0 1 3.1 2c.3.8.4 1.5.4 2.3 0 .8-.1 1.6-.4 2.3a3.4 3.4 0 0 1-3.2 2c-.5 0-.9 0-1.3-.2l-.9-.8v4h-1.4Zm1.3-7.3c0 1 .2 1.9.6 2.4.5.5 1 .7 1.6.7a2 2 0 0 0 1.6-.8c.5-.5.7-1.3.7-2.4 0-1-.2-1.9-.7-2.4a2 2 0 0 0-1.5-.8c-.6 0-1.2.3-1.6.9-.5.5-.7 1.3-.7 2.4Zm13 3c-.5.5-1 .8-1.5 1l-1.5.3c-1 0-1.6-.2-2.1-.7-.5-.4-.8-1-.8-1.7a2.3 2.3 0 0 1 1-2l1-.4 1.3-.2c1.1-.1 2-.3 2.5-.5v-.3c0-.6-.1-1-.4-1.2-.3-.4-.9-.5-1.6-.5-.6 0-1.1.1-1.4.3-.4.3-.6.7-.7 1.3l-1.4-.2c.1-.6.3-1 .6-1.5.3-.3.7-.6 1.2-.8.6-.2 1.2-.3 2-.3a5 5 0 0 1 1.7.3c.4.1.7.3 1 .6l.4 1v3.2l.1 2.4c0 .4.2.7.4 1h-1.5a3 3 0 0 1-.3-1Zm0-3-2.4.5-1.2.2a1.2 1.2 0 0 0-.8 1.2c0 .3.2.7.5 1 .3.2.7.3 1.2.3.6 0 1-.1 1.5-.4.4-.2.7-.5.9-1l.2-1.3v-.6Zm6.6 2.8.2 1.3-1 .1c-.6 0-1 0-1.3-.2l-.5-.7a5 5 0 0 1-.2-1.6v-4.8h-1v-1.1h1v-2l1.4-.9v2.9h1.4v1.1h-1.4v5.6l.3.3.5.1h.6Zm4.5 0 .2 1.3-1.1.1c-.5 0-1 0-1.2-.2-.3-.2-.5-.4-.6-.7a5 5 0 0 1-.2-1.6v-4.8h-1v-1.1h1v-2l1.4-.9v2.9h1.5v1.1h-1.5v4.8l.1.8.2.3.5.1h.7Zm7-1.4 1.5.2c-.3.9-.7 1.5-1.3 2-.6.5-1.4.7-2.4.7-1.2 0-2.2-.4-2.9-1.1-.7-.8-1-1.8-1-3.2 0-1.4.3-2.5 1-3.2.8-.8 1.7-1.2 2.8-1.2 1.1 0 2 .4 2.8 1.1.7.8 1 1.9 1 3.2v.4h-6.2c0 1 .3 1.6.8 2.1s1 .7 1.7.7c.5 0 1-.1 1.3-.4.4-.2.7-.7 1-1.3Zm-4.6-2.2h4.6c0-.7-.2-1.3-.5-1.6-.5-.6-1-.8-1.7-.8s-1.2.2-1.7.6c-.4.5-.7 1-.7 1.8Zm7.8 4.9v-8.3h1.3v1.3c.3-.6.6-1 .9-1.2l.9-.3c.5 0 1 .2 1.4.5l-.5 1.3a2 2 0 0 0-1-.3c-.3 0-.6 0-.8.3-.3.1-.4.4-.5.7-.2.5-.3 1-.3 1.7v4.3h-1.4Zm5.4 0v-8.3h1.2v1.2a3 3 0 0 1 2.7-1.4c.5 0 1 .1 1.3.3.5.2.8.4 1 .7l.4 1 .1 1.4v5.1H643v-5c0-.6 0-1-.2-1.3 0-.3-.3-.5-.5-.7-.3-.2-.6-.3-1-.3-.6 0-1.1.2-1.6.6-.4.4-.6 1.1-.6 2.2v4.5h-1.4ZM230.4 221v-7.2H229v-1.1h1.3v-.9l.1-1.2c.2-.4.4-.7.8-1l1.4-.2h1.3l-.2 1.3h-.8c-.5 0-.8 0-1 .2l-.2 1v.8h1.6v1.1h-1.6v7.2h-1.4Zm4 0v-8.3h1.4v1.3l.8-1.2c.3-.2.6-.3 1-.3s1 .2 1.4.5l-.5 1.3a2 2 0 0 0-1-.3c-.3 0-.6 0-.8.3-.3.1-.5.4-.6.7l-.2 1.7v4.3h-1.4Zm5-4.1c0-1.6.3-2.7 1.2-3.5.7-.6 1.6-.9 2.6-.9 1.1 0 2 .4 2.8 1.1.7.8 1 1.8 1 3.1 0 1.1 0 2-.4 2.6-.3.6-.8 1-1.4 1.4a4 4 0 0 1-2 .5c-1.2 0-2.1-.4-2.8-1.1-.7-.8-1-1.8-1-3.2Zm1.4 0c0 1 .2 1.8.7 2.3.4.6 1 .8 1.7.8s1.3-.2 1.7-.8c.5-.5.7-1.3.7-2.4 0-1-.2-1.8-.7-2.3-.4-.6-1-.8-1.7-.8s-1.3.2-1.7.8c-.5.5-.7 1.3-.7 2.4Zm8 4.1v-8.3h1.2v1.2a3 3 0 0 1 2.5-1.4c.6 0 1.1.1 1.5.4.4.3.7.6.9 1a3 3 0 0 1 2.5-1.4c.8 0 1.5.2 2 .7.4.5.6 1.2.6 2.1v5.7h-1.4v-5.2c0-.6 0-1-.2-1.2 0-.3-.2-.5-.4-.6l-.9-.3a2 2 0 0 0-1.4.6c-.4.4-.6 1-.6 1.9v4.8h-1.4v-5.4c0-.6-.1-1-.4-1.4-.2-.3-.6-.5-1.1-.5a2 2 0 0 0-1.1.3c-.3.3-.6.6-.7 1-.2.4-.3 1-.3 1.7v4.3h-1.4Zm17.7 0v-8.3h1.3v1.3c.3-.6.6-1 .9-1.2.2-.2.5-.3.9-.3s1 .2 1.4.5l-.5 1.3a2 2 0 0 0-1-.3c-.3 0-.6 0-.8.3-.3.1-.4.4-.6.7l-.2 1.7v4.3h-1.4Zm10.8 0v-1.2a3 3 0 0 1-2.6 1.4c-.5 0-1-.1-1.4-.3-.4-.2-.8-.4-1-.7l-.4-1v-6.5h1.3v4.6l.1 1.5c.1.4.3.7.6.9.3.2.6.3 1 .3.5 0 .9-.1 1.2-.3.4-.3.7-.6.8-1 .2-.3.2-.8.2-1.6v-4.4h1.4v8.3h-1.2Zm3.4 0v-11.5h1.4V221h-1.4Zm9.3-2.7 1.5.2c-.3.9-.7 1.5-1.3 2-.6.5-1.4.7-2.4.7-1.2 0-2.2-.4-2.9-1.1-.7-.8-1-1.8-1-3.2 0-1.4.3-2.5 1-3.2.7-.8 1.7-1.2 2.8-1.2 1.1 0 2 .4 2.7 1.1.7.8 1.1 1.9 1.1 3.2v.4h-6.2c0 1 .3 1.6.8 2.1.4.5 1 .7 1.7.7.5 0 1-.1 1.3-.4.4-.2.7-.7.9-1.3Zm-4.6-2.2h4.6c0-.7-.2-1.3-.5-1.6-.5-.6-1-.8-1.8-.8-.6 0-1.1.2-1.6.6-.4.5-.7 1-.7 1.8Zm12.3 4.9v-8.3h1.2v1.2a3 3 0 0 1 2.6-1.4c.6 0 1 .1 1.5.4.4.3.6.6.8 1a3 3 0 0 1 2.6-1.4c.8 0 1.4.2 1.9.7.4.5.6 1.2.6 2.1v5.7h-1.4v-5.2l-.1-1.2c-.1-.3-.3-.5-.5-.6-.2-.2-.5-.3-.9-.3a2 2 0 0 0-1.4.6c-.4.4-.6 1-.6 1.9v4.8h-1.4v-5.4c0-.6-.1-1-.3-1.4-.3-.3-.6-.5-1.2-.5a2 2 0 0 0-1 .3c-.4.3-.6.6-.8 1l-.2 1.7v4.3h-1.4Zm12.8-4.1c0-1.6.4-2.7 1.3-3.5.7-.6 1.5-.9 2.6-.9s2 .4 2.8 1.1c.7.8 1 1.8 1 3.1 0 1.1-.1 2-.4 2.6-.3.6-.8 1-1.4 1.4a4 4 0 0 1-2 .5c-1.2 0-2.1-.4-2.8-1.1-.8-.8-1.1-1.8-1.1-3.2Zm1.4 0c0 1 .3 1.8.7 2.3.5.6 1 .8 1.8.8.7 0 1.3-.2 1.7-.8.5-.5.7-1.3.7-2.4 0-1-.2-1.8-.7-2.3-.5-.6-1-.8-1.7-.8s-1.3.2-1.8.8c-.4.5-.7 1.3-.7 2.4Zm13.4 4.1v-1c-.5.8-1.3 1.2-2.3 1.2a3.6 3.6 0 0 1-3.1-2 5.9 5.9 0 0 1 0-4.5 3.3 3.3 0 0 1 4.4-1.9c.3.2.7.5.9.9v-4.2h1.4V221h-1.3Zm-4.4-4.1c0 1 .2 1.8.6 2.3.5.6 1 .8 1.6.8a2 2 0 0 0 1.6-.7c.4-.5.6-1.3.6-2.3 0-1.2-.2-2-.6-2.5a2 2 0 0 0-3.2 0c-.4.5-.6 1.3-.6 2.4Zm8-5.7v-1.7h1.3v1.7h-1.4Zm0 9.8v-8.3h1.3v8.3h-1.4Zm3.8 0v-7.2h-1.2v-1.1h1.2v-.9c0-.5 0-1 .2-1.2.1-.4.3-.7.7-1l1.4-.2h1.3l-.2 1.3h-.8c-.4 0-.7 0-1 .2l-.2 1v.8h1.6v1.1h-1.6v7.2h-1.4Zm4.1-9.8v-1.7h1.4v1.7h-1.4Zm0 9.8v-8.3h1.4v8.3h-1.4Zm9.3-2.7 1.4.2c-.2.9-.6 1.5-1.2 2-.7.5-1.5.7-2.4.7-1.2 0-2.2-.4-3-1.1-.6-.8-1-1.8-1-3.2 0-1.4.4-2.5 1.1-3.2.7-.8 1.7-1.2 2.8-1.2 1.1 0 2 .4 2.7 1.1.7.8 1 1.9 1 3.2v.4h-6.1c0 1 .3 1.6.8 2.1.4.5 1 .7 1.7.7.5 0 1-.1 1.3-.4.4-.2.7-.7.9-1.3Zm-4.6-2.2h4.6c0-.7-.2-1.3-.5-1.6-.5-.6-1-.8-1.8-.8-.6 0-1.2.2-1.6.6-.4.5-.7 1-.7 1.8Zm7.8 4.9v-8.3h1.3v1.3l.8-1.2c.3-.2.6-.3 1-.3s1 .2 1.4.5l-.5 1.3a2 2 0 0 0-1-.3c-.3 0-.6 0-.8.3-.3.1-.5.4-.6.7l-.2 1.7v4.3h-1.4Zm4.8-2.5 1.4-.2c0 .6.3 1 .6 1.3.4.3.9.4 1.5.4.7 0 1.1-.1 1.4-.4.4-.2.5-.5.5-.9 0-.3-.1-.6-.4-.7-.2-.2-.7-.3-1.4-.5l-2.2-.7c-.4-.2-.7-.4-.9-.8-.2-.3-.3-.7-.3-1 0-.5 0-.8.3-1.1l.6-.8 1-.4 1.2-.2c.6 0 1.2.1 1.7.3.5.2.8.4 1 .8.3.3.5.7.5 1.2l-1.3.2c0-.4-.3-.7-.6-1a2 2 0 0 0-1.2-.3c-.7 0-1.1 0-1.4.3-.3.2-.4.5-.4.7l.1.5.6.4 1.2.4 2 .6c.5.2.8.4 1 .8.2.3.4.7.4 1.2 0 .4-.2.9-.5 1.3-.2.4-.6.7-1.1 1-.5.2-1.1.3-1.8.3a4 4 0 0 1-2.5-.7c-.5-.4-.9-1.1-1-2Z"/><path fill="#4D4D4D" fill-rule="evenodd" d="M44 46h142v4H44v-4Z" clip-rule="evenodd"/><path fill="#67B279" d="M25.2 36V13.6H27v22.6h-1.8Zm6.2 0V13.6h1.9v22.6h-1.9Z"/><path fill="#4D4D4D" d="m56.5 27 2.2.3c-.4 1.2-1 2.2-2 3-.9.6-2 1-3.5 1-1.8 0-3.3-.6-4.3-1.7a6.6 6.6 0 0 1-1.6-4.7c0-2.1.5-3.7 1.6-4.9 1-1.1 2.5-1.7 4.2-1.7 1.7 0 3 .5 4 1.7 1.1 1.1 1.7 2.7 1.7 4.8v.5h-9.3c0 1.4.4 2.4 1.1 3.2.7.7 1.6 1 2.6 1 .8 0 1.5-.2 2-.6.5-.4 1-1 1.3-2Zm-7-3.4h7c0-1-.3-1.9-.8-2.4a3.2 3.2 0 0 0-2.6-1.2c-1 0-1.8.3-2.4 1-.7.6-1 1.5-1.1 2.6ZM60 31l4.6-6.5-4.2-6h2.6l2 3 .8 1.4 1-1.4 2-3h2.6l-4.3 6 4.6 6.5H69l-2.6-3.9-.6-1-3.3 4.9h-2.6Zm21.6-1.5c-.8.6-1.6 1.1-2.3 1.4-.7.2-1.5.4-2.3.4-1.4 0-2.4-.4-3.2-1a3.3 3.3 0 0 1-1-2.6 3.4 3.4 0 0 1 1.4-2.9l1.6-.7 1.8-.3c1.7-.2 3-.4 3.8-.7v-.5c0-1-.2-1.5-.6-1.9-.5-.4-1.3-.7-2.4-.7-1 0-1.7.2-2.2.5-.5.4-.8 1-1 1.9L73 22a5 5 0 0 1 1-2.1c.3-.6 1-1 1.8-1.3.8-.3 1.7-.4 2.8-.4 1 0 2 .1 2.6.3.7.3 1.1.6 1.5 1 .3.4.5.8.6 1.4l.1 2v2.8l.1 3.7.6 1.5h-2.2c-.2-.4-.4-1-.4-1.5Zm-.2-4.7c-.8.3-2 .5-3.5.8a8 8 0 0 0-1.8.4 1.8 1.8 0 0 0-1.1 1.7c0 .5.2 1 .6 1.4.4.3 1 .5 1.9.5.8 0 1.5-.1 2.2-.5.6-.4 1-.8 1.3-1.5.3-.4.4-1.1.4-2v-.8Zm5.4 6.2V18.6h1.9v1.7a4.4 4.4 0 0 1 3.8-2c.9 0 1.6.2 2.2.5.6.4 1 1 1.3 1.7 1-1.5 2.2-2.2 3.8-2.2 1.3 0 2.2.3 2.9 1 .6.7 1 1.7 1 3.2V31h-2.1v-7.8l-.2-1.9-.8-.9a3 3 0 0 0-3.4.5c-.6.7-.9 1.6-.9 2.9V31h-2.1v-8c0-1-.2-1.7-.5-2.2-.4-.5-1-.7-1.7-.7-.6 0-1.2.2-1.7.5s-.8.7-1 1.3c-.3.6-.4 1.5-.4 2.6V31h-2.1Zm20 4.8V18.6h2v1.6c.4-.7.9-1.1 1.5-1.4.5-.4 1.2-.5 2-.5 1 0 2 .2 2.8.8a5 5 0 0 1 1.9 2.3c.4 1 .6 2.1.6 3.3 0 1.3-.2 2.4-.7 3.4a5.2 5.2 0 0 1-4.7 3.2 4 4 0 0 1-2-.5c-.5-.3-1-.6-1.3-1v6h-2.1Zm1.9-11c0 1.6.3 2.8 1 3.6a3 3 0 0 0 2.3 1.1 3 3 0 0 0 2.4-1.1c.7-.8 1-2 1-3.7 0-1.6-.3-2.8-1-3.6A3 3 0 0 0 112 20c-.9 0-1.7.4-2.4 1.3-.7.8-1 2-1 3.6ZM120 31V13.8h2.1V31h-2Zm14-4 2 .3c-.2 1.2-.9 2.2-1.8 3-1 .6-2.1 1-3.6 1-1.8 0-3.2-.6-4.3-1.7a6.6 6.6 0 0 1-1.6-4.7c0-2.1.5-3.7 1.6-4.9 1-1.1 2.5-1.7 4.2-1.7 1.7 0 3 .5 4 1.7 1.1 1.1 1.7 2.7 1.7 4.8v.5h-9.3c0 1.4.4 2.4 1.1 3.2.7.7 1.6 1 2.6 1 .8 0 1.5-.2 2-.6.6-.4 1-1 1.3-2Zm-7-3.4h7c-.2-1-.4-1.9-.9-2.4a3.2 3.2 0 0 0-2.6-1.2c-1 0-1.8.3-2.4 1-.7.6-1 1.5-1.1 2.6Zm12.4 7.4v-2.4h2.4V31h-2.4Zm5.3-6.2c0-2.3.6-4 1.9-5.1 1-1 2.3-1.4 3.9-1.4 1.7 0 3 .5 4.2 1.7 1 1 1.6 2.6 1.6 4.6 0 1.6-.2 2.9-.7 3.8a5 5 0 0 1-2.1 2.1 6 6 0 0 1-3 .8c-1.8 0-3.2-.6-4.2-1.7-1.1-1.1-1.7-2.7-1.7-4.8Zm2.1 0c0 1.6.4 2.8 1 3.6.8.8 1.6 1.1 2.7 1.1 1 0 1.9-.4 2.6-1.1.7-.8 1-2 1-3.7 0-1.5-.3-2.7-1-3.5a3.3 3.3 0 0 0-2.6-1.2c-1 0-2 .4-2.6 1.2-.7.8-1 2-1 3.6Zm12 6.2V18.6h1.9v1.8c.5-.8.9-1.4 1.3-1.7.4-.3.9-.4 1.4-.4.7 0 1.4.2 2.1.7l-.7 2a3 3 0 0 0-1.5-.5 2 2 0 0 0-1.3.4c-.3.2-.6.6-.8 1.1-.2.8-.3 1.6-.3 2.5V31h-2.1Zm7.6 1 2 .3c.1.7.4 1.1.8 1.4.5.4 1.2.6 2.1.6 1 0 1.7-.2 2.3-.6.5-.4.9-1 1-1.6.2-.5.2-1.4.2-2.7-1 1-2 1.6-3.4 1.6-1.8 0-3-.6-4-1.9a8.2 8.2 0 0 1-.8-7.7c.5-1 1-1.8 1.9-2.3a5 5 0 0 1 2.9-.8c1.4 0 2.6.6 3.6 1.8v-1.5h2v10.7c0 2-.3 3.3-.7 4.1-.3.8-1 1.5-1.8 2-.9.4-2 .7-3.2.7a6 6 0 0 1-3.6-1c-.9-.7-1.3-1.7-1.3-3Zm1.7-7.4c0 1.6.4 2.8 1 3.5a3 3 0 0 0 2.5 1.2c1 0 1.7-.4 2.4-1.2.7-.7 1-1.9 1-3.5 0-1.5-.4-2.6-1-3.4a3.1 3.1 0 0 0-4.9 0c-.6.7-1 1.9-1 3.4Z"/><path fill="#DF3812" d="M194.5 23h-2.2l4.2-9.5h1.7l4.1 9.4h-2l-3-7-2.8 7Z"/><path fill="#4A90E2" d="M220.9 33.5v-2.1a8 8 0 0 1-2.6-.7c-.7-.4-1.2-1-1.7-1.7a6 6 0 0 1-.8-2.8l2-.4c.2 1.2.5 2 1 2.5a3 3 0 0 0 2 1.3v-6.7c-.8-.2-1.7-.5-2.6-1a4 4 0 0 1-1.5-1.6c-.4-.7-.6-1.4-.6-2.3 0-1.5.6-2.7 1.6-3.6.7-.6 1.8-1 3.2-1.2v-1h1.2v1c1.2.2 2.2.5 3 1.1.9.8 1.4 1.8 1.6 3.2l-2.2.3c-.1-.8-.4-1.5-.8-1.9-.4-.4-.9-.7-1.6-.9v6.1l2.1.6c.7.3 1.2.7 1.6 1a5 5 0 0 1 1.3 3.3 5 5 0 0 1-1.4 3.8c-.9 1-2.1 1.5-3.6 1.5v2.2H221Zm0-18.5c-.8.1-1.5.5-2 1-.4.5-.7 1.1-.7 1.9 0 .7.2 1.3.6 1.8.4.5 1.1.9 2 1.1V15Zm1.2 14.6c.8-.1 1.5-.5 2-1 .6-.7.9-1.4.9-2.3 0-.8-.2-1.4-.6-1.9-.4-.5-1.1-.9-2.3-1.2v6.4Z"/><path fill="#8B572A" d="m235.5 27.3 2.1-.3a3 3 0 0 0 1 1.9c.5.4 1.3.6 2.2.6 1 0 1.7-.1 2.2-.5.5-.4.7-.9.7-1.4 0-.5-.2-.9-.6-1.2l-2.2-.7c-1.5-.4-2.6-.7-3.2-1-.6-.3-1-.7-1.4-1.2-.3-.5-.4-1-.4-1.6a3.5 3.5 0 0 1 1.4-2.7c.3-.3.8-.5 1.3-.7l1.9-.2c1 0 1.8.1 2.5.4.8.3 1.3.7 1.7 1.1.3.5.6 1.2.7 2l-2 .2c-.2-.6-.4-1-.9-1.5a3 3 0 0 0-1.9-.5c-1 0-1.6.2-2 .5-.5.3-.7.7-.7 1.1 0 .3.1.5.3.8.2.2.4.4.8.5l1.9.6c1.5.4 2.5.7 3 1 .7.2 1.1.6 1.5 1a3.5 3.5 0 0 1-.1 3.8 4 4 0 0 1-1.8 1.5c-.8.3-1.7.5-2.6.5-1.7 0-2.9-.4-3.7-1a4.7 4.7 0 0 1-1.7-3Zm21-.9 2 .3a5.4 5.4 0 0 1-1.7 3.4 5 5 0 0 1-3.4 1.2c-1.7 0-3-.6-4.1-1.7-1-1.1-1.6-2.7-1.6-4.8 0-1.3.3-2.5.7-3.5.5-1 1.1-1.8 2-2.3 1-.5 2-.7 3-.7 1.4 0 2.5.3 3.3 1 .9.7 1.4 1.7 1.7 3l-2 .2c-.3-.8-.6-1.4-1.1-1.9-.5-.4-1.1-.6-1.8-.6-1 0-2 .4-2.6 1.2-.7.7-1 2-1 3.6s.3 2.9 1 3.6c.6.8 1.4 1.1 2.5 1.1a3 3 0 0 0 2-.7c.6-.5 1-1.3 1.1-2.4Zm3.9 4.6V18.6h1.9v1.8c.4-.8.9-1.4 1.3-1.7.4-.3.9-.4 1.4-.4.7 0 1.4.2 2.1.7l-.7 2a3 3 0 0 0-1.6-.5 2 2 0 0 0-1.2.4c-.4.2-.6.6-.8 1.1-.2.8-.3 1.6-.3 2.5V31h-2.1Zm8-14.8v-2.4h2.1v2.4h-2.1Zm0 14.8V18.6h2.1V31h-2.1Zm5.3 4.8V18.6h2v1.6c.4-.7 1-1.1 1.5-1.4.5-.4 1.2-.5 2-.5 1.1 0 2 .2 2.9.8a5 5 0 0 1 1.8 2.3c.4 1 .6 2.1.6 3.3 0 1.3-.2 2.4-.7 3.4a5.2 5.2 0 0 1-4.7 3.2 4 4 0 0 1-1.9-.5c-.6-.3-1-.6-1.4-1v6h-2Zm2-11c0 1.6.3 2.8.9 3.6a3 3 0 0 0 2.4 1.1 3 3 0 0 0 2.4-1.1c.6-.8 1-2 1-3.7 0-1.6-.4-2.8-1-3.6A3 3 0 0 0 279 20c-1 0-1.7.4-2.4 1.3-.7.8-1 2-1 3.6Zm16 4.3.3 1.9-1.6.2c-.8 0-1.4-.2-1.8-.4a2 2 0 0 1-.9-1l-.2-2.4v-7.2h-1.6v-1.6h1.6v-3.1l2-1.3v4.4h2.2v1.6h-2.1v8.4l.4.4.8.2h.9Zm2.6 1.9v-2.4h2.4V31c0 .9-.1 1.6-.5 2.1a3 3 0 0 1-1.4 1.3l-.6-.9a2 2 0 0 0 1-.9c.2-.3.3-.9.3-1.6h-1.2Zm10.7-1.9.3 1.9-1.5.2c-.8 0-1.4-.2-1.8-.4a2 2 0 0 1-1-1l-.2-2.4v-7.2h-1.5v-1.6h1.5v-3.1l2.1-1.3v4.4h2.1v1.6h-2v8.4l.4.4.7.2h1Zm2.1 1.9V13.8h2.1V20c1-1.2 2.3-1.7 3.8-1.7.9 0 1.7.2 2.4.5.6.4 1.1.9 1.4 1.5.3.7.5 1.6.5 2.8V31H315v-7.9c0-1-.2-1.8-.6-2.3-.5-.5-1.1-.7-2-.7-.6 0-1.2.2-1.8.5-.5.3-.9.7-1.1 1.3a6 6 0 0 0-.4 2.3V31h-2Zm13.4-14.8v-2.4h2.1v2.4h-2.1Zm0 14.8V18.6h2.1V31h-2.1Zm5.3 0V18.6h1.9v1.8l1.3-1.7c.4-.3.9-.4 1.4-.4.7 0 1.4.2 2.2.7l-.8 2a3 3 0 0 0-1.5-.5 2 2 0 0 0-1.3.4c-.3.2-.6.6-.7 1.1-.3.8-.4 1.6-.4 2.5V31h-2.1Zm16 0v-1.6c-.7 1.3-1.9 1.9-3.4 1.9-1 0-1.9-.3-2.7-.8a5.5 5.5 0 0 1-2-2.3 8 8 0 0 1-.6-3.4c0-1.3.2-2.4.6-3.4a4.9 4.9 0 0 1 4.6-3.1 4.1 4.1 0 0 1 3.4 1.7v-6.2h2.1V31h-2Zm-6.6-6.2c0 1.6.4 2.8 1 3.6a3 3 0 0 0 2.4 1.1 3 3 0 0 0 2.3-1c.7-.8 1-2 1-3.5 0-1.7-.3-3-1-3.8a3 3 0 0 0-4.7 0c-.7.7-1 2-1 3.6Zm11.2 1v-2h6.4v2h-6.4Zm8.8 10V18.6h1.9v1.6c.4-.7 1-1.1 1.5-1.4.6-.4 1.3-.5 2-.5 1.2 0 2 .2 3 .8a5 5 0 0 1 1.7 2.3c.5 1 .7 2.1.7 3.3 0 1.3-.3 2.4-.7 3.4a5.2 5.2 0 0 1-4.8 3.2 4 4 0 0 1-1.9-.5c-.5-.3-1-.6-1.3-1v6h-2.1Zm1.9-11c0 1.6.3 2.8 1 3.6a3 3 0 0 0 2.3 1.1 3 3 0 0 0 2.4-1.1c.7-.8 1-2 1-3.7 0-1.6-.3-2.8-1-3.6a3 3 0 0 0-2.3-1.2c-.9 0-1.7.4-2.4 1.3-.7.8-1 2-1 3.6Zm19.5 4.7c-.7.6-1.5 1.1-2.2 1.4-.7.2-1.5.4-2.3.4-1.4 0-2.5-.4-3.2-1a3.3 3.3 0 0 1-1-2.6 3.4 3.4 0 0 1 1.4-2.9l1.5-.7 2-.3c1.6-.2 2.9-.4 3.7-.7v-.5c0-1-.2-1.5-.6-1.9-.6-.4-1.4-.7-2.4-.7s-1.7.2-2.2.5c-.5.4-.8 1-1 1.9l-2.1-.3a5 5 0 0 1 .9-2.1c.4-.6 1-1 1.9-1.3.8-.3 1.7-.4 2.8-.4 1 0 2 .1 2.6.3.6.3 1.1.6 1.4 1 .4.4.6.8.7 1.4l.1 2v2.8l.1 3.7.6 1.5H377c-.3-.4-.4-1-.5-1.5Zm-.1-4.7c-.8.3-2 .5-3.5.8a8 8 0 0 0-1.8.4 1.8 1.8 0 0 0-1.1 1.7c0 .5.2 1 .6 1.4.4.3 1 .5 1.9.5.8 0 1.5-.1 2.1-.5.7-.4 1.1-.8 1.4-1.5a5 5 0 0 0 .4-2v-.8Zm5.4 6.2V18.6h1.9v1.8c.4-.8.9-1.4 1.3-1.7.4-.3.9-.4 1.4-.4.7 0 1.4.2 2.1.7l-.7 2a3 3 0 0 0-1.6-.5 2 2 0 0 0-1.2.4c-.4.2-.6.6-.8 1.1-.2.8-.3 1.6-.3 2.5V31h-2.1Zm12.6-1.9.3 1.9-1.6.2c-.8 0-1.4-.2-1.8-.4a2 2 0 0 1-.9-1c-.2-.3-.2-1.2-.2-2.4v-7.2h-1.6v-1.6h1.6v-3.1l2-1.3v4.4h2.2v1.6h-2.1v8.4l.4.4.8.2h.9Zm2 6.7-.3-2 1.2.2c.5 0 .9 0 1.2-.2.2-.2.5-.4.6-.7a10.3 10.3 0 0 0 .9-2l-4.7-12.5h2.2l2.6 7.2 1 2.8.8-2.8 2.7-7.2h2L402 31.2a25 25 0 0 1-1.2 2.8c-.3.7-.8 1.2-1.2 1.6a3 3 0 0 1-1.8.5l-1.3-.3Zm10.8-4.8v-2.4h2.4V31c0 .9-.1 1.6-.4 2.1a3 3 0 0 1-1.5 1.3l-.6-.9a2 2 0 0 0 1-.9c.2-.3.3-.9.3-1.6h-1.2Zm14.2 0v-1.6c-.8 1.3-2 1.9-3.5 1.9-1 0-1.9-.3-2.7-.8a5.5 5.5 0 0 1-2-2.3 8 8 0 0 1-.6-3.4c0-1.3.2-2.4.6-3.4a4.9 4.9 0 0 1 4.7-3.1 4.1 4.1 0 0 1 3.4 1.7v-6.2h2V31h-1.9Zm-6.6-6.2c0 1.6.3 2.8 1 3.6a3 3 0 0 0 2.3 1.1 3 3 0 0 0 2.4-1c.6-.8 1-2 1-3.5 0-1.7-.4-3-1-3.8a3 3 0 0 0-4.8 0c-.6.7-1 2-1 3.6Zm11.1 0c0-2.3.7-4 2-5.1 1-1 2.3-1.4 3.9-1.4 1.7 0 3 .5 4.2 1.7 1 1 1.6 2.6 1.6 4.6 0 1.6-.3 2.9-.7 3.8a5 5 0 0 1-2.1 2.1 6 6 0 0 1-3 .8c-1.8 0-3.2-.6-4.3-1.7-1-1.1-1.6-2.7-1.6-4.8Zm2.2 0c0 1.6.3 2.8 1 3.6.7.8 1.6 1.1 2.7 1.1 1 0 1.9-.4 2.6-1.1.7-.8 1-2 1-3.7 0-1.5-.3-2.7-1-3.5a3.3 3.3 0 0 0-2.6-1.2c-1 0-2 .4-2.7 1.2-.7.8-1 2-1 3.6Zm12 6.2V18.6h1.9v1.7a4.4 4.4 0 0 1 3.7-2c1 0 1.7.2 2.3.5.6.4 1 1 1.2 1.7 1-1.5 2.3-2.2 3.9-2.2 1.2 0 2.2.3 2.8 1 .7.7 1 1.7 1 3.2V31h-2v-7.8c0-.9-.1-1.5-.3-1.9-.1-.3-.4-.6-.7-.9-.4-.2-.8-.3-1.3-.3a3 3 0 0 0-2.2.9c-.5.6-.8 1.5-.8 2.8V31h-2.1v-8c0-1-.2-1.7-.6-2.2-.3-.5-.9-.7-1.6-.7-.6 0-1.2.2-1.7.5s-.9.7-1 1.3c-.3.6-.4 1.5-.4 2.6V31h-2.1Zm28-1.5c-.7.6-1.5 1.1-2.2 1.4-.7.2-1.5.4-2.3.4-1.4 0-2.4-.4-3.1-1a3.3 3.3 0 0 1-1.2-2.6 3.4 3.4 0 0 1 1.5-2.9l1.6-.7 1.8-.3c1.8-.2 3-.4 3.8-.7v-.5c0-1-.2-1.5-.6-1.9-.5-.4-1.3-.7-2.4-.7-1 0-1.7.2-2.2.5-.5.4-.8 1-1 1.9l-2-.3a5 5 0 0 1 .8-2.1c.5-.6 1-1 1.9-1.3.8-.3 1.8-.4 2.8-.4 1 0 2 .1 2.6.3.7.3 1.2.6 1.5 1 .3.4.5.8.6 1.4l.1 2v2.8c0 2 0 3.2.2 3.7 0 .5.2 1 .5 1.5h-2.2c-.2-.4-.4-1-.4-1.5Zm0-4.7-3.5.8a8 8 0 0 0-1.9.4 1.8 1.8 0 0 0-1.1 1.7c0 .5.2 1 .6 1.4.5.3 1 .5 2 .5.7 0 1.4-.1 2-.5.7-.4 1.2-.8 1.5-1.5.2-.4.3-1.1.3-2v-.8Zm5.3-8.6v-2.4h2.1v2.4h-2Zm0 14.8V18.6h2.1V31h-2Zm5.4 0V18.6h1.9v1.7c.9-1.3 2.2-2 4-2a5 5 0 0 1 2 .4c.6.2 1 .6 1.4 1l.7 1.6V31h-2v-7.6c0-.8-.1-1.5-.3-1.9a2 2 0 0 0-.9-1c-.4-.3-.9-.4-1.4-.4-1 0-1.7.3-2.4.9-.6.5-1 1.6-1 3.2V31h-2Zm24.4-10.1H492v-2h11.3v2Zm0 5.2H492v-2h11.3v2Zm11.5.9 2.1.3c-.3 1.2-1 2.2-1.9 3-.9.6-2 1-3.5 1-1.9 0-3.3-.6-4.4-1.7a6.6 6.6 0 0 1-1.6-4.7c0-2.1.6-3.7 1.7-4.9 1-1.1 2.4-1.7 4.2-1.7 1.6 0 3 .5 4 1.7 1 1.1 1.6 2.7 1.6 4.8v.5h-9.3c.1 1.4.5 2.4 1.2 3.2.7.7 1.5 1 2.6 1 .8 0 1.4-.2 2-.6.5-.4 1-1 1.3-2Zm-7-3.4h7c-.1-1-.4-1.9-.8-2.4a3.2 3.2 0 0 0-2.6-1.2c-1 0-1.8.3-2.5 1-.6.6-1 1.5-1 2.6Zm10.4 7.4 4.5-6.5-4.2-6h2.7l1.9 3 .8 1.4 1-1.4 2.1-3h2.5l-4.3 6 4.6 6.5h-2.5l-2.6-3.9-.7-1-3.3 4.9h-2.5Zm21.5-1.5c-.8.6-1.5 1.1-2.2 1.4-.8.2-1.5.4-2.4.4-1.3 0-2.4-.4-3.1-1a3.3 3.3 0 0 1-1.1-2.6 3.4 3.4 0 0 1 1.5-2.9c.4-.3 1-.5 1.5-.7l1.9-.3c1.7-.2 3-.4 3.7-.7v-.5c0-1-.1-1.5-.5-1.9-.6-.4-1.4-.7-2.4-.7s-1.8.2-2.2.5c-.5.4-.9 1-1 1.9l-2.2-.3a5 5 0 0 1 1-2.1c.4-.6 1-1 1.8-1.3.9-.3 1.8-.4 2.9-.4 1 0 1.9.1 2.6.3.6.3 1.1.6 1.4 1l.7 1.4v4.8c0 2 .1 3.2.2 3.7l.5 1.5h-2.2l-.4-1.5Zm-.2-4.7c-.7.3-1.9.5-3.4.8a8 8 0 0 0-1.8.4 1.8 1.8 0 0 0-1.2 1.7c0 .5.2 1 .7 1.4.4.3 1 .5 1.8.5.9 0 1.6-.1 2.2-.5.6-.4 1.1-.8 1.4-1.5a5 5 0 0 0 .3-2v-.8ZM545 31V18.6h1.8v1.7a4.4 4.4 0 0 1 3.8-2c1 0 1.7.2 2.3.5.6.4 1 1 1.2 1.7 1-1.5 2.3-2.2 3.9-2.2 1.2 0 2.2.3 2.8 1 .7.7 1 1.7 1 3.2V31h-2v-7.8c0-.9-.1-1.5-.3-1.9-.1-.3-.4-.6-.7-.9-.4-.2-.8-.3-1.3-.3a3 3 0 0 0-2.2.9c-.5.6-.8 1.5-.8 2.8V31h-2.1v-8c0-1-.2-1.7-.6-2.2-.3-.5-.9-.7-1.6-.7-.6 0-1.2.2-1.7.5s-.9.7-1 1.3c-.3.6-.4 1.5-.4 2.6V31H545Zm20 4.8V18.6h1.9v1.6c.4-.7 1-1.1 1.5-1.4.6-.4 1.3-.5 2-.5 1.1 0 2 .2 2.9.8a5 5 0 0 1 1.8 2.3 8.3 8.3 0 0 1 0 6.7 5.2 5.2 0 0 1-4.8 3.2 4 4 0 0 1-1.9-.5c-.5-.3-1-.6-1.3-1v6H565Zm1.9-11c0 1.6.3 2.8 1 3.6a3 3 0 0 0 2.3 1.1 3 3 0 0 0 2.4-1.1c.7-.8 1-2 1-3.7 0-1.6-.3-2.8-1-3.6a3 3 0 0 0-2.3-1.2c-1 0-1.7.4-2.4 1.3-.7.8-1 2-1 3.6Zm11.4 6.2V13.8h2V31h-2Zm13.9-4 2.2.3c-.4 1.2-1 2.2-2 3-.9.6-2 1-3.5 1-1.8 0-3.3-.6-4.4-1.7A6.6 6.6 0 0 1 583 25c0-2.1.5-3.7 1.6-4.9 1-1.1 2.4-1.7 4.2-1.7 1.6 0 3 .5 4 1.7 1.1 1.1 1.6 2.7 1.6 4.8v.5h-9.3c.1 1.4.5 2.4 1.2 3.2.7.7 1.6 1 2.6 1 .8 0 1.4-.2 2-.6.5-.4 1-1 1.3-2Zm-7-3.4h7c-.1-1-.4-1.9-.8-2.4a3.2 3.2 0 0 0-2.6-1.2c-1 0-1.8.3-2.5 1-.6.6-1 1.5-1 2.6Zm12.4 7.4v-2.4h2.4V31h-2.4Zm14.2-4.6 2 .3a5.4 5.4 0 0 1-1.7 3.4 5 5 0 0 1-3.4 1.2c-1.7 0-3-.6-4.1-1.7-1-1.1-1.6-2.7-1.6-4.8 0-1.3.3-2.5.7-3.5.5-1 1.1-1.8 2-2.3 1-.5 2-.7 3-.7 1.4 0 2.5.3 3.3 1 .9.7 1.4 1.7 1.7 3l-2 .2c-.3-.8-.6-1.4-1.1-1.9-.5-.4-1-.6-1.8-.6-1 0-2 .4-2.6 1.2-.7.7-1 2-1 3.6s.3 2.9 1 3.6c.6.8 1.5 1.1 2.5 1.1a3 3 0 0 0 2-.7c.6-.5 1-1.3 1.1-2.4Zm3.1-1.6c0-2.3.6-4 2-5.1 1-1 2.3-1.4 3.8-1.4 1.8 0 3.2.5 4.2 1.7 1.1 1 1.7 2.6 1.7 4.6 0 1.6-.3 2.9-.8 3.8a5 5 0 0 1-2 2.1 6 6 0 0 1-3 .8c-1.8 0-3.2-.6-4.3-1.7-1-1.1-1.6-2.7-1.6-4.8Zm2.2 0c0 1.6.3 2.8 1 3.6.7.8 1.6 1.1 2.6 1.1s2-.4 2.7-1.1c.7-.8 1-2 1-3.7 0-1.5-.4-2.7-1-3.5a3.3 3.3 0 0 0-2.7-1.2c-1 0-1.9.4-2.6 1.2-.7.8-1 2-1 3.6Zm12 6.2V18.6h1.8v1.7a4.4 4.4 0 0 1 3.8-2c1 0 1.7.2 2.3.5.6.4 1 1 1.2 1.7 1-1.5 2.3-2.2 3.9-2.2 1.2 0 2.2.3 2.8 1 .7.7 1 1.7 1 3.2V31h-2v-7.8c0-.9-.2-1.5-.3-1.9-.1-.3-.4-.6-.7-.9-.4-.2-.8-.3-1.3-.3a3 3 0 0 0-2.2.9c-.6.6-.8 1.5-.8 2.8V31h-2.2v-8c0-1-.1-1.7-.5-2.2-.3-.5-.9-.7-1.7-.7-.5 0-1.1.2-1.6.5s-.9.7-1.1 1.3c-.2.6-.3 1.5-.3 2.6V31H629Z"/><path fill="#4D4D4D" d="M33.6 404v-11.5h2.3l2.7 8.2.5 1.7.6-1.9 2.8-8h2V404h-1.4v-9.6l-3.4 9.6h-1.3l-3.4-9.8v9.8h-1.4Zm18.6-1-1.5 1-1.6.2c-.9 0-1.6-.2-2-.7-.5-.4-.8-1-.8-1.7a2.3 2.3 0 0 1 1-2l1-.4 1.3-.2c1.1-.1 2-.3 2.5-.5v-.3c0-.6-.1-1-.4-1.2-.4-.4-.9-.5-1.6-.5-.7 0-1.2.1-1.5.3-.3.3-.5.7-.7 1.3l-1.4-.2.7-1.5c.3-.3.7-.6 1.2-.8.5-.2 1.2-.3 1.9-.3a5 5 0 0 1 1.7.3c.5.1.8.3 1 .6.2.2.3.6.4 1l.1 1.2v4.4l.4 1h-1.4a3 3 0 0 1-.3-1Zm-.1-3.2-2.3.6-1.2.2a1.2 1.2 0 0 0-.8 1.2c0 .3.1.7.4 1 .3.2.7.3 1.3.3.5 0 1-.1 1.4-.4.4-.2.8-.5 1-1l.2-1.3v-.6Zm6.7 3 .2 1.2-1.1.1c-.5 0-1 0-1.2-.2-.3-.2-.5-.4-.6-.7a5 5 0 0 1-.2-1.6v-4.8h-1v-1.1h1v-2l1.4-.9v2.9h1.5v1.1h-1.5v4.8l.1.8.3.3.4.1h.7Zm6.8-1.8 1.3.1c-.1 1-.5 1.7-1.1 2.3-.6.5-1.4.8-2.3.8-1.1 0-2-.4-2.8-1.1-.6-.8-1-1.8-1-3.2 0-1 .2-1.7.5-2.4a3 3 0 0 1 1.3-1.5 4 4 0 0 1 2-.5c.9 0 1.6.2 2.2.7.6.5 1 1.1 1.1 2l-1.4.2c0-.6-.3-1-.7-1.3-.3-.3-.7-.4-1.2-.4-.7 0-1.2.2-1.7.7-.4.5-.6 1.3-.6 2.4 0 1.2.2 2 .6 2.5.4.5 1 .7 1.7.7.5 0 1-.1 1.4-.5.3-.3.6-.8.7-1.5Zm2.5 3v-11.5h1.4v4.2c.7-.8 1.5-1.2 2.5-1.2.6 0 1.2.1 1.6.4.5.2.8.6 1 1 .2.4.3 1 .3 1.8v5.3h-1.4v-5.3c0-.7-.2-1.2-.5-1.5-.3-.3-.7-.5-1.3-.5-.4 0-.8.1-1.1.4-.4.2-.7.5-.8.8a4 4 0 0 0-.3 1.6v4.5h-1.4Zm9-9.8v-1.7h1.4v1.7H77Zm0 9.8v-8.3h1.4v8.3H77Zm3.5 0v-8.3H82v1.2a3 3 0 0 1 2.6-1.4c.5 0 1 .1 1.4.3l1 .7.4 1v6.5H86v-5l-.1-1.3c-.1-.3-.3-.5-.6-.7-.3-.2-.6-.3-1-.3-.6 0-1.1.2-1.5.6-.5.4-.7 1.1-.7 2.2v4.5h-1.4Zm8.7.7 1.3.2c0 .4.2.7.5 1 .4.2.8.3 1.4.3.7 0 1.2-.1 1.5-.4.4-.2.6-.6.8-1v-1.9c-.6.7-1.3 1.1-2.2 1.1-1.2 0-2-.4-2.7-1.2-.6-.9-1-1.8-1-3 0-.8.2-1.5.5-2.2.3-.7.7-1.2 1.3-1.5.5-.4 1.1-.6 1.9-.6 1 0 1.8.4 2.4 1.2v-1h1.3v7.2c0 1.3-.1 2.2-.4 2.7-.3.6-.7 1-1.3 1.3-.5.3-1.2.5-2 .5a4 4 0 0 1-2.5-.7c-.6-.4-.9-1.1-.8-2Zm1.1-5c0 1 .2 1.9.7 2.4.4.5 1 .7 1.6.7a2 2 0 0 0 1.6-.7c.5-.5.7-1.3.7-2.4 0-1-.2-1.7-.7-2.2a2 2 0 0 0-3.2 0c-.5.5-.7 1.2-.7 2.2Zm15.5 3 .3 1.3-1.1.1c-.5 0-1 0-1.2-.2-.3-.2-.5-.4-.6-.7a5 5 0 0 1-.2-1.6v-4.8h-1v-1.1h1v-2l1.4-.9v2.9h1.4v1.1h-1.4v4.8l.1.8.2.3.5.1h.6Zm1.4 1.3v-11.5h1.4v4.2c.7-.8 1.5-1.2 2.5-1.2.6 0 1.2.1 1.6.4.5.2.8.6 1 1 .2.4.3 1 .3 1.8v5.3h-1.4v-5.3c0-.7-.2-1.2-.5-1.5-.3-.3-.7-.5-1.3-.5-.4 0-.8.1-1.1.4-.4.2-.7.5-.8.8a4 4 0 0 0-.3 1.6v4.5h-1.4Zm14.6-2.7 1.5.2c-.3.9-.7 1.5-1.3 2-.6.5-1.4.7-2.4.7-1.2 0-2.2-.4-2.9-1.1-.7-.8-1-1.8-1-3.2 0-1.4.3-2.5 1-3.2.8-.8 1.7-1.2 2.8-1.2 1.2 0 2 .4 2.8 1.1.7.8 1 1.9 1 3.2v.4h-6.2c0 1 .3 1.6.8 2.1s1 .7 1.7.7c.5 0 1-.1 1.3-.4.4-.2.7-.7 1-1.3Zm-4.6-2.2h4.6c0-.7-.2-1.3-.5-1.6-.4-.6-1-.8-1.7-.8s-1.2.2-1.7.6c-.4.5-.7 1-.7 1.8Zm13.6 4.9h-1.3v-11.5h1.4v4.1c.6-.7 1.3-1 2.3-1 .5 0 1 0 1.4.2.5.2.8.5 1.1.9.3.4.6.8.7 1.3.2.6.3 1.1.3 1.7 0 1.4-.4 2.5-1 3.3-.8.8-1.6 1.2-2.6 1.2s-1.8-.4-2.3-1.2v1Zm0-4.2c0 1 .1 1.7.4 2.1.4.8 1 1.1 1.8 1.1a2 2 0 0 0 1.6-.8c.4-.5.6-1.3.6-2.4 0-1-.2-1.8-.6-2.4a2 2 0 0 0-1.6-.7 2 2 0 0 0-1.6.8c-.4.5-.6 1.3-.6 2.3Zm13.3 1.5 1.4.2c-.2.9-.6 1.5-1.2 2-.7.5-1.5.7-2.4.7-1.2 0-2.2-.4-3-1.1-.6-.8-1-1.8-1-3.2 0-1.4.4-2.5 1.1-3.2.7-.8 1.7-1.2 2.8-1.2 1.1 0 2 .4 2.7 1.1.7.8 1 1.9 1 3.2v.4h-6.1c0 1 .3 1.6.8 2.1.4.5 1 .7 1.7.7.5 0 1-.1 1.3-.4.4-.2.7-.7.9-1.3Zm-4.6-2.2h4.6c0-.7-.2-1.3-.5-1.6-.5-.6-1-.8-1.8-.8-.6 0-1.2.2-1.6.6-.4.5-.7 1-.7 1.8Zm7.6 5.6 1.3.2c0 .4.2.7.5 1 .3.2.8.3 1.4.3.7 0 1.2-.1 1.5-.4.4-.2.6-.6.8-1v-1.9c-.6.7-1.3 1.1-2.2 1.1-1.2 0-2-.4-2.7-1.2-.6-.9-1-1.8-1-3 0-.8.2-1.5.5-2.2.3-.7.7-1.2 1.2-1.5.6-.4 1.2-.6 2-.6 1 0 1.7.4 2.4 1.2v-1h1.3v7.2c0 1.3-.2 2.2-.4 2.7-.3.6-.7 1-1.3 1.3-.5.3-1.2.5-2 .5a4 4 0 0 1-2.5-.7c-.6-.4-.9-1.1-.8-2Zm1.1-5c0 1 .2 1.9.7 2.4.4.5 1 .7 1.6.7a2 2 0 0 0 1.6-.7c.5-.5.7-1.3.7-2.4 0-1-.3-1.7-.7-2.2a2 2 0 0 0-3.2 0c-.5.5-.7 1.2-.7 2.2Zm8-5.5v-1.7h1.4v1.7h-1.4Zm0 9.8v-8.3h1.4v8.3h-1.4Zm3.6 0v-8.3h1.2v1.2a3 3 0 0 1 2.7-1.4c.5 0 1 .1 1.4.3.4.2.7.4.9.7.2.3.4.6.4 1l.1 1.4v5.1h-1.4v-5c0-.6 0-1-.2-1.3 0-.3-.3-.5-.5-.7-.3-.2-.6-.3-1-.3-.6 0-1.1.2-1.6.6-.4.4-.6 1.1-.6 2.2v4.5h-1.4Zm8.9 0v-8.3h1.2v1.2a3 3 0 0 1 2.7-1.4c.5 0 1 .1 1.4.3l1 .7c.1.3.3.6.3 1l.1 1.4v5.1h-1.4v-5l-.1-1.3-.6-.7c-.3-.2-.6-.3-1-.3-.6 0-1.1.2-1.6.6-.4.4-.6 1.1-.6 2.2v4.5h-1.4Zm8.9-9.8v-1.7h1.4v1.7h-1.4Zm0 9.8v-8.3h1.4v8.3h-1.4Zm3.6 0v-8.3h1.2v1.2a3 3 0 0 1 2.7-1.4c.5 0 1 .1 1.3.3.5.2.8.4 1 .7l.4 1v6.5h-1.3v-5c0-.6 0-1-.2-1.3 0-.3-.3-.5-.6-.7-.2-.2-.6-.3-1-.3-.5 0-1 .2-1.5.6-.4.4-.6 1.1-.6 2.2v4.5h-1.4Zm8.6.7 1.4.2c0 .4.2.7.4 1 .4.2.9.3 1.5.3s1.1-.1 1.5-.4c.3-.2.6-.6.7-1l.1-1.9c-.6.7-1.4 1.1-2.3 1.1-1.1 0-2-.4-2.6-1.2-.7-.9-1-1.8-1-3 0-.8.2-1.5.4-2.2.3-.7.7-1.2 1.3-1.5.5-.4 1.2-.6 2-.6.9 0 1.7.4 2.3 1.2v-1h1.3v7.2c0 1.3-.1 2.2-.4 2.7-.2.6-.6 1-1.2 1.3-.6.3-1.3.5-2.1.5a4 4 0 0 1-2.4-.7c-.6-.4-1-1.1-.9-2Zm1.2-5c0 1 .2 1.9.6 2.4.4.5 1 .7 1.6.7a2 2 0 0 0 1.7-.7c.4-.5.6-1.3.6-2.4 0-1-.2-1.7-.7-2.2a2 2 0 0 0-3.2 0c-.4.5-.6 1.2-.6 2.2Zm11.9.2c0-1.6.4-2.7 1.3-3.5.7-.6 1.6-.9 2.6-.9 1.1 0 2 .4 2.8 1.1.7.8 1 1.8 1 3.1 0 1.1 0 2-.4 2.6-.3.6-.8 1-1.4 1.4a4 4 0 0 1-2 .5c-1.2 0-2.1-.4-2.8-1.1-.7-.8-1.1-1.8-1.1-3.2Zm1.4 0c0 1 .3 1.8.7 2.3.5.6 1 .8 1.8.8.7 0 1.3-.2 1.7-.8.5-.5.7-1.3.7-2.4 0-1-.2-1.8-.7-2.3-.4-.6-1-.8-1.7-.8s-1.3.2-1.8.8c-.4.5-.7 1.3-.7 2.4Zm8.4 4.1v-7.2h-1.3v-1.1h1.3v-.9l.1-1.2c.1-.4.4-.7.7-1l1.5-.2h1.3l-.2 1.3h-.9c-.4 0-.7 0-.9.2-.2.2-.2.5-.2 1v.8h1.6v1.1h-1.6v7.2h-1.4Zm14-1-1.6 1-1.5.2c-1 0-1.6-.2-2.1-.7-.5-.4-.7-1-.7-1.7a2.3 2.3 0 0 1 1-2l1-.4 1.2-.2c1.2-.1 2-.3 2.5-.5v-.3c0-.6-.1-1-.4-1.2-.3-.4-.9-.5-1.6-.5-.6 0-1.1.1-1.4.3-.3.3-.6.7-.7 1.3l-1.4-.2c.1-.6.3-1 .6-1.5.3-.3.7-.6 1.3-.8.5-.2 1.1-.3 1.8-.3a5 5 0 0 1 1.8.3c.4.1.7.3 1 .6l.4 1v3.2l.1 2.4.4 1H227a3 3 0 0 1-.3-1Zm-.2-3.2-2.3.6-1.2.2a1.2 1.2 0 0 0-.3 2.1c.3.3.7.4 1.2.4.6 0 1-.1 1.5-.4.4-.2.7-.5.9-1 .2-.3.2-.7.2-1.3v-.6Zm3.6 4.2v-8.3h1.3v1.2a3 3 0 0 1 2.6-1.4c.5 0 1 .1 1.4.3.4.2.8.4 1 .7l.4 1v6.5h-1.3v-5c0-.6 0-1-.2-1.3-.1-.3-.3-.5-.6-.7-.3-.2-.6-.3-1-.3-.6 0-1 .2-1.5.6-.4.4-.7 1.1-.7 2.2v4.5h-1.4Zm18.8-1-1.5 1-1.5.2c-1 0-1.7-.2-2.1-.7-.5-.4-.8-1-.8-1.7a2.3 2.3 0 0 1 1-2l1-.4 1.3-.2c1.1-.1 2-.3 2.5-.5v-.3c0-.6-.1-1-.4-1.2-.4-.4-.9-.5-1.6-.5-.7 0-1.2.1-1.5.3-.3.3-.5.7-.7 1.3l-1.3-.2c0-.6.3-1 .6-1.5.3-.3.7-.6 1.2-.8.6-.2 1.2-.3 1.9-.3a5 5 0 0 1 1.7.3c.5.1.8.3 1 .6.2.2.4.6.4 1l.1 1.2v2l.1 2.4c0 .4.2.7.4 1h-1.5a3 3 0 0 1-.3-1Zm-.1-3.2-2.3.6-1.2.2a1.2 1.2 0 0 0-.8 1.2c0 .3.2.7.4 1 .3.2.7.3 1.3.3.5 0 1-.1 1.4-.4.5-.2.8-.5 1-1l.2-1.3v-.6Zm9 4.2v-1c-.5.8-1.3 1.2-2.3 1.2a3.6 3.6 0 0 1-3.1-2c-.4-.7-.5-1.5-.5-2.3 0-.9.1-1.6.4-2.3a3.3 3.3 0 0 1 3.1-2c.5 0 1 0 1.3.2.4.2.7.5 1 .9v-4.2h1.4V404h-1.3Zm-4.5-4.1c0 1 .3 1.8.7 2.3.5.6 1 .8 1.6.8a2 2 0 0 0 1.6-.7c.4-.5.6-1.3.6-2.3 0-1.2-.2-2-.6-2.5a2 2 0 0 0-3.2 0c-.5.5-.7 1.3-.7 2.4Zm13.4 4.1v-1c-.5.8-1.3 1.2-2.3 1.2a3.6 3.6 0 0 1-3.1-2 5.9 5.9 0 0 1 0-4.5 3.3 3.3 0 0 1 4.3-1.9c.4.2.8.5 1 .9v-4.2h1.4V404h-1.3Zm-4.5-4.1c0 1 .3 1.8.7 2.3.5.6 1 .8 1.6.8a2 2 0 0 0 1.6-.7c.4-.5.6-1.3.6-2.3 0-1.2-.2-2-.6-2.5a2 2 0 0 0-3.2 0c-.4.5-.7 1.3-.7 2.4Zm8 4.1v-8.3h1.3v1.3c.3-.6.6-1 .9-1.2.2-.2.5-.3.9-.3s1 .2 1.4.5l-.5 1.3a2 2 0 0 0-1-.3c-.3 0-.6 0-.8.3-.3.1-.5.4-.6.7l-.2 1.7v4.3h-1.4Zm11-2.7 1.5.2c-.3.9-.7 1.5-1.3 2-.6.5-1.4.7-2.4.7-1.2 0-2.2-.4-2.9-1.1-.7-.8-1-1.8-1-3.2 0-1.4.3-2.5 1-3.2.8-.8 1.7-1.2 2.8-1.2 1.2 0 2 .4 2.8 1.1.7.8 1 1.9 1 3.2v.4h-6.2c0 1 .3 1.6.8 2.1s1 .7 1.7.7c.5 0 1-.1 1.4-.4.3-.2.6-.7.8-1.3Zm-4.6-2.2h4.6c0-.7-.2-1.3-.5-1.6-.4-.6-1-.8-1.7-.8s-1.2.2-1.7.6c-.4.5-.6 1-.7 1.8Zm7.3 2.4 1.4-.2c0 .6.3 1 .6 1.3.4.3.9.4 1.5.4.7 0 1.1-.1 1.5-.4.3-.2.4-.5.4-.9 0-.3-.1-.6-.4-.7-.2-.2-.7-.3-1.4-.5l-2.2-.7c-.4-.2-.7-.4-.9-.8-.2-.3-.3-.7-.3-1 0-.5.1-.8.3-1.1.1-.3.4-.6.7-.8.2-.2.5-.3.9-.4l1.2-.2c.6 0 1.2.1 1.7.3.5.2.8.4 1 .8.3.3.5.7.6 1.2l-1.4.2c0-.4-.3-.7-.6-1a2 2 0 0 0-1.2-.3c-.7 0-1.1 0-1.4.3-.3.2-.4.5-.4.7 0 .2 0 .4.2.5 0 .2.2.3.5.4l1.2.4 2.1.6c.4.2.7.4 1 .8.2.3.3.7.3 1.2 0 .4-.2.9-.4 1.3-.3.4-.7.7-1.2 1-.5.2-1.1.3-1.8.3a4 4 0 0 1-2.4-.7c-.6-.4-1-1.1-1.1-2Zm8 0 1.4-.2c0 .6.3 1 .6 1.3.4.3.9.4 1.5.4.7 0 1.1-.1 1.5-.4.3-.2.4-.5.4-.9 0-.3-.1-.6-.4-.7-.2-.2-.7-.3-1.4-.5l-2.2-.7c-.4-.2-.7-.4-.9-.8-.2-.3-.3-.7-.3-1 0-.5.1-.8.3-1.1.1-.3.4-.6.7-.8.2-.2.5-.3.9-.4l1.2-.2c.6 0 1.2.1 1.7.3.5.2.8.4 1 .8.3.3.5.7.6 1.2l-1.4.2c0-.4-.3-.7-.6-1a2 2 0 0 0-1.2-.3c-.7 0-1.1 0-1.4.3-.3.2-.4.5-.4.7 0 .2 0 .4.2.5 0 .2.2.3.5.4l1.2.4 2.1.6c.4.2.7.4 1 .8.2.3.3.7.3 1.2 0 .4-.2.9-.4 1.3-.3.4-.7.7-1.2 1-.5.2-1.1.3-1.8.3a4 4 0 0 1-2.4-.7c-.6-.4-1-1.1-1.1-2Zm15.7 5.9a14 14 0 0 1-2-3.5 10.7 10.7 0 0 1-.2-7.6 15 15 0 0 1 2.2-4h1l-1.3 2.4a12.6 12.6 0 0 0-1 5.2c0 2.5.7 5 2.3 7.5h-1Zm3-3.4v-7.2h-1.3v-1.1h1.3v-.9l.1-1.2c.1-.4.4-.7.7-1l1.5-.2h1.3l-.2 1.3h-.9c-.4 0-.7 0-.9.2l-.2 1v.8h1.6v1.1H312v7.2h-1.4Zm3.6-4.1c0-1.6.4-2.7 1.2-3.5.8-.6 1.6-.9 2.6-.9 1.2 0 2.1.4 2.8 1.1.8.8 1.1 1.8 1.1 3.1 0 1.1-.1 2-.5 2.6-.3.6-.7 1-1.4 1.4a4 4 0 0 1-2 .5c-1.1 0-2-.4-2.8-1.1-.7-.8-1-1.8-1-3.2Zm1.4 0c0 1 .2 1.8.7 2.3.5.6 1 .8 1.8.8.6 0 1.2-.2 1.7-.8.5-.5.7-1.3.7-2.4 0-1-.2-1.8-.7-2.3-.5-.6-1-.8-1.8-.8-.7 0-1.2.2-1.7.8-.5.5-.7 1.3-.7 2.4Zm8 4.1v-8.3h1.2v1.3c.4-.6.7-1 1-1.2.2-.2.5-.3.8-.3.5 0 1 .2 1.5.5l-.5 1.3a2 2 0 0 0-1-.3c-.3 0-.6 0-.9.3-.2.1-.4.4-.5.7l-.2 1.7v4.3h-1.4Zm9.8-9.8v-1.7h1.4v1.7h-1.4Zm0 9.8v-8.3h1.4v8.3h-1.4Zm3.5 0v-8.3h1.3v1.2a3 3 0 0 1 2.6-1.4c.5 0 1 .1 1.4.3.4.2.8.4 1 .7l.4 1v6.5h-1.3v-5c0-.6 0-1-.2-1.3-.1-.3-.3-.5-.6-.7-.3-.2-.6-.3-1-.3-.6 0-1 .2-1.5.6-.4.4-.7 1.1-.7 2.2v4.5H337Zm8.4-2.5 1.4-.2c0 .6.3 1 .6 1.3.4.3.9.4 1.5.4.7 0 1.1-.1 1.5-.4.3-.2.4-.5.4-.9 0-.3-.1-.6-.4-.7-.2-.2-.7-.3-1.4-.5l-2.2-.7c-.4-.2-.7-.4-.9-.8-.2-.3-.3-.7-.3-1 0-.5 0-.8.3-1.1.1-.3.4-.6.7-.8l.8-.4 1.3-.2c.6 0 1.2.1 1.7.3.5.2.8.4 1 .8.3.3.5.7.6 1.2l-1.4.2c0-.4-.3-.7-.6-1a2 2 0 0 0-1.2-.3c-.7 0-1.1 0-1.4.3-.3.2-.4.5-.4.7l.1.5.6.4 1.2.4 2.1.6c.4.2.7.4 1 .8.2.3.3.7.3 1.2 0 .4-.2.9-.4 1.3-.3.4-.7.7-1.2 1-.5.2-1.1.3-1.8.3a4 4 0 0 1-2.4-.7c-.6-.4-1-1.1-1.1-2Zm11.6 1.2.2 1.3-1 .1c-.6 0-1 0-1.2-.2-.3-.2-.5-.4-.6-.7a5 5 0 0 1-.2-1.6v-4.8h-1v-1.1h1v-2l1.4-.9v2.9h1.4v1.1h-1.4v5.6l.3.3.5.1h.6Zm6.8.3-1.5 1-1.5.2c-1 0-1.7-.2-2.2-.7-.4-.4-.7-1-.7-1.7a2.3 2.3 0 0 1 1-2l1-.4 1.3-.2c1.1-.1 2-.3 2.5-.5v-.3c0-.6-.1-1-.4-1.2-.4-.4-.9-.5-1.6-.5-.7 0-1.2.1-1.5.3-.3.3-.5.7-.7 1.3l-1.3-.2c0-.6.3-1 .6-1.5.3-.3.7-.6 1.2-.8.6-.2 1.2-.3 1.9-.3a5 5 0 0 1 1.7.3c.5.1.8.3 1 .6.2.2.4.6.4 1l.1 1.2v2l.1 2.4c0 .4.2.7.4 1H364a3 3 0 0 1-.3-1Zm-.1-3.2-2.3.6-1.2.2a1.2 1.2 0 0 0-.8 1.2c0 .3.2.7.4 1 .3.2.7.3 1.3.3.5 0 1-.1 1.4-.4.5-.2.8-.5 1-1l.2-1.3v-.6Zm3.6 4.2v-8.3h1.3v1.2a3 3 0 0 1 2.6-1.4c.5 0 1 .1 1.4.3l1 .7.4 1v6.5h-1.4v-5l-.1-1.3c-.1-.3-.3-.5-.6-.7-.3-.2-.6-.3-1-.3-.6 0-1.1.2-1.5.6-.5.4-.7 1.1-.7 2.2v4.5h-1.4Zm14.3-3 1.4.1c-.1 1-.5 1.7-1.2 2.3-.6.5-1.3.8-2.3.8-1 0-2-.4-2.7-1.1-.7-.8-1-1.8-1-3.2 0-1 .1-1.7.4-2.4a3 3 0 0 1 1.4-1.5 4 4 0 0 1 2-.5c.9 0 1.6.2 2.2.7.5.5 1 1.1 1 2l-1.3.2c-.1-.6-.4-1-.7-1.3-.3-.3-.7-.4-1.2-.4-.7 0-1.3.2-1.7.7-.5.5-.7 1.3-.7 2.4 0 1.2.2 2 .7 2.5.4.5 1 .7 1.6.7.6 0 1-.1 1.4-.5.4-.3.6-.8.7-1.5Zm8.3.3 1.4.2c-.2.9-.6 1.5-1.2 2-.7.5-1.4.7-2.4.7-1.2 0-2.2-.4-2.9-1.1-.7-.8-1-1.8-1-3.2 0-1.4.3-2.5 1-3.2.7-.8 1.7-1.2 2.8-1.2 1.1 0 2 .4 2.7 1.1.7.8 1 1.9 1 3.2v.4h-6.1c0 1 .3 1.6.8 2.1.4.5 1 .7 1.7.7.5 0 1-.1 1.3-.4.4-.2.7-.7.9-1.3Zm-4.6-2.2h4.6c0-.7-.2-1.3-.5-1.6-.5-.6-1-.8-1.8-.8-.6 0-1.2.2-1.6.6-.4.5-.7 1-.7 1.8Zm8.2 4.9v-1.6h1.6v1.6c0 .6-.1 1-.3 1.4a2 2 0 0 1-1 .9l-.4-.6.6-.6c.2-.3.3-.6.3-1.1h-.8Zm10.8-11.5v4.3a3.2 3.2 0 0 1 3.9-1l1 .7c.1.3.3.6.3 1l.2 1.6v4.9h-2.2v-4.4c0-.9 0-1.4-.2-1.6a1 1 0 0 0-.4-.6l-.8-.2c-.4 0-.7 0-1 .3-.3.1-.5.4-.6.8l-.2 1.5v4.2h-2.2v-11.5h2.2Zm11.4 3.2v1.8h-1.5v4.5l.2.3h.4l.9-.1.2 1.7c-.5.2-1.1.3-1.8.3-.4 0-.7 0-1-.2-.3-.1-.6-.3-.7-.5-.2-.2-.3-.5-.3-.9l-.1-1.5v-3.6h-1v-1.8h1v-1.6l2.2-1.3v2.9h1.5Zm5.3 0v1.8h-1.5v4.5l.3.3h.3l1-.1.1 1.7c-.5.2-1 .3-1.7.3-.4 0-.8 0-1.1-.2-.3-.1-.6-.3-.7-.5-.1-.2-.3-.5-.3-.9v-5.1h-1v-1.8h1v-1.6l2.1-1.3v2.9h1.5Zm1.5 0h2v1.2a3 3 0 0 1 2.6-1.4c1 0 1.8.4 2.5 1.1.6.8 1 1.9 1 3.2 0 1.4-.4 2.5-1 3.2a3.2 3.2 0 0 1-3.7 1l-1.2-1v4.2h-2.2v-11.5Zm2.2 4c0 1 .1 1.6.5 2 .4.5.8.7 1.4.7.5 0 .9-.2 1.2-.6.4-.4.5-1 .5-2 0-.8-.1-1.5-.5-2-.3-.3-.8-.6-1.3-.6s-1 .3-1.3.7c-.4.4-.5 1-.5 1.8Zm8-1.8v-2.2h2.2v2.2h-2.1Zm0 6.1v-2.2h2.2v2.2h-2.1Zm3.8.2 2.8-11.8h1.7l-2.9 11.8h-1.6Zm4.4 0 2.9-11.8h1.6l-2.8 11.8h-1.7Zm9.5-4.3c0-1.6.4-2.7 1.3-3.5.7-.6 1.6-.9 2.6-.9 1.1 0 2 .4 2.8 1.1.7.8 1 1.8 1 3.1 0 1.1 0 2-.4 2.6-.3.6-.8 1-1.4 1.4a4 4 0 0 1-2 .5c-1.2 0-2.1-.4-2.8-1.1-.7-.8-1.1-1.8-1.1-3.2Zm1.4 0c0 1 .3 1.8.7 2.3.5.6 1 .8 1.8.8.7 0 1.3-.2 1.7-.8.5-.5.7-1.3.7-2.4 0-1-.2-1.8-.7-2.3-.4-.6-1-.8-1.7-.8s-1.3.2-1.8.8c-.4.5-.7 1.3-.7 2.4Zm8 4.1v-8.3h1.3v1.3c.3-.6.6-1 .9-1.2.2-.2.5-.3.9-.3.5 0 1 .2 1.4.5l-.5 1.3a2 2 0 0 0-1-.3c-.3 0-.6 0-.8.3-.3.1-.4.4-.5.7-.2.5-.3 1-.3 1.7v4.3h-1.4Zm12-11.5v4.3a3.2 3.2 0 0 1 4-1l1 .7c.1.3.3.6.3 1l.2 1.6v4.9H475v-4.4c0-.9 0-1.4-.2-1.6a1 1 0 0 0-.4-.6l-.8-.2c-.4 0-.7 0-1 .3-.3.1-.5.4-.6.8l-.2 1.5v4.2h-2.2v-11.5h2.2Zm11.5 3.2v1.8h-1.5v4.5l.2.3h.4l.9-.1.2 1.7c-.5.2-1.1.3-1.8.3-.4 0-.7 0-1-.2-.4-.1-.6-.3-.7-.5-.2-.2-.3-.5-.3-.9l-.1-1.5v-3.6h-1v-1.8h1v-1.6l2.2-1.3v2.9h1.5Zm5.3 0v1.8h-1.5v4.5l.3.3h.3l1-.1.1 1.7c-.5.2-1 .3-1.7.3-.4 0-.8 0-1.1-.2-.3-.1-.6-.3-.7-.5-.2-.2-.3-.5-.3-.9v-5.1h-1v-1.8h1v-1.6l2.1-1.3v2.9h1.5Zm1.5 0h2v1.2a3 3 0 0 1 2.6-1.4c1 0 1.8.4 2.5 1.1.6.8 1 1.9 1 3.2 0 1.4-.4 2.5-1 3.2a3.2 3.2 0 0 1-3.8 1l-1.1-1v4.2H490v-11.5Zm2.2 4c0 1 .1 1.6.5 2 .4.5.8.7 1.4.7.5 0 .9-.2 1.2-.6.4-.4.5-1 .5-2 0-.8-.1-1.5-.5-2-.3-.3-.8-.6-1.3-.6s-1 .3-1.3.7c-.4.4-.5 1-.5 1.8Zm6.8 2 2.3-.4c0 .4.2.7.5 1 .3.2.7.3 1.2.3.6 0 1-.1 1.3-.3l.3-.6c0-.2 0-.3-.2-.4l-.7-.3c-1.8-.4-2.9-.7-3.4-1-.6-.5-1-1.1-1-2 0-.7.3-1.3 1-1.8.5-.4 1.4-.7 2.5-.7 1.2 0 2 .2 2.6.6.5.3 1 .9 1.1 1.6l-2 .4c-.1-.3-.3-.6-.6-.7-.2-.2-.6-.3-1-.3-.6 0-1 0-1.3.2l-.2.5c0 .1 0 .3.2.4l2 .6c1.2.3 2 .6 2.5 1s.7 1 .7 1.6c0 .8-.3 1.4-1 2-.6.5-1.5.8-2.8.8-1.1 0-2-.2-2.7-.7-.6-.5-1-1-1.3-1.9Zm10.2-3.8v-2.2h2.1v2.2h-2.1Zm0 6.1v-2.2h2.1v2.2h-2.1Zm3.7.2 2.8-11.8h1.7l-2.9 11.8H513Zm4.4 0 2.9-11.8h1.6l-2.8 11.8h-1.7Zm6.5 3.2h-1a14 14 0 0 0 2.3-7.5 12.8 12.8 0 0 0-1-5.2l-1.3-2.3h1a15 15 0 0 1 2.2 3.9 10.6 10.6 0 0 1-.2 7.6c-.6 1.3-1.2 2.5-2 3.5Z"/></svg>